# This file uses centimeters as units for non-parametric coordinates.

v -0.113440 -0.143897 0.081633
v -0.038558 -0.172151 0.089553
v 0.036325 -0.172151 0.089553
v 0.089496 -0.144344 0.068185
v -0.139110 -0.048812 0.158433
v -0.057270 -0.078187 0.224125
v 0.024744 -0.078187 0.162288
v 0.145594 -0.078187 0.096595
v -0.148180 0.078187 0.158433
v -0.057270 0.078187 0.224125
v 0.024744 0.078187 0.162288
v 0.145594 0.078187 0.096595
v -0.148180 0.234562 0.158433
v -0.063580 0.277221 0.158433
v 0.074710 0.273487 0.149188
v 0.163867 0.238296 0.129954
v -0.199679 0.260768 0.034028
v -0.075259 0.364244 0.031956
v 0.074710 0.338796 0.062056
v 0.224150 0.238296 0.062056
v -0.160258 0.212847 -0.020777
v -0.069346 0.313990 -0.038276
v 0.070987 0.331543 -0.071207
v 0.184987 0.224996 -0.047977
v -0.143570 0.214966 -0.157777
v -0.058575 0.292702 -0.154924
v 0.070987 0.271310 -0.148213
v 0.133708 0.198118 -0.101180
v -0.140584 0.078187 -0.157777
v -0.058575 0.088485 -0.224925
v 0.070987 0.109876 -0.211228
v 0.127919 0.115789 -0.107572
v -0.148180 -0.078187 -0.158433
v -0.063580 -0.078187 -0.194593
v 0.054522 -0.058592 -0.192132
v 0.138445 -0.029239 -0.158263
v -0.116919 -0.143252 -0.123137
v -0.028496 -0.198417 -0.108124
v 0.036325 -0.172151 -0.097045
v 0.104804 -0.155973 -0.079904
v -0.123501 -0.184066 -0.081725
v -0.053285 -0.247638 -0.049801
v 0.036325 -0.246623 -0.034846
v 0.111207 -0.172151 -0.034846
v -0.113440 -0.172151 0.027353
v -0.038558 -0.246623 0.027353
v 0.036325 -0.246623 0.027353
v 0.111207 -0.172151 0.027353
v 0.165801 -0.095015 -0.061446
v 0.190739 -0.078187 0.052811
v 0.172460 0.075286 -0.029566
v 0.235280 0.078187 0.052811
v -0.190739 -0.078187 -0.052811
v -0.190739 -0.078187 0.052811
v -0.162006 0.078187 -0.043935
v -0.243341 0.078187 0.035070
vt 0.375000 0.000000
vt 0.458333 0.000000
vt 0.541667 0.000000
vt 0.625000 0.000000
vt 0.375000 0.083333
vt 0.458333 0.083333
vt 0.541667 0.083333
vt 0.625000 0.083333
vt 0.375000 0.166667
vt 0.458333 0.166667
vt 0.541667 0.166667
vt 0.625000 0.166667
vt 0.375000 0.250000
vt 0.458333 0.250000
vt 0.541667 0.250000
vt 0.625000 0.250000
vt 0.375000 0.333333
vt 0.458333 0.333333
vt 0.541667 0.333333
vt 0.625000 0.333333
vt 0.375000 0.416667
vt 0.458333 0.416667
vt 0.541667 0.416667
vt 0.625000 0.416667
vt 0.375000 0.500000
vt 0.458333 0.500000
vt 0.541667 0.500000
vt 0.625000 0.500000
vt 0.375000 0.583333
vt 0.458333 0.583333
vt 0.541667 0.583333
vt 0.625000 0.583333
vt 0.375000 0.666667
vt 0.458333 0.666667
vt 0.541667 0.666667
vt 0.625000 0.666667
vt 0.375000 0.750000
vt 0.458333 0.750000
vt 0.541667 0.750000
vt 0.625000 0.750000
vt 0.375000 0.833333
vt 0.458333 0.833333
vt 0.541667 0.833333
vt 0.625000 0.833333
vt 0.375000 0.916667
vt 0.458333 0.916667
vt 0.541667 0.916667
vt 0.625000 0.916667
vt 0.375000 1.000000
vt 0.458333 1.000000
vt 0.541667 1.000000
vt 0.625000 1.000000
vt 0.875000 0.000000
vt 0.791667 0.000000
vt 0.708333 0.000000
vt 0.875000 0.083333
vt 0.791667 0.083333
vt 0.708333 0.083333
vt 0.875000 0.166667
vt 0.791667 0.166667
vt 0.708333 0.166667
vt 0.875000 0.250000
vt 0.791667 0.250000
vt 0.708333 0.250000
vt 0.125000 0.000000
vt 0.208333 0.000000
vt 0.291667 0.000000
vt 0.125000 0.083333
vt 0.208333 0.083333
vt 0.291667 0.083333
vt 0.125000 0.166667
vt 0.208333 0.166667
vt 0.291667 0.166667
vt 0.125000 0.250000
vt 0.208333 0.250000
vt 0.291667 0.250000
vn -0.498709 -0.695474 0.517306
vn -0.134220 -0.754637 0.642268
vn -0.043617 -0.315487 0.947927
vn -0.599852 -0.352497 0.718278
vn 0.354456 -0.633005 0.688233
vn 0.482903 -0.257161 0.837062
vn 0.439807 -0.563843 0.699036
vn 0.484425 -0.150486 0.861793
vn 0.018124 0.087305 0.996017
vn -0.490782 0.079186 0.867677
vn 0.424729 0.027230 0.904911
vn 0.419850 -0.058703 0.905693
vn 0.050953 0.166237 0.984769
vn -0.380144 0.161581 0.910704
vn 0.334777 0.009348 0.942251
vn 0.354666 -0.120946 0.927138
vn -0.506481 0.730917 0.457425
vn -0.244248 0.805533 0.539870
vn -0.278585 0.955446 0.097533
vn -0.631939 0.774854 0.015975
vn 0.200359 0.804890 0.558578
vn 0.322620 0.928043 0.186152
vn 0.460306 0.739847 0.490657
vn 0.600142 0.799256 0.031935
vn -0.362368 0.859378 -0.360776
vn -0.664044 0.636706 -0.391984
vn 0.343727 0.869385 -0.354995
vn 0.648493 0.711558 -0.270449
vn -0.424354 0.863935 -0.271182
vn -0.712292 0.689881 -0.129246
vn 0.285086 0.811328 -0.510366
vn 0.685679 0.450722 -0.571571
vn -0.433690 0.177550 -0.883396
vn -0.081172 0.301063 -0.950143
vn -0.134002 0.087980 -0.987068
vn -0.484267 0.055825 -0.873138
vn 0.311238 0.306779 -0.899454
vn 0.325927 0.141892 -0.934686
vn 0.805339 0.144570 -0.574916
vn 0.758747 0.108039 -0.642363
vn -0.138424 -0.311795 -0.940012
vn -0.454644 -0.264774 -0.850408
vn 0.321729 -0.303638 -0.896825
vn 0.620567 -0.200648 -0.758048
vn 0.082039 -0.606039 -0.791193
vn -0.281780 -0.595351 -0.752434
vn 0.297850 -0.594245 -0.747100
vn 0.409229 -0.590415 -0.695660
vn -0.291766 -0.662528 -0.689876
vn -0.008976 -0.708900 -0.705252
vn -0.371588 -0.894215 -0.249605
vn -0.525716 -0.764532 -0.372979
vn 0.350809 -0.686545 -0.636859
vn 0.390370 -0.865034 -0.315161
vn 0.483237 -0.654232 -0.581775
vn 0.630265 -0.718703 -0.293653
vn -0.350208 -0.844478 0.405230
vn -0.620952 -0.703084 0.346543
vn 0.341888 -0.844805 0.411603
vn 0.668310 -0.670654 0.321848
vn -0.244795 -0.671871 0.699045
vn -0.481521 -0.657325 0.579708
vn 0.243047 -0.621092 0.745099
vn 0.538350 -0.538622 0.648125
vn 0.772400 -0.607128 -0.186530
vn 0.688923 -0.544490 -0.478452
vn 0.932807 0.005121 -0.360340
vn 0.906676 -0.236513 -0.349285
vn 0.737352 -0.655902 0.161571
vn 0.934253 -0.294740 0.200750
vn 0.499471 -0.624927 0.599996
vn 0.550777 -0.275042 0.788033
vn 0.901634 0.027428 -0.431629
vn 0.906193 -0.022575 -0.422262
vn 0.986903 -0.099680 0.126831
vn 0.570931 -0.100413 0.814834
vn 0.799348 -0.093840 -0.593496
vn 0.857932 -0.043897 -0.511885
vn 0.967195 -0.091755 0.236884
vn 0.593019 -0.119176 0.796320
vn -0.789782 -0.469801 -0.394375
vn -0.818610 -0.560723 -0.124366
vn -0.946207 -0.218402 -0.238732
vn -0.947970 -0.023831 -0.317465
vn -0.774640 -0.607273 0.176499
vn -0.917624 -0.331825 0.218765
vn -0.672028 -0.600460 0.433390
vn -0.812458 -0.227069 0.536984
vn -0.931903 0.046748 -0.359681
vn -0.974160 0.065222 -0.216239
vn -0.995072 0.017913 0.097523
vn -0.845500 -0.004988 0.533953
vn -0.865178 0.095883 -0.492212
vn -0.988631 0.008296 -0.150131
vn -0.978256 0.150757 0.142436
vn -0.850023 0.111078 0.514901
f 1/1/1 2/2/2 6/6/3 5/5/4
f 2/2/2 3/3/5 7/7/6 6/6/3
f 3/3/5 4/4/7 8/8/8 7/7/6
f 5/5/4 6/6/3 10/10/9 9/9/10
f 6/6/3 7/7/6 11/11/11 10/10/9
f 7/7/6 8/8/8 12/12/12 11/11/11
f 9/9/10 10/10/9 14/14/13 13/13/14
f 10/10/9 11/11/11 15/15/15 14/14/13
f 11/11/11 12/12/12 16/16/16 15/15/15
f 13/13/17 14/14/18 18/18/19 17/17/20
f 14/14/18 15/15/21 19/19/22 18/18/19
f 15/15/21 16/16/23 20/20/24 19/19/22
f 17/17/20 18/18/19 22/22/25 21/21/26
f 18/18/19 19/19/22 23/23/27 22/22/25
f 19/19/22 20/20/24 24/24/28 23/23/27
f 21/21/26 22/22/25 26/26/29 25/25/30
f 22/22/25 23/23/27 27/27/31 26/26/29
f 23/23/27 24/24/28 28/28/32 27/27/31
f 25/25/33 26/26/34 30/30/35 29/29/36
f 26/26/34 27/27/37 31/31/38 30/30/35
f 27/27/37 28/28/39 32/32/40 31/31/38
f 29/29/36 30/30/35 34/34/41 33/33/42
f 30/30/35 31/31/38 35/35/43 34/34/41
f 31/31/38 32/32/40 36/36/44 35/35/43
f 33/33/42 34/34/41 38/38/45 37/37/46
f 34/34/41 35/35/43 39/39/47 38/38/45
f 35/35/43 36/36/44 40/40/48 39/39/47
f 37/37/49 38/38/50 42/42/51 41/41/52
f 38/38/50 39/39/53 43/43/54 42/42/51
f 39/39/53 40/40/55 44/44/56 43/43/54
f 41/41/52 42/42/51 46/46/57 45/45/58
f 42/42/51 43/43/54 47/47/59 46/46/57
f 43/43/54 44/44/56 48/48/60 47/47/59
f 45/45/58 46/46/57 2/50/61 1/49/62
f 46/46/57 47/47/59 3/51/63 2/50/61
f 47/47/59 48/48/60 4/52/64 3/51/63
f 44/54/65 40/53/66 36/56/67 49/57/68
f 48/55/69 44/54/65 49/57/68 50/58/70
f 4/4/71 48/55/69 50/58/70 8/8/72
f 49/57/68 36/56/67 32/59/73 51/60/74
f 50/58/70 49/57/68 51/60/74 52/61/75
f 8/8/72 50/58/70 52/61/75 12/12/76
f 51/60/74 32/59/73 28/62/77 24/63/78
f 52/61/75 51/60/74 24/63/78 20/64/79
f 12/12/76 52/61/75 20/64/79 16/16/80
f 37/65/81 41/66/82 53/69/83 33/68/84
f 41/66/82 45/67/85 54/70/86 53/69/83
f 45/67/85 1/1/87 5/5/88 54/70/86
f 33/68/84 53/69/83 55/72/89 29/71/90
f 53/69/83 54/70/86 56/73/91 55/72/89
f 54/70/86 5/5/88 9/9/92 56/73/91
f 29/71/90 55/72/89 21/75/93 25/74/94
f 55/72/89 56/73/91 17/76/95 21/75/93
f 56/73/91 9/9/92 13/13/96 17/76/95
