# This file uses centimeters as units for non-parametric coordinates.

v -4.279512 -3.462534 2.246962
v 4.279512 -3.462534 2.246962
v -4.279512 -2.462534 2.246962
v 4.279512 -2.462534 2.246962
v -4.279512 -2.462534 -2.246962
v 4.279512 -2.462534 -2.246962
v -4.279512 -3.462534 -2.246962
v 4.279512 -3.462534 -2.246962
v 4.279512 -2.462534 -0.467211
v -4.279512 -2.462534 -0.467211
v -4.279512 -3.462534 -0.467211
v 4.279512 -3.462534 -0.467211
v 4.279512 -2.462534 0.467211
v -4.279512 -2.462534 0.467211
v -4.279512 -3.462534 0.467211
v 4.279512 -3.462534 0.467211
v 3.370454 -2.462534 2.246962
v 3.370454 -2.462534 0.467211
v 3.370454 -2.462534 -0.467211
v 3.370454 -2.462534 -2.246962
v 3.370454 -3.462534 -2.246962
v 3.370454 -3.462534 -0.467211
v 3.370454 -3.462534 0.467211
v 3.370454 -3.462534 2.246962
v -3.370455 -2.462534 2.246962
v -3.370455 -2.462534 0.467211
v -3.370455 -2.462534 -0.467211
v -3.370455 -2.462534 -2.246962
v -3.370455 -3.462534 -2.246962
v -3.370455 -3.462534 -0.467211
v -3.370455 -3.462534 0.467211
v -3.370455 -3.462534 2.246962
v -3.370455 2.732693 0.467211
v -3.370455 2.732693 -0.467211
v 3.370454 2.732693 0.467211
v 3.370454 2.732693 -0.467211
v -3.370455 3.371770 0.467211
v -3.370455 3.371770 -0.467211
v 3.370454 3.371770 0.467211
v 3.370454 3.371770 -0.467211
v -3.370455 6.237060 0.467211
v -3.370455 6.237060 -0.467211
v 3.370454 6.237060 0.467211
v 3.370454 6.237060 -0.467211
v 3.370454 2.732693 4.959257
v -3.370455 2.732693 4.959257
v 3.370454 3.371770 4.959257
v -3.370455 3.371770 4.959257
v 3.370454 2.732693 -4.959257
v -3.370455 2.732693 -4.959257
v -3.370455 3.371770 -4.959257
v 3.370454 3.371770 -4.959257
vt 0.375000 0.000000
vt 0.625000 0.000000
vt 0.375000 0.250000
vt 0.625000 0.250000
vt 0.375000 0.500000
vt 0.625000 0.500000
vt 0.375000 0.750000
vt 0.625000 0.750000
vt 0.375000 1.000000
vt 0.625000 1.000000
vt 0.875000 0.000000
vt 0.875000 0.250000
vt 0.125000 0.000000
vt 0.125000 0.250000
vt 0.625000 0.416667
vt 0.791667 0.250000
vt 0.208333 0.250000
vt 0.375000 0.416667
vt 0.208333 0.000000
vt 0.375000 0.833333
vt 0.625000 0.833333
vt 0.791667 0.000000
vt 0.625000 0.333333
vt 0.708333 0.250000
vt 0.291667 0.250000
vt 0.375000 0.333333
vt 0.291667 0.000000
vt 0.375000 0.916667
vt 0.625000 0.916667
vt 0.708333 0.000000
vt 0.541667 0.250000
vt 0.541667 0.333333
vt 0.541667 0.416667
vt 0.541667 0.500000
vt 0.541667 0.750000
vt 0.541667 0.833333
vt 0.541667 0.916667
vt 0.541667 0.000000
vt 0.541667 1.000000
vt 0.458333 0.250000
vt 0.458333 0.333333
vt 0.458333 0.416667
vt 0.458333 0.500000
vt 0.458333 0.750000
vt 0.458333 0.833333
vt 0.458333 0.916667
vt 0.458333 0.000000
vt 0.458333 1.000000
vt 0.458333 0.416667
vt 0.458333 0.333333
vt 0.541667 0.333333
vt 0.541667 0.416667
vt 0.458333 0.416667
vt 0.458333 0.333333
vt 0.541667 0.333333
vt 0.541667 0.416667
vt 0.458333 0.416667
vt 0.458333 0.333333
vt 0.541667 0.333333
vt 0.541667 0.416667
vt 0.458333 0.333333
vt 0.541667 0.333333
vt 0.541667 0.333333
vt 0.458333 0.333333
vt 0.541667 0.416667
vt 0.458333 0.416667
vt 0.458333 0.416667
vt 0.541667 0.416667
vn 0.000000 0.000000 1.000000
vn 0.000000 0.000000 1.000000
vn 0.000000 0.000000 1.000000
vn 0.000000 0.000000 1.000000
vn 0.000000 1.000000 0.000000
vn 0.000000 1.000000 0.000000
vn 0.000000 1.000000 0.000000
vn 0.000000 1.000000 0.000000
vn 0.000000 0.000000 -1.000000
vn 0.000000 0.000000 -1.000000
vn 0.000000 0.000000 -1.000000
vn 0.000000 0.000000 -1.000000
vn 0.000000 -1.000000 0.000000
vn 0.000000 -1.000000 0.000000
vn 0.000000 -1.000000 0.000000
vn 0.000000 -1.000000 0.000000
vn 1.000000 0.000000 0.000000
vn 1.000000 0.000000 0.000000
vn 1.000000 0.000000 0.000000
vn 1.000000 0.000000 0.000000
vn -1.000000 0.000000 0.000000
vn -1.000000 0.000000 0.000000
vn -1.000000 0.000000 0.000000
vn -1.000000 0.000000 0.000000
vn 0.000000 1.000000 0.000000
vn 0.000000 1.000000 0.000000
vn 0.000000 1.000000 0.000000
vn 0.000000 1.000000 0.000000
vn -1.000000 0.000000 0.000000
vn -1.000000 0.000000 0.000000
vn -1.000000 0.000000 0.000000
vn -1.000000 0.000000 0.000000
vn 0.000000 -1.000000 0.000000
vn 0.000000 -1.000000 0.000000
vn 0.000000 -1.000000 0.000000
vn 0.000000 -1.000000 0.000000
vn 1.000000 0.000000 0.000000
vn 1.000000 0.000000 0.000000
vn 1.000000 0.000000 0.000000
vn 1.000000 0.000000 0.000000
vn 0.000000 1.000000 0.000000
vn 0.000000 1.000000 0.000000
vn 0.000000 1.000000 0.000000
vn 0.000000 1.000000 0.000000
vn 0.000000 1.000000 0.000000
vn 0.000000 1.000000 0.000000
vn 0.000000 1.000000 0.000000
vn 0.000000 1.000000 0.000000
vn 0.000000 0.000000 -1.000000
vn 0.000000 0.000000 -1.000000
vn 0.000000 0.000000 -1.000000
vn 0.000000 0.000000 -1.000000
vn 0.000000 -1.000000 0.000000
vn 0.000000 -1.000000 0.000000
vn 0.000000 -1.000000 0.000000
vn 0.000000 -1.000000 0.000000
vn 0.000000 -1.000000 0.000000
vn 0.000000 -1.000000 0.000000
vn 0.000000 -1.000000 0.000000
vn 0.000000 -1.000000 0.000000
vn 0.000000 0.000000 1.000000
vn 0.000000 0.000000 1.000000
vn 0.000000 0.000000 1.000000
vn 0.000000 0.000000 1.000000
vn 0.000000 1.000000 0.000000
vn 0.000000 1.000000 0.000000
vn 0.000000 1.000000 0.000000
vn 0.000000 1.000000 0.000000
vn -1.000000 0.000000 0.000000
vn -1.000000 0.000000 0.000000
vn -1.000000 0.000000 0.000000
vn -1.000000 0.000000 0.000000
vn 0.000000 0.000000 1.000000
vn 0.000000 0.000000 1.000000
vn 0.000000 0.000000 1.000000
vn 0.000000 0.000000 1.000000
vn 1.000000 0.000000 0.000000
vn 1.000000 0.000000 0.000000
vn 1.000000 0.000000 0.000000
vn 1.000000 0.000000 0.000000
vn 0.000000 0.000000 -1.000000
vn 0.000000 0.000000 -1.000000
vn 0.000000 0.000000 -1.000000
vn 0.000000 0.000000 -1.000000
vn -1.000000 0.000000 0.000000
vn -1.000000 0.000000 0.000000
vn -1.000000 0.000000 0.000000
vn -1.000000 0.000000 0.000000
vn 0.000000 0.000000 1.000000
vn 0.000000 0.000000 1.000000
vn 0.000000 0.000000 1.000000
vn 0.000000 0.000000 1.000000
vn 1.000000 0.000000 0.000000
vn 1.000000 0.000000 0.000000
vn 1.000000 0.000000 0.000000
vn 1.000000 0.000000 0.000000
vn 0.000000 0.000000 -1.000000
vn 0.000000 0.000000 -1.000000
vn 0.000000 0.000000 -1.000000
vn 0.000000 0.000000 -1.000000
vn -1.000000 0.000000 0.000000
vn -1.000000 0.000000 0.000000
vn -1.000000 0.000000 0.000000
vn -1.000000 0.000000 0.000000
vn 0.000000 0.000000 1.000000
vn 0.000000 0.000000 1.000000
vn 0.000000 0.000000 1.000000
vn 0.000000 0.000000 1.000000
vn 1.000000 0.000000 0.000000
vn 1.000000 0.000000 0.000000
vn 1.000000 0.000000 0.000000
vn 1.000000 0.000000 0.000000
vn 0.000000 0.000000 -1.000000
vn 0.000000 0.000000 -1.000000
vn 0.000000 0.000000 -1.000000
vn 0.000000 0.000000 -1.000000
vn 0.000000 -1.000000 0.000000
vn 0.000000 -1.000000 0.000000
vn 0.000000 -1.000000 0.000000
vn 0.000000 -1.000000 0.000000
vn 1.000000 0.000000 0.000000
vn 1.000000 0.000000 0.000000
vn 1.000000 0.000000 0.000000
vn 1.000000 0.000000 0.000000
vn 0.000000 1.000000 0.000000
vn 0.000000 1.000000 0.000000
vn 0.000000 1.000000 0.000000
vn 0.000000 1.000000 0.000000
vn -1.000000 0.000000 0.000000
vn -1.000000 0.000000 0.000000
vn -1.000000 0.000000 0.000000
vn -1.000000 0.000000 0.000000
vn 0.000000 -1.000000 0.000000
vn 0.000000 -1.000000 0.000000
vn 0.000000 -1.000000 0.000000
vn 0.000000 -1.000000 0.000000
vn -1.000000 0.000000 0.000000
vn -1.000000 0.000000 0.000000
vn -1.000000 0.000000 0.000000
vn -1.000000 0.000000 0.000000
vn 0.000000 1.000000 0.000000
vn 0.000000 1.000000 0.000000
vn 0.000000 1.000000 0.000000
vn 0.000000 1.000000 0.000000
vn 1.000000 0.000000 0.000000
vn 1.000000 0.000000 0.000000
vn 1.000000 0.000000 0.000000
vn 1.000000 0.000000 0.000000
f 1/1/1 32/47/2 25/40/3 3/3/4
f 3/3/5 25/40/6 26/41/7 14/26/8
f 5/5/9 28/43/10 29/44/11 7/7/12
f 15/28/13 31/46/14 32/48/15 1/9/16
f 2/2/17 16/30/18 13/24/19 4/4/20
f 15/27/21 1/1/22 3/3/23 14/25/24
f 10/18/25 27/42/26 28/43/27 5/5/28
f 7/13/29 11/19/30 10/17/31 5/14/32
f 7/7/33 29/44/34 30/45/35 11/20/36
f 9/16/37 12/22/38 8/11/39 6/12/40
f 14/26/8 26/41/7 27/42/26 10/18/25
f 11/19/30 15/27/21 14/25/24 10/17/31
f 11/20/36 30/45/35 31/46/14 15/28/13
f 13/24/19 16/30/18 12/22/38 9/16/37
f 17/31/41 4/4/42 13/23/43 18/32/44
f 19/33/45 18/32/44 13/23/43 9/15/46
f 20/34/47 19/33/45 9/15/46 6/6/48
f 21/35/49 20/34/50 6/6/51 8/8/52
f 22/36/53 21/35/54 8/8/55 12/21/56
f 23/37/57 22/36/53 12/21/56 16/29/58
f 24/39/59 23/37/57 16/29/58 2/10/60
f 17/31/61 24/38/62 2/2/63 4/4/64
f 25/40/6 17/31/41 18/32/44 26/41/7
f 42/57/65 41/58/66 43/59/67 44/60/68
f 28/43/27 27/42/26 19/33/45 20/34/47
f 29/44/11 28/43/10 20/34/50 21/35/49
f 30/45/35 29/44/34 21/35/54 22/36/53
f 31/46/14 30/45/35 22/36/53 23/37/57
f 32/48/15 31/46/14 23/37/57 24/39/59
f 25/40/3 32/47/2 24/38/62 17/31/61
f 27/42/69 26/41/70 33/50/71 34/49/72
f 26/41/73 18/32/74 35/51/75 33/50/76
f 18/32/77 19/33/78 36/52/79 35/51/80
f 19/33/81 27/42/82 34/49/83 36/52/84
f 34/49/85 33/50/86 37/54/87 38/53/88
f 46/61/89 45/62/90 47/63/91 48/64/92
f 35/51/93 36/52/94 40/56/95 39/55/96
f 49/65/97 50/66/98 51/67/99 52/68/100
f 38/53/101 37/54/102 41/58/103 42/57/104
f 37/54/105 39/55/106 43/59/107 41/58/108
f 39/55/109 40/56/110 44/60/111 43/59/112
f 40/56/113 38/53/114 42/57/115 44/60/116
f 33/50/117 35/51/118 45/62/119 46/61/120
f 35/51/121 39/55/122 47/63/123 45/62/124
f 39/55/125 37/54/126 48/64/127 47/63/128
f 37/54/129 33/50/130 46/61/131 48/64/132
f 36/52/133 34/49/134 50/66/135 49/65/136
f 34/49/137 38/53/138 51/67/139 50/66/140
f 38/53/141 40/56/142 52/68/143 51/67/144
f 40/56/145 36/52/146 49/65/147 52/68/148
