# This file uses centimeters as units for non-parametric coordinates.

v 1.552017 -0.033826 -0.160770
v 1.839949 -0.033826 0.109076
v 2.051807 0.385946 -0.694058
v 2.339739 0.385946 -0.424213
v 1.937324 0.524940 -0.571902
v 1.714652 0.435162 -0.334305
v 1.578034 0.182714 -0.188530
v 1.865965 0.182714 0.081315
v 2.002583 0.435162 -0.064460
v 2.225256 0.524940 -0.302057
v 1.827953 0.531879 -0.455200
v 2.115884 0.531879 -0.185355
v 1.636612 0.311474 -0.251035
v 1.924544 0.311474 0.018810
v 2.283133 0.461156 -0.363813
v 1.995201 0.461156 -0.633659
v 1.536839 -0.010925 0.055190
v 1.911215 -0.009465 -0.069555
v 1.276506 0.177888 -0.723894
v 1.650882 0.179348 -0.848639
v 1.313708 0.359600 -0.610119
v 1.420419 0.368508 -0.289761
v 1.504716 0.185159 -0.038919
v 1.879092 0.186619 -0.163665
v 1.794795 0.369968 -0.414506
v 1.688084 0.361060 -0.734864
v 1.361254 0.412801 -0.466805
v 1.735630 0.414261 -0.591550
v 1.466615 0.283403 -0.152118
v 1.840991 0.284863 -0.276863
v 1.668658 0.275399 -0.794167
v 1.294282 0.273939 -0.669422
v 1.764573 -0.029375 0.166892
v 1.593102 -0.029375 -0.188521
v 1.106298 0.390398 0.484480
v 0.934827 0.390398 0.129067
v 1.257084 0.529392 0.411733
v 1.550367 0.439614 0.270237
v 1.730306 0.187166 0.183424
v 1.558835 0.187166 -0.171989
v 1.378896 0.439614 -0.085176
v 1.085613 0.529392 0.056320
v 1.401138 0.536331 0.342233
v 1.229667 0.536331 -0.013180
v 1.653153 0.315926 0.220647
v 1.481682 0.315926 -0.134766
v 1.009383 0.465608 0.093097
v 1.180854 0.465608 0.448510
v 1.750657 -0.026237 -0.100497
v 1.528042 0.005065 0.223823
v 2.422447 0.236899 0.335227
v 2.199831 0.268201 0.659546
v 2.317951 0.406228 0.247157
v 2.039071 0.383943 0.057882
v 1.826516 0.177559 -0.068097
v 1.603901 0.208862 0.256223
v 1.816455 0.415246 0.382202
v 2.095336 0.437530 0.571477
v 2.191690 0.445115 0.156737
v 1.969075 0.476417 0.481057
v 1.921963 0.286084 -0.013056
v 1.699348 0.317387 0.311264
v 2.149526 0.358257 0.616324
v 2.372141 0.326955 0.292004
v 1.743404 -0.038686 -0.167856
v 1.662988 -0.036786 0.218474
v 2.422043 0.441473 -0.028955
v 2.341627 0.443372 0.357374
v 2.247325 0.565787 -0.065935
v 1.937002 0.448754 -0.129955
v 1.762778 0.180297 -0.164900
v 1.682362 0.182196 0.221430
v 1.856586 0.450654 0.256375
v 2.166909 0.567687 0.320395
v 2.090720 0.559156 -0.098500
v 2.010303 0.561055 0.287829
v 1.835800 0.315847 -0.150367
v 1.755384 0.317747 0.235963
v 2.254707 0.511301 0.338947
v 2.335123 0.509401 -0.047382
v 1.504253 0.048937 -0.016262
v 1.897318 0.048937 0.018674
v 1.568959 0.468710 -0.744273
v 1.962024 0.468710 -0.709337
v 1.554137 0.607704 -0.577513
v 1.525308 0.517925 -0.253161
v 1.507621 0.265478 -0.054158
v 1.900686 0.265478 -0.019223
v 1.918374 0.517925 -0.218225
v 1.947202 0.607704 -0.542578
v 1.539977 0.614643 -0.418199
v 1.933042 0.614643 -0.383263
v 1.515205 0.394238 -0.139486
v 1.908270 0.394238 -0.104550
v 1.954695 0.543920 -0.626883
v 1.561630 0.543920 -0.661819
v 1.633845 -0.010143 0.184657
v 1.775909 -0.011025 -0.183498
v 0.885448 0.247811 -0.104753
v 1.027512 0.246929 -0.472907
v 1.011267 0.418691 -0.056611
v 1.325840 0.398865 0.064824
v 1.557124 0.193684 0.154564
v 1.699188 0.192802 -0.213591
v 1.467904 0.397983 -0.303331
v 1.153331 0.417809 -0.424766
v 1.155879 0.458864 -0.000904
v 1.297943 0.457982 -0.369059
v 1.453976 0.301725 0.114502
v 1.596040 0.300843 -0.253653
v 1.088465 0.337762 -0.449604
v 0.946401 0.338644 -0.081450
v 1.877622 0.028006 0.086980
v 1.526301 0.028006 -0.092726
v 1.544783 0.447778 0.737675
v 1.193461 0.447778 0.557970
v 1.621024 0.586772 0.588626
v 1.769314 0.496994 0.298720
v 1.860296 0.244546 0.120852
v 1.508975 0.244546 -0.058854
v 1.417993 0.496994 0.119014
v 1.269702 0.586772 0.408920
v 1.693861 0.593711 0.446230
v 1.342539 0.593711 0.266525
v 1.821285 0.373306 0.197117
v 1.469964 0.373306 0.017411
v 1.231158 0.522988 0.484272
v 1.582480 0.522988 0.663978
v 1.591856 -0.023877 -0.164096
v 1.802738 0.003302 0.168336
v 2.273874 0.183709 -0.613714
v 2.484756 0.210888 -0.281282
v 2.162616 0.362132 -0.557724
v 1.877350 0.363095 -0.376841
v 1.664588 0.174021 -0.226414
v 1.875470 0.201200 0.106017
v 2.088232 0.390273 -0.044409
v 2.373497 0.389311 -0.225292
v 2.032259 0.411649 -0.479079
v 2.243141 0.438828 -0.146647
v 1.759738 0.274807 -0.295014
v 1.970620 0.301986 0.037418
v 2.430984 0.305340 -0.254894
v 2.220102 0.278161 -0.587326
vt 0.024979 0.870470
vt 0.997535 0.870470
vt 0.997535 0.970021
vt 0.024978 0.970021
vt 0.024979 0.079464
vt 0.997536 0.079464
vt 0.997536 0.257810
vt 0.024979 0.257810
vt 0.024979 0.369508
vt 0.997536 0.369508
vt 0.997536 0.487318
vt 0.024979 0.487317
vt 0.024979 0.633639
vt 0.997535 0.633639
vt 0.997535 0.776137
vt 0.024979 0.776137
vt 0.024979 0.870470
vt 0.997535 0.870470
vt 0.997535 0.970021
vt 0.024978 0.970021
vt 0.024979 0.079464
vt 0.997536 0.079464
vt 0.997536 0.257810
vt 0.024979 0.257810
vt 0.024979 0.369508
vt 0.997536 0.369508
vt 0.997536 0.487318
vt 0.024979 0.487317
vt 0.024979 0.633639
vt 0.997535 0.633639
vt 0.997535 0.776137
vt 0.024979 0.776137
vt 0.024979 0.870470
vt 0.997535 0.870470
vt 0.997535 0.970021
vt 0.024978 0.970021
vt 0.024979 0.079464
vt 0.997536 0.079464
vt 0.997536 0.257810
vt 0.024979 0.257810
vt 0.024979 0.369508
vt 0.997536 0.369508
vt 0.997536 0.487318
vt 0.024979 0.487317
vt 0.024979 0.633639
vt 0.997535 0.633639
vt 0.997535 0.776137
vt 0.024979 0.776137
vt 0.024979 0.870470
vt 0.997535 0.870470
vt 0.997535 0.970021
vt 0.024978 0.970021
vt 0.024979 0.079464
vt 0.997536 0.079464
vt 0.997536 0.257810
vt 0.024979 0.257810
vt 0.024979 0.369508
vt 0.997536 0.369508
vt 0.997536 0.487318
vt 0.024979 0.487317
vt 0.024979 0.633639
vt 0.997535 0.633639
vt 0.997535 0.776137
vt 0.024979 0.776137
vt 0.024979 0.870470
vt 0.997535 0.870470
vt 0.997535 0.970021
vt 0.024978 0.970021
vt 0.024979 0.079464
vt 0.997536 0.079464
vt 0.997536 0.257810
vt 0.024979 0.257810
vt 0.024979 0.369508
vt 0.997536 0.369508
vt 0.997536 0.487318
vt 0.024979 0.487317
vt 0.024979 0.633639
vt 0.997535 0.633639
vt 0.997535 0.776137
vt 0.024979 0.776137
vt 0.024979 0.870470
vt 0.997535 0.870470
vt 0.997535 0.970021
vt 0.024978 0.970021
vt 0.024979 0.079464
vt 0.997536 0.079464
vt 0.997536 0.257810
vt 0.024979 0.257810
vt 0.024979 0.369508
vt 0.997536 0.369508
vt 0.997536 0.487318
vt 0.024979 0.487317
vt 0.024979 0.633639
vt 0.997535 0.633639
vt 0.997535 0.776137
vt 0.024979 0.776137
vt 0.024979 0.870470
vt 0.997535 0.870470
vt 0.997535 0.970021
vt 0.024978 0.970021
vt 0.024979 0.079464
vt 0.997536 0.079464
vt 0.997536 0.257810
vt 0.024979 0.257810
vt 0.024979 0.369508
vt 0.997536 0.369508
vt 0.997536 0.487318
vt 0.024979 0.487317
vt 0.024979 0.633639
vt 0.997535 0.633639
vt 0.997535 0.776137
vt 0.024979 0.776137
vt 0.024979 0.870470
vt 0.997535 0.870470
vt 0.997535 0.970021
vt 0.024978 0.970021
vt 0.024979 0.079464
vt 0.997536 0.079464
vt 0.997536 0.257810
vt 0.024979 0.257810
vt 0.024979 0.369508
vt 0.997536 0.369508
vt 0.997536 0.487318
vt 0.024979 0.487317
vt 0.024979 0.633639
vt 0.997535 0.633639
vt 0.997535 0.776137
vt 0.024979 0.776137
vt 0.024979 0.870470
vt 0.997535 0.870470
vt 0.997535 0.970021
vt 0.024978 0.970021
vt 0.024979 0.079464
vt 0.997536 0.079464
vt 0.997536 0.257810
vt 0.024979 0.257810
vt 0.024979 0.369508
vt 0.997536 0.369508
vt 0.997536 0.487318
vt 0.024979 0.487317
vt 0.024979 0.633639
vt 0.997535 0.633639
vt 0.997535 0.776137
vt 0.024979 0.776137
vn 0.459811 0.740118 -0.490712
vn 0.459811 0.740118 -0.490712
vn 0.459811 0.740118 -0.490712
vn 0.459811 0.740118 -0.490712
vn -0.673528 0.173007 0.718630
vn -0.673528 0.173007 0.718630
vn -0.673528 0.173007 0.718630
vn -0.673528 0.173007 0.718630
vn -0.502589 0.678085 0.536288
vn -0.502589 0.678085 0.536288
vn -0.502589 0.678085 0.536288
vn -0.502589 0.678085 0.536288
vn 0.029599 0.999062 -0.031599
vn 0.029599 0.999062 -0.031599
vn 0.029599 0.999062 -0.031599
vn 0.029599 0.999062 -0.031599
vn -0.344717 0.863643 0.367818
vn -0.344717 0.863643 0.367818
vn -0.344717 0.863643 0.367818
vn -0.344717 0.863643 0.367818
vn -0.569310 0.553910 0.607511
vn -0.569310 0.553910 0.607511
vn -0.569310 0.553910 0.607511
vn -0.569310 0.553910 0.607511
vn 0.411603 0.798606 -0.439103
vn 0.411603 0.798606 -0.439103
vn 0.411603 0.798606 -0.439103
vn 0.411603 0.798606 -0.439103
vn -0.273291 0.512283 -0.814173
vn -0.273291 0.512283 -0.814173
vn -0.273291 0.512283 -0.814173
vn -0.273291 0.512283 -0.814173
vn 0.280386 0.452277 0.846658
vn 0.280386 0.452277 0.846658
vn 0.280386 0.452277 0.846658
vn 0.280386 0.452277 0.846658
vn 0.156800 0.862697 0.480799
vn 0.156800 0.862697 0.480799
vn 0.156800 0.862697 0.480799
vn 0.156800 0.862697 0.480799
vn -0.108395 0.943154 -0.314185
vn -0.108395 0.943154 -0.314185
vn -0.108395 0.943154 -0.314185
vn -0.108395 0.943154 -0.314185
vn 0.069598 0.972970 0.220193
vn 0.069598 0.972970 0.220193
vn 0.069598 0.972970 0.220193
vn 0.069598 0.972970 0.220193
vn 0.198098 0.772291 0.603593
vn 0.198098 0.772291 0.603593
vn 0.198098 0.772291 0.603593
vn 0.198098 0.772291 0.603593
vn -0.257606 0.588814 -0.766118
vn -0.257606 0.588814 -0.766118
vn -0.257606 0.588814 -0.766118
vn -0.257606 0.588814 -0.766118
vn -0.605700 0.740100 0.292200
vn -0.605700 0.740100 0.292200
vn -0.605700 0.740100 0.292200
vn -0.605700 0.740100 0.292200
vn 0.887074 0.172995 -0.427987
vn 0.887074 0.172995 -0.427987
vn 0.887074 0.172995 -0.427987
vn 0.887074 0.172995 -0.427987
vn 0.661917 0.678118 -0.319408
vn 0.661917 0.678118 -0.319408
vn 0.661917 0.678118 -0.319408
vn 0.661917 0.678118 -0.319408
vn -0.038999 0.999062 0.018799
vn -0.038999 0.999062 0.018799
vn -0.038999 0.999062 0.018799
vn -0.038999 0.999062 0.018799
vn 0.454017 0.863632 -0.219108
vn 0.454017 0.863632 -0.219108
vn 0.454017 0.863632 -0.219108
vn 0.454017 0.863632 -0.219108
vn 0.749880 0.553885 -0.361790
vn 0.749880 0.553885 -0.361790
vn 0.749880 0.553885 -0.361790
vn 0.749880 0.553885 -0.361790
vn -0.542096 0.798593 0.261498
vn -0.542096 0.798593 0.261498
vn -0.542096 0.798593 0.261498
vn -0.542096 0.798593 0.261498
vn 0.692388 0.587690 0.418593
vn 0.692388 0.587690 0.418593
vn 0.692388 0.587690 0.418593
vn 0.692388 0.587690 0.418593
vn -0.750119 0.366709 -0.550314
vn -0.750119 0.366709 -0.550314
vn -0.750119 0.366709 -0.550314
vn -0.750119 0.366709 -0.550314
vn -0.444492 0.809685 -0.383193
vn -0.444492 0.809685 -0.383193
vn -0.444492 0.809685 -0.383193
vn -0.444492 0.809685 -0.383193
vn 0.244402 0.966808 0.074501
vn 0.244402 0.966808 0.074501
vn 0.244402 0.966808 0.074501
vn 0.244402 0.966808 0.074501
vn -0.221194 0.944472 -0.242993
vn -0.221194 0.944472 -0.242993
vn -0.221194 0.944472 -0.242993
vn -0.221194 0.944472 -0.242993
vn -0.548510 0.708013 -0.444808
vn -0.548510 0.708013 -0.444808
vn -0.548510 0.708013 -0.444808
vn -0.548510 0.708013 -0.444808
vn 0.648287 0.658987 0.381392
vn 0.648287 0.658987 0.381392
vn 0.648287 0.658987 0.381392
vn 0.648287 0.658987 0.381392
vn 0.595408 0.794411 0.120002
vn 0.595408 0.794411 0.120002
vn 0.595408 0.794411 0.120002
vn 0.595408 0.794411 0.120002
vn -0.975040 0.089004 -0.203408
vn -0.975040 0.089004 -0.203408
vn -0.975040 0.089004 -0.203408
vn -0.975040 0.089004 -0.203408
vn -0.772600 0.613400 -0.163800
vn -0.772600 0.613400 -0.163800
vn -0.772600 0.613400 -0.163800
vn -0.772600 0.613400 -0.163800
vn -0.039601 0.999128 -0.013200
vn -0.039601 0.999128 -0.013200
vn -0.039601 0.999128 -0.013200
vn -0.039601 0.999128 -0.013200
vn -0.562605 0.817808 -0.121101
vn -0.562605 0.817808 -0.121101
vn -0.562605 0.817808 -0.121101
vn -0.562605 0.817808 -0.121101
vn -0.857622 0.481412 -0.180905
vn -0.857622 0.481412 -0.180905
vn -0.857622 0.481412 -0.180905
vn -0.857622 0.481412 -0.180905
vn 0.521708 0.846712 0.104402
vn 0.521708 0.846712 0.104402
vn 0.521708 0.846712 0.104402
vn 0.521708 0.846712 0.104402
vn 0.059502 0.740130 -0.669827
vn 0.059502 0.740130 -0.669827
vn 0.059502 0.740130 -0.669827
vn 0.059502 0.740130 -0.669827
vn -0.087205 0.173009 0.981052
vn -0.087205 0.173009 0.981052
vn -0.087205 0.173009 0.981052
vn -0.087205 0.173009 0.981052
vn -0.065099 0.678091 0.732090
vn -0.065099 0.678091 0.732090
vn -0.065099 0.678091 0.732090
vn -0.065099 0.678091 0.732090
vn 0.003800 0.999059 -0.043198
vn 0.003800 0.999059 -0.043198
vn 0.003800 0.999059 -0.043198
vn 0.003800 0.999059 -0.043198
vn -0.044602 0.863644 0.502125
vn -0.044602 0.863644 0.502125
vn -0.044602 0.863644 0.502125
vn -0.044602 0.863644 0.502125
vn -0.073701 0.553907 0.829310
vn -0.073701 0.553907 0.829310
vn -0.073701 0.553907 0.829310
vn -0.073701 0.553907 0.829310
vn 0.053300 0.798599 -0.599499
vn 0.053300 0.798599 -0.599499
vn 0.053300 0.798599 -0.599499
vn 0.053300 0.798599 -0.599499
vn -0.757191 0.583493 -0.293596
vn -0.757191 0.583493 -0.293596
vn -0.757191 0.583493 -0.293596
vn -0.757191 0.583493 -0.293596
vn 0.865228 0.374812 0.333011
vn 0.865228 0.374812 0.333011
vn 0.865228 0.374812 0.333011
vn 0.865228 0.374812 0.333011
vn 0.539187 0.816580 0.206095
vn 0.539187 0.816580 0.206095
vn 0.539187 0.816580 0.206095
vn 0.539187 0.816580 0.206095
vn -0.233301 0.968005 -0.092400
vn -0.233301 0.968005 -0.092400
vn -0.233301 0.968005 -0.092400
vn -0.233301 0.968005 -0.092400
vn 0.292513 0.949843 0.110605
vn 0.292513 0.949843 0.110605
vn 0.292513 0.949843 0.110605
vn 0.292513 0.949843 0.110605
vn 0.652321 0.715523 0.250008
vn 0.652321 0.715523 0.250008
vn 0.652321 0.715523 0.250008
vn 0.652321 0.715523 0.250008
vn -0.704100 0.655400 -0.273300
vn -0.704100 0.655400 -0.273300
vn -0.704100 0.655400 -0.273300
vn -0.704100 0.655400 -0.273300
vn -0.306208 0.740119 0.598716
vn -0.306208 0.740119 0.598716
vn -0.306208 0.740119 0.598716
vn -0.306208 0.740119 0.598716
vn 0.448492 0.172997 -0.876885
vn 0.448492 0.172997 -0.876885
vn 0.448492 0.172997 -0.876885
vn 0.448492 0.172997 -0.876885
vn 0.334708 0.678116 -0.654316
vn 0.334708 0.678116 -0.654316
vn 0.334708 0.678116 -0.654316
vn 0.334708 0.678116 -0.654316
vn -0.019699 0.999061 0.038598
vn -0.019699 0.999061 0.038598
vn -0.019699 0.999061 0.038598
vn -0.019699 0.999061 0.038598
vn 0.229607 0.863625 -0.448813
vn 0.229607 0.863625 -0.448813
vn 0.229607 0.863625 -0.448813
vn 0.229607 0.863625 -0.448813
vn 0.379205 0.553907 -0.741209
vn 0.379205 0.553907 -0.741209
vn 0.379205 0.553907 -0.741209
vn 0.379205 0.553907 -0.741209
vn -0.274103 0.798610 0.535807
vn -0.274103 0.798610 0.535807
vn -0.274103 0.798610 0.535807
vn -0.274103 0.798610 0.535807
vn 0.695195 0.531096 -0.484397
vn 0.695195 0.531096 -0.484397
vn 0.695195 0.531096 -0.484397
vn 0.695195 0.531096 -0.484397
vn -0.777803 0.430202 0.458202
vn -0.777803 0.430202 0.458202
vn -0.777803 0.430202 0.458202
vn -0.777803 0.430202 0.458202
vn -0.475390 0.848581 0.232195
vn -0.475390 0.848581 0.232195
vn -0.475390 0.848581 0.232195
vn -0.475390 0.848581 0.232195
vn 0.226693 0.948470 -0.221393
vn 0.226693 0.948470 -0.221393
vn 0.226693 0.948470 -0.221393
vn 0.226693 0.948470 -0.221393
vn -0.249899 0.964995 0.079600
vn -0.249899 0.964995 0.079600
vn -0.249899 0.964995 0.079600
vn -0.249899 0.964995 0.079600
vn -0.579603 0.755304 0.305902
vn -0.579603 0.755304 0.305902
vn -0.579603 0.755304 0.305902
vn -0.579603 0.755304 0.305902
vn 0.648207 0.606207 -0.460805
vn 0.648207 0.606207 -0.460805
vn 0.648207 0.606207 -0.460805
vn 0.648207 0.606207 -0.460805
f 16/1/1 15/2/2 4/3/3 3/4/4
f 1/5/5 2/6/6 8/7/7 7/8/8
f 13/9/9 14/10/10 9/11/11 6/12/12
f 11/13/13 12/14/14 10/15/15 5/16/16
f 6/12/17 9/11/18 12/14/19 11/13/20
f 7/8/21 8/7/22 14/10/23 13/9/24
f 5/16/25 10/15/26 15/2/27 16/1/28
f 32/17/29 31/18/30 20/19/31 19/20/32
f 17/21/33 18/22/34 24/23/35 23/24/36
f 29/25/37 30/26/38 25/27/39 22/28/40
f 27/29/41 28/30/42 26/31/43 21/32/44
f 22/28/45 25/27/46 28/30/47 27/29/48
f 23/24/49 24/23/50 30/26/51 29/25/52
f 21/32/53 26/31/54 31/18/55 32/17/56
f 48/33/57 47/34/58 36/35/59 35/36/60
f 33/37/61 34/38/62 40/39/63 39/40/64
f 45/41/65 46/42/66 41/43/67 38/44/68
f 43/45/69 44/46/70 42/47/71 37/48/72
f 38/44/73 41/43/74 44/46/75 43/45/76
f 39/40/77 40/39/78 46/42/79 45/41/80
f 37/48/81 42/47/82 47/34/83 48/33/84
f 64/49/85 63/50/86 52/51/87 51/52/88
f 49/53/89 50/54/90 56/55/91 55/56/92
f 61/57/93 62/58/94 57/59/95 54/60/96
f 59/61/97 60/62/98 58/63/99 53/64/100
f 54/60/101 57/59/102 60/62/103 59/61/104
f 55/56/105 56/55/106 62/58/107 61/57/108
f 53/64/109 58/63/110 63/50/111 64/49/112
f 80/65/113 79/66/114 68/67/115 67/68/116
f 65/69/117 66/70/118 72/71/119 71/72/120
f 77/73/121 78/74/122 73/75/123 70/76/124
f 75/77/125 76/78/126 74/79/127 69/80/128
f 70/76/129 73/75/130 76/78/131 75/77/132
f 71/72/133 72/71/134 78/74/135 77/73/136
f 69/80/137 74/79/138 79/66/139 80/65/140
f 96/81/141 95/82/142 84/83/143 83/84/144
f 81/85/145 82/86/146 88/87/147 87/88/148
f 93/89/149 94/90/150 89/91/151 86/92/152
f 91/93/153 92/94/154 90/95/155 85/96/156
f 86/92/157 89/91/158 92/94/159 91/93/160
f 87/88/161 88/87/162 94/90/163 93/89/164
f 85/96/165 90/95/166 95/82/167 96/81/168
f 112/97/169 111/98/170 100/99/171 99/100/172
f 97/101/173 98/102/174 104/103/175 103/104/176
f 109/105/177 110/106/178 105/107/179 102/108/180
f 107/109/181 108/110/182 106/111/183 101/112/184
f 102/108/185 105/107/186 108/110/187 107/109/188
f 103/104/189 104/103/190 110/106/191 109/105/192
f 101/112/193 106/111/194 111/98/195 112/97/196
f 128/113/197 127/114/198 116/115/199 115/116/200
f 113/117/201 114/118/202 120/119/203 119/120/204
f 125/121/205 126/122/206 121/123/207 118/124/208
f 123/125/209 124/126/210 122/127/211 117/128/212
f 118/124/213 121/123/214 124/126/215 123/125/216
f 119/120/217 120/119/218 126/122/219 125/121/220
f 117/128/221 122/127/222 127/114/223 128/113/224
f 144/129/225 143/130/226 132/131/227 131/132/228
f 129/133/229 130/134/230 136/135/231 135/136/232
f 141/137/233 142/138/234 137/139/235 134/140/236
f 139/141/237 140/142/238 138/143/239 133/144/240
f 134/140/241 137/139/242 140/142/243 139/141/244
f 135/136/245 136/135/246 142/138/247 141/137/248
f 133/144/249 138/143/250 143/130/251 144/129/252
