# This file uses centimeters as units for non-parametric coordinates.

v 30.227921 2.439758 -12.212871
v 12.738563 2.439758 -30.010174
v -12.212874 2.439758 -30.227920
v -30.010172 2.439759 -12.738562
v -30.227921 2.439758 12.212871
v -12.738563 2.439758 30.010174
v 12.212874 2.439758 30.227924
v 30.010175 2.439758 12.738562
v 67.331287 2.439758 -27.203606
v 28.374557 2.439758 -66.846266
v -27.203606 2.439758 -67.331287
v -66.846266 2.439758 -28.374557
v -67.331287 2.439758 27.203606
v -28.374557 2.439758 66.846266
v 27.203612 2.439758 67.331294
v 66.846271 2.439758 28.374556
v 67.331287 13.746239 -27.203606
v 28.374557 13.746239 -66.846266
v -27.203606 13.746239 -67.331287
v -66.846266 13.746239 -28.374557
v -67.331287 13.746239 27.203606
v -28.374557 13.746239 66.846266
v 27.203612 13.746239 67.331294
v 66.846271 13.746239 28.374556
v 30.227921 13.746239 -12.212871
v 12.738563 13.746239 -30.010174
v -12.212874 13.746239 -30.227920
v -30.010172 13.746239 -12.738562
v -30.227921 13.746239 12.212871
v -12.738563 13.746239 30.010174
v 12.212874 13.746239 30.227924
v 30.010175 13.746239 12.738562
vt 0.555243 0.100044
vt 0.500000 0.077164
vt 0.444757 0.100062
vt 0.421875 0.155421
vt 0.444757 0.210413
vt 0.500000 0.233411
vt 0.555243 0.210529
vt 0.578125 0.155286
vt 0.610485 0.045765
vt 0.500000 0.000000
vt 0.389515 0.045765
vt 0.343750 0.156250
vt 0.389515 0.266735
vt 0.500000 0.312500
vt 0.610485 0.266735
vt 0.656250 0.156250
vt 0.375000 0.312500
vt 0.406250 0.312500
vt 0.437500 0.312500
vt 0.468750 0.312500
vt 0.500000 0.312500
vt 0.531250 0.312500
vt 0.562500 0.312500
vt 0.593750 0.312500
vt 0.625000 0.312500
vt 0.375000 0.688440
vt 0.406250 0.688440
vt 0.437500 0.688440
vt 0.468750 0.688440
vt 0.500000 0.688440
vt 0.531250 0.688440
vt 0.562500 0.688440
vt 0.593750 0.688440
vt 0.625000 0.688440
vt 0.610485 0.733265
vt 0.500000 0.687500
vt 0.389515 0.733265
vt 0.343750 0.843750
vt 0.389515 0.954235
vt 0.500000 1.000000
vt 0.610485 0.954235
vt 0.656250 0.843750
vt 0.555243 0.788507
vt 0.500000 0.765625
vt 0.444757 0.788507
vt 0.421875 0.843750
vt 0.444757 0.898993
vt 0.500000 0.921875
vt 0.555243 0.898993
vt 0.578125 0.843750
vt 0.000000 0.000000
vt 1.000000 0.000000
vt 0.999659 1.073154
vt 0.000257 1.073150
vt 0.000000 0.000000
vt 1.000000 0.000000
vt 0.999659 1.073154
vt 0.000257 1.073150
vt 0.000000 0.000000
vt 1.000000 0.000000
vt 0.999659 1.073153
vt 0.000257 1.073150
vt 0.000000 0.000000
vt 1.000000 0.000000
vt 0.999743 1.073150
vt 0.000341 1.073153
vt 0.000000 0.000000
vt 1.000000 0.000000
vt 0.999659 1.073154
vt 0.000257 1.073150
vt 0.000000 0.000000
vt 1.000000 0.000000
vt 0.999659 1.073154
vt 0.000257 1.073150
vt 0.000000 0.000000
vt 1.000000 0.000000
vt 0.999659 1.073154
vt 0.000257 1.073150
vt 0.000000 0.000000
vt 1.000000 0.000000
vt 0.999659 1.073154
vt 0.000257 1.073150
vn 0.000000 -1.000000 -0.000000
vn 0.000000 -1.000000 -0.000000
vn 0.000000 -1.000000 -0.000000
vn 0.000000 -1.000000 -0.000000
vn 0.000000 -1.000000 -0.000000
vn 0.000000 -1.000000 -0.000000
vn 0.000000 -1.000000 -0.000000
vn 0.000000 -1.000000 -0.000000
vn -0.000000 -1.000000 0.000000
vn -0.000000 -1.000000 0.000000
vn -0.000000 -1.000000 0.000000
vn -0.000000 -1.000000 0.000000
vn 0.000000 -1.000000 -0.000000
vn 0.000000 -1.000000 -0.000000
vn 0.000000 -1.000000 -0.000000
vn 0.000000 -1.000000 -0.000000
vn -0.000000 -1.000000 0.000000
vn -0.000000 -1.000000 0.000000
vn -0.000000 -1.000000 0.000000
vn -0.000000 -1.000000 0.000000
vn -0.000000 -1.000000 0.000000
vn -0.000000 -1.000000 0.000000
vn -0.000000 -1.000000 0.000000
vn -0.000000 -1.000000 0.000000
vn 0.000000 -1.000000 -0.000000
vn 0.000000 -1.000000 -0.000000
vn 0.000000 -1.000000 -0.000000
vn 0.000000 -1.000000 -0.000000
vn -0.000000 -1.000000 0.000000
vn -0.000000 -1.000000 0.000000
vn -0.000000 -1.000000 0.000000
vn -0.000000 -1.000000 0.000000
vn 0.713251 0.000000 -0.700909
vn 0.713251 0.000000 -0.700909
vn 0.713251 0.000000 -0.700909
vn 0.713251 0.000000 -0.700909
vn 0.008727 0.000000 -0.999962
vn 0.008727 0.000000 -0.999962
vn 0.008727 0.000000 -0.999962
vn 0.008727 0.000000 -0.999962
vn -0.700909 0.000000 -0.713251
vn -0.700909 0.000000 -0.713251
vn -0.700909 0.000000 -0.713251
vn -0.700909 0.000000 -0.713251
vn -0.999962 0.000000 -0.008727
vn -0.999962 0.000000 -0.008727
vn -0.999962 0.000000 -0.008727
vn -0.999962 0.000000 -0.008727
vn -0.713251 0.000000 0.700909
vn -0.713251 0.000000 0.700909
vn -0.713251 0.000000 0.700909
vn -0.713251 0.000000 0.700909
vn -0.008727 0.000000 0.999962
vn -0.008727 0.000000 0.999962
vn -0.008727 0.000000 0.999962
vn -0.008727 0.000000 0.999962
vn 0.700909 0.000000 0.713250
vn 0.700909 0.000000 0.713250
vn 0.700909 0.000000 0.713250
vn 0.700909 0.000000 0.713250
vn 0.999962 0.000000 0.008726
vn 0.999962 0.000000 0.008726
vn 0.999962 0.000000 0.008726
vn 0.999962 0.000000 0.008726
vn 0.000000 1.000000 0.000000
vn 0.000000 1.000000 0.000000
vn 0.000000 1.000000 0.000000
vn 0.000000 1.000000 0.000000
vn -0.000000 1.000000 0.000000
vn -0.000000 1.000000 0.000000
vn -0.000000 1.000000 0.000000
vn -0.000000 1.000000 0.000000
vn 0.000000 1.000000 -0.000000
vn 0.000000 1.000000 -0.000000
vn 0.000000 1.000000 -0.000000
vn 0.000000 1.000000 -0.000000
vn 0.000000 1.000000 0.000000
vn 0.000000 1.000000 0.000000
vn 0.000000 1.000000 0.000000
vn 0.000000 1.000000 0.000000
vn 0.000000 1.000000 0.000000
vn 0.000000 1.000000 0.000000
vn 0.000000 1.000000 0.000000
vn 0.000000 1.000000 0.000000
vn -0.000000 1.000000 0.000000
vn -0.000000 1.000000 0.000000
vn -0.000000 1.000000 0.000000
vn -0.000000 1.000000 0.000000
vn 0.000000 1.000000 0.000000
vn 0.000000 1.000000 0.000000
vn 0.000000 1.000000 0.000000
vn 0.000000 1.000000 0.000000
vn 0.000000 1.000000 0.000000
vn 0.000000 1.000000 0.000000
vn 0.000000 1.000000 0.000000
vn 0.000000 1.000000 0.000000
vn -0.713251 0.000000 0.700909
vn -0.713251 0.000000 0.700909
vn -0.713251 0.000000 0.700909
vn -0.713251 0.000000 0.700909
vn -0.008727 0.000000 0.999962
vn -0.008727 0.000000 0.999962
vn -0.008727 0.000000 0.999962
vn -0.008727 0.000000 0.999962
vn 0.700909 0.000000 0.713250
vn 0.700909 0.000000 0.713250
vn 0.700909 0.000000 0.713250
vn 0.700909 0.000000 0.713250
vn 0.999962 0.000000 0.008727
vn 0.999962 0.000000 0.008727
vn 0.999962 0.000000 0.008727
vn 0.999962 0.000000 0.008727
vn 0.713251 0.000000 -0.700909
vn 0.713251 0.000000 -0.700909
vn 0.713251 0.000000 -0.700909
vn 0.713251 0.000000 -0.700909
vn 0.008727 0.000000 -0.999962
vn 0.008727 0.000000 -0.999962
vn 0.008727 0.000000 -0.999962
vn 0.008727 0.000000 -0.999962
vn -0.700909 0.000000 -0.713250
vn -0.700909 0.000000 -0.713250
vn -0.700909 0.000000 -0.713250
vn -0.700909 0.000000 -0.713250
vn -0.999962 0.000000 -0.008727
vn -0.999962 0.000000 -0.008727
vn -0.999962 0.000000 -0.008727
vn -0.999962 0.000000 -0.008727
f 1/1/1 2/2/2 10/10/3 9/9/4
f 2/2/5 3/3/6 11/11/7 10/10/8
f 3/3/9 4/4/10 12/12/11 11/11/12
f 4/4/13 5/5/14 13/13/15 12/12/16
f 5/5/17 6/6/18 14/14/19 13/13/20
f 6/6/21 7/7/22 15/15/23 14/14/24
f 7/7/25 8/8/26 16/16/27 15/15/28
f 8/8/29 1/1/30 9/9/31 16/16/32
f 9/17/33 10/18/34 18/27/35 17/26/36
f 10/18/37 11/19/38 19/28/39 18/27/40
f 11/19/41 12/20/42 20/29/43 19/28/44
f 12/20/45 13/21/46 21/30/47 20/29/48
f 13/21/49 14/22/50 22/31/51 21/30/52
f 14/22/53 15/23/54 23/32/55 22/31/56
f 15/23/57 16/24/58 24/33/59 23/32/60
f 16/24/61 9/25/62 17/34/63 24/33/64
f 17/41/65 18/40/66 26/48/67 25/49/68
f 18/40/69 19/39/70 27/47/71 26/48/72
f 19/39/73 20/38/74 28/46/75 27/47/76
f 20/38/77 21/37/78 29/45/79 28/46/80
f 21/37/81 22/36/82 30/44/83 29/45/84
f 22/36/85 23/35/86 31/43/87 30/44/88
f 23/35/89 24/42/90 32/50/91 31/43/92
f 24/42/93 17/41/94 25/49/95 32/50/96
f 25/51/97 26/52/98 2/53/99 1/54/100
f 26/55/101 27/56/102 3/57/103 2/58/104
f 27/59/105 28/60/106 4/61/107 3/62/108
f 28/63/109 29/64/110 5/65/111 4/66/112
f 29/67/113 30/68/114 6/69/115 5/70/116
f 30/71/117 31/72/118 7/73/119 6/74/120
f 31/75/121 32/76/122 8/77/123 7/78/124
f 32/79/125 25/80/126 1/81/127 8/82/128
