# This file uses centimeters as units for non-parametric coordinates.

v -0.447166 0.183611 7.227582
v 0.447166 0.183611 7.227582
v -0.447166 8.466472 7.227582
v 0.447166 8.466472 7.227582
v -0.447166 8.466472 -7.227582
v 0.447166 8.466472 -7.227582
v -0.447166 0.183611 -7.227582
v 0.447166 0.183611 -7.227582
v 0.447166 7.727025 7.227582
v -0.447166 7.727025 7.227582
v -0.447166 7.727025 -7.227582
v 0.447166 7.727025 -7.227582
v 0.447166 0.925383 7.227582
v -0.447166 0.925383 7.227582
v -0.447166 0.925383 -7.227582
v 0.447166 0.925383 -7.227582
v 0.447166 7.727025 6.422749
v 0.447166 0.925383 6.422749
v 0.447166 0.183611 6.422749
v -0.447166 0.183611 6.422749
v -0.447166 0.925383 6.422749
v -0.447166 7.727025 6.422749
v -0.447166 8.466472 6.422749
v 0.447166 8.466472 6.422749
v -0.447166 7.727025 -6.415913
v -0.447166 0.925383 -6.415913
v -0.447166 0.183611 -6.415913
v 0.447166 0.183611 -6.415913
v 0.447166 0.925383 -6.415913
v 0.447166 7.727025 -6.415913
v 0.447166 8.466472 -6.415913
v -0.447166 8.466472 -6.415913
v -0.147874 0.925383 -6.415913
v -0.147874 0.925383 6.422749
v -0.147874 7.727025 -6.415913
v -0.147874 7.727025 6.422749
vt 0.369600 0.614332
vt 0.909286 0.614331
vt 0.909286 0.961382
vt 0.369600 0.961382
vt 0.219916 0.369968
vt 0.219916 0.225019
vt 0.234532 0.225019
vt 0.234532 0.369968
vt 0.219916 0.215856
vt 0.234532 0.215856
vt 0.219916 0.379055
vt 0.234532 0.379055
vt 0.368546 0.225019
vt 0.368546 0.215856
vt 0.368546 0.369968
vt 0.368546 0.379055
vt 0.383116 0.225019
vt 0.383116 0.215856
vt 0.383116 0.369968
vt 0.383116 0.379055
vt 0.062745 0.215855
vt 0.207694 0.215855
vt 0.207694 0.230470
vt 0.062745 0.230470
vt 0.216780 0.215855
vt 0.216780 0.230470
vt 0.207694 0.364485
vt 0.062745 0.364485
vt 0.053581 0.215855
vt 0.053581 0.230470
vt 0.216780 0.364485
vt 0.062745 0.379054
vt 0.207694 0.379054
vt 0.053581 0.364485
vt 0.216780 0.379054
vt 0.053581 0.379054
vt 0.206829 0.059702
vt 0.370029 0.059702
vt 0.370029 0.204651
vt 0.206829 0.204651
vt 0.206829 0.050615
vt 0.370029 0.050615
vt 0.370029 0.213815
vt 0.206829 0.213815
vt 0.386251 0.225019
vt 0.549451 0.225019
vt 0.549451 0.369968
vt 0.386251 0.369968
vt 0.386251 0.215855
vt 0.549451 0.215855
vt 0.549451 0.379055
vt 0.386251 0.379055
vt 0.148960 0.381094
vt 0.148960 0.526043
vt 0.040376 0.526043
vt 0.040376 0.381094
vt 0.261622 0.381095
vt 0.261622 0.526044
vt 0.153038 0.526044
vt 0.153038 0.381095
vt 0.040376 0.050615
vt 0.203575 0.050615
vt 0.203575 0.065231
vt 0.040376 0.065231
vt 0.203575 0.199245
vt 0.040376 0.199245
vt 0.203575 0.213815
vt 0.040376 0.213815
vt 0.373183 0.199200
vt 0.536383 0.199200
vt 0.536383 0.213815
vt 0.373183 0.213815
vt 0.373183 0.065185
vt 0.536383 0.065185
vt 0.373183 0.050616
vt 0.536383 0.050616
vt 0.374185 0.381095
vt 0.374185 0.515110
vt 0.265601 0.515110
vt 0.265601 0.381095
vt 0.486748 0.381095
vt 0.486748 0.515110
vt 0.378164 0.515110
vt 0.378164 0.381095
vn 0.000000 0.000000 1.000000
vn 0.000000 0.000000 1.000000
vn 0.000000 0.000000 1.000000
vn 0.000000 0.000000 1.000000
vn 0.000000 1.000000 0.000000
vn 0.000000 1.000000 0.000000
vn 0.000000 1.000000 0.000000
vn 0.000000 1.000000 0.000000
vn 0.000000 0.000000 -1.000000
vn 0.000000 0.000000 -1.000000
vn 0.000000 0.000000 -1.000000
vn 0.000000 0.000000 -1.000000
vn 0.000000 -1.000000 0.000000
vn 0.000000 -1.000000 0.000000
vn 0.000000 -1.000000 0.000000
vn 0.000000 -1.000000 0.000000
vn 1.000000 0.000000 0.000000
vn 1.000000 0.000000 0.000000
vn 1.000000 0.000000 0.000000
vn 1.000000 0.000000 0.000000
vn -1.000000 0.000000 0.000000
vn -1.000000 0.000000 0.000000
vn -1.000000 0.000000 0.000000
vn -1.000000 0.000000 0.000000
vn 0.000000 0.000000 1.000000
vn 0.000000 0.000000 1.000000
vn 0.000000 0.000000 1.000000
vn 0.000000 0.000000 1.000000
vn -1.000000 0.000000 0.000000
vn -1.000000 0.000000 0.000000
vn -1.000000 0.000000 0.000000
vn -1.000000 0.000000 0.000000
vn 0.000000 0.000000 -1.000000
vn 0.000000 0.000000 -1.000000
vn 0.000000 0.000000 -1.000000
vn 0.000000 0.000000 -1.000000
vn 1.000000 0.000000 0.000000
vn 1.000000 0.000000 0.000000
vn 1.000000 0.000000 0.000000
vn 1.000000 0.000000 0.000000
vn 1.000000 0.000000 0.000000
vn 1.000000 0.000000 0.000000
vn 1.000000 0.000000 0.000000
vn 1.000000 0.000000 0.000000
vn 1.000000 0.000000 0.000000
vn 1.000000 0.000000 0.000000
vn 1.000000 0.000000 0.000000
vn 0.000000 -1.000000 0.000000
vn 0.000000 -1.000000 0.000000
vn -1.000000 0.000000 0.000000
vn -1.000000 0.000000 0.000000
vn -1.000000 0.000000 0.000000
vn -1.000000 0.000000 0.000000
vn 0.000000 1.000000 0.000000
vn 0.000000 1.000000 0.000000
vn 1.000000 0.000000 0.000000
vn -1.000000 0.000000 0.000000
vn -1.000000 0.000000 0.000000
vn -1.000000 0.000000 0.000000
vn 0.000000 -1.000000 0.000000
vn 0.000000 -1.000000 0.000000
vn 1.000000 0.000000 0.000000
vn 1.000000 0.000000 0.000000
vn 1.000000 0.000000 0.000000
vn 1.000000 0.000000 0.000000
vn 0.000000 1.000000 0.000000
vn 0.000000 1.000000 0.000000
vn -1.000000 0.000000 0.000000
vn 0.000000 1.000000 0.000000
vn 0.000000 1.000000 0.000000
vn 0.000000 1.000000 0.000000
vn 0.000000 1.000000 0.000000
vn 0.000000 0.000000 1.000000
vn 0.000000 0.000000 1.000000
vn 0.000000 0.000000 1.000000
vn 0.000000 0.000000 1.000000
vn 0.000000 -1.000000 0.000000
vn 0.000000 -1.000000 0.000000
vn 0.000000 -1.000000 0.000000
vn 0.000000 -1.000000 0.000000
vn 0.000000 0.000000 -1.000000
vn 0.000000 0.000000 -1.000000
vn 0.000000 0.000000 -1.000000
vn 0.000000 0.000000 -1.000000
f 1/61/1 2/62/2 13/63/3 14/64/4
f 23/37/5 24/38/6 31/39/7 32/40/8
f 15/69/9 16/70/10 8/71/11 7/72/12
f 27/45/13 28/46/14 19/47/15 20/48/16
f 19/5/17 28/6/18 29/7/19 18/8/20
f 27/21/21 20/22/22 21/23/23 26/24/24
f 10/66/25 9/65/26 4/67/27 3/68/28
f 32/32/29 25/28/30 22/27/31 23/33/32
f 5/75/33 6/76/34 12/74/35 11/73/36
f 24/19/37 17/15/38 30/13/39 31/17/40
f 14/64/4 13/63/3 9/65/26 10/66/25
f 26/24/24 21/23/23 22/27/31 25/28/30
f 11/73/36 12/74/35 16/70/10 15/69/9
f 34/1/41 33/2/42 35/3/43 36/4/44
f 13/12/45 18/8/20 17/15/38 9/16/46
f 2/11/47 19/5/17 18/8/20 13/12/45
f 20/48/16 19/47/15 2/51/48 1/52/49
f 21/23/23 20/22/22 1/25/50 14/26/51
f 22/27/31 21/23/23 14/26/51 10/31/52
f 23/33/32 22/27/31 10/31/52 3/35/53
f 3/41/54 4/42/55 24/38/6 23/37/5
f 9/16/46 17/15/38 24/19/37 4/20/56
f 15/30/57 26/24/24 25/28/30 11/34/58
f 7/29/59 27/21/21 26/24/24 15/30/57
f 7/49/60 8/50/61 28/46/14 27/45/13
f 29/7/19 28/6/18 8/9/62 16/10/63
f 30/13/39 29/7/19 16/10/63 12/14/64
f 31/17/40 30/13/39 12/14/64 6/18/65
f 32/40/8 31/39/7 6/43/66 5/44/67
f 11/34/58 25/28/30 32/32/29 5/36/68
f 18/53/69 29/54/70 33/55/71 34/56/72
f 29/77/73 30/78/74 35/79/75 33/80/76
f 30/57/77 17/58/78 36/59/79 35/60/80
f 17/81/81 18/82/82 34/83/83 36/84/84
