# This file uses centimeters as units for non-parametric coordinates.

v -3.351114 0.684154 3.370798
v 3.351114 0.684154 3.370798
v -3.351114 1.435252 3.370798
v 3.351114 1.435251 3.370798
v -3.351114 7.983132 3.370798
v 3.351114 7.983132 3.370798
v -3.351114 11.095810 3.370798
v 3.351114 11.095810 3.370798
v -3.351114 11.781752 3.370798
v 3.351114 11.781752 3.370798
v -3.351114 11.781752 -3.370798
v 3.351114 11.781752 -3.370798
v -3.351114 11.095810 -3.370798
v 3.351114 11.095810 -3.370798
v -3.351114 7.983132 -3.370798
v 3.351114 7.983132 -3.370798
v -3.351114 1.435252 -3.370798
v 3.351114 1.435251 -3.370798
v -3.351114 0.684154 -3.370798
v 3.351114 0.684154 -3.370798
v 3.351114 7.489509 3.370798
v -3.351114 7.489509 3.370798
v -3.351114 7.489509 -3.370798
v 3.351114 7.489509 -3.370798
v 3.351114 11.781752 2.616811
v -3.351114 11.781752 2.616811
v -3.351114 11.095810 2.616811
v -3.351114 7.983132 2.616811
v -3.351114 7.489509 2.616811
v -3.351114 1.435252 2.616811
v -3.351114 0.684154 2.616811
v 3.351114 0.684154 2.616811
v 3.351114 1.435251 2.616811
v 3.351114 7.489509 2.616811
v 3.351114 7.983132 2.616811
v 3.351114 11.095810 2.616811
v 3.351114 11.781752 -2.689570
v -3.351114 11.781752 -2.689570
v -3.351114 11.095810 -2.689570
v -3.351114 7.983132 -2.689570
v -3.351114 7.489509 -2.689570
v -3.351114 1.435252 -2.689570
v -3.351114 0.684154 -2.689570
v 3.351114 0.684154 -2.689570
v 3.351114 1.435251 -2.689570
v 3.351114 7.489509 -2.689570
v 3.351114 7.983132 -2.689570
v 3.351114 11.095810 -2.689570
v 3.834046 1.435251 2.616811
v 3.834046 7.489509 2.616811
v 3.834046 1.435251 -2.689570
v 3.834046 7.489509 -2.689570
v -2.493337 7.983132 2.616811
v -2.493337 11.095810 2.616811
v -2.493337 7.983132 -2.689570
v -2.493337 11.095810 -2.689570
v 2.667755 7.983132 2.616811
v 2.667755 11.095810 2.616811
v 2.667755 11.095810 -2.689570
v 2.667755 7.983132 -2.689570
v -1.578892 7.983132 2.616811
v -1.578892 11.095810 2.616811
v -1.578892 11.095810 -2.689570
v -1.578892 7.983132 -2.689570
v 2.667755 3.566647 -2.689570
v 2.667755 3.566647 2.616811
v -1.578892 3.566647 -2.689570
v -1.578892 3.566647 2.616811
v -2.544739 11.781752 2.616811
v -2.544739 11.781752 3.370798
v -2.544739 11.095810 3.370798
v -2.544739 7.983132 3.370798
v -2.544739 7.489509 3.370798
v -2.544739 1.435252 3.370798
v -2.544739 0.684154 3.370798
v -2.544739 0.684154 2.616811
v -2.544739 0.684154 -2.689570
v -2.544739 0.684154 -3.370798
v -2.544739 1.435252 -3.370798
v -2.544739 7.489509 -3.370798
v -2.544739 7.983132 -3.370798
v -2.544739 11.095810 -3.370798
v -2.544739 11.781752 -3.370798
v -2.544739 11.781752 -2.689570
v -1.926084 12.762415 2.163999
v 2.536421 12.762415 2.163999
v 2.536421 12.762415 1.679952
v -1.926084 12.762415 1.679952
v 2.536421 12.762415 -1.726661
v -1.926084 12.762415 -1.726661
v 2.536421 12.762415 -2.163999
v -1.926084 12.762415 -2.163999
v -2.536421 12.762415 2.163999
v -2.536421 12.762415 1.679952
v -2.536421 12.762415 -1.726661
v -2.536421 12.762415 -2.163999
vt 0.952956 0.194878
vt 0.414147 0.048487
vt 0.414147 0.076201
vt 0.194754 0.074380
vt 0.192701 0.299456
vt 0.192562 0.317854
vt 0.411824 0.319468
vt 0.410968 0.434889
vt 0.191836 0.433891
vt 0.191748 0.459454
vt 0.387611 0.461855
vt 0.165449 0.463837
vt 0.165217 0.437989
vt 0.387376 0.436007
vt 0.164178 0.320699
vt 0.386330 0.318722
vt 0.386165 0.300122
vt 0.164012 0.302101
vt 0.161955 0.073981
vt 0.384126 0.071982
vt 0.774915 0.040258
vt 0.383872 0.043682
vt 0.932379 0.195869
vt 0.931999 0.040126
vt 0.387155 0.043302
vt 0.415959 0.043284
vt 0.415981 0.072010
vt 0.387155 0.072062
vt 0.162679 0.299169
vt 0.387577 0.303507
vt 0.387659 0.322394
vt 0.416540 0.322244
vt 0.417142 0.441549
vt 0.388210 0.441711
vt 0.161660 0.459393
vt 0.388331 0.468049
vt 0.184546 0.442417
vt 0.184612 0.468776
vt 0.184288 0.322909
vt 0.184270 0.303975
vt 0.184046 0.072180
vt 0.792066 0.216523
vt 0.792290 0.195325
vt 0.792775 0.040300
vt 0.196671 0.522158
vt 0.364822 0.520650
vt 0.158381 0.442471
vt 0.158408 0.468832
vt 0.158141 0.322943
vt 0.158172 0.303996
vt 0.157946 0.072198
vt 0.774321 0.216343
vt 0.221757 0.517651
vt 0.204948 0.517733
vt 0.352552 0.517154
vt 0.387815 0.520441
vt 0.417996 0.461583
vt 0.191904 0.517453
vt 0.371139 0.517094
vt 0.214626 0.517400
vt 0.417318 0.467915
vt 0.380367 0.517859
vt 0.410840 0.460305
vt 0.774409 0.195257
vt 0.161699 0.045678
vt 0.194988 0.046464
vt 0.951790 0.039964
vt 0.184018 0.043418
vt 0.931634 0.218434
vt 0.164919 0.046210
vt 0.954525 0.225403
vt 0.416550 0.299852
vt 0.414513 0.071705
vt 0.416400 0.303426
vt 0.162520 0.317648
vt 0.411987 0.301160
vt 0.414237 0.043395
vt 0.157928 0.043407
vt 0.416712 0.318452
vt 0.417764 0.435736
vt 0.161745 0.433750
vt 0.164772 0.074116
vt 0.471283 0.900710
vt 0.471228 0.725490
vt 0.490234 0.725490
vt 0.490180 0.900710
vt 0.471265 0.924641
vt 0.490184 0.924553
vt 0.623150 0.900755
vt 0.623140 0.924586
vt 0.640319 0.900757
vt 0.640265 0.924657
vt 0.623120 0.725481
vt 0.640292 0.725478
vt 0.895926 0.951295
vt 0.666439 0.951295
vt 0.666439 0.694816
vt 0.895926 0.694816
vt 0.897852 0.924304
vt 0.897852 0.694816
vt 0.923616 0.736459
vt 0.923616 0.883787
vt 0.897852 0.694816
vt 0.923616 0.736459
vt 0.897852 0.924304
vt 0.923616 0.883787
vt 0.164164 0.059052
vt 0.192896 0.059052
vt 0.192896 0.088031
vt 0.164164 0.088031
vt 0.395109 0.059052
vt 0.395109 0.088031
vt 0.192896 0.321621
vt 0.164164 0.321621
vt 0.421069 0.059052
vt 0.421069 0.088031
vt 0.192896 0.340666
vt 0.164164 0.340666
vt 0.395109 0.321621
vt 0.421069 0.321621
vt 0.395109 0.340666
vt 0.192896 0.460762
vt 0.164164 0.460762
vt 0.421069 0.340666
vt 0.192896 0.487227
vt 0.164164 0.487227
vt 0.395109 0.460762
vt 0.421069 0.460762
vt 0.395109 0.487227
vt 0.228598 0.525064
vt 0.210152 0.525064
vt 0.421069 0.487227
vt 0.375081 0.525064
vt 0.358415 0.525064
vt 0.120211 0.923908
vt 0.120211 0.557794
vt 0.440565 0.557794
vt 0.440565 0.923908
vt 0.716925 0.662298
vt 0.663722 0.662298
vt 0.663722 0.512996
vt 0.716925 0.512996
vt 0.794249 0.440693
vt 0.910372 0.440693
vt 0.910372 0.499406
vt 0.794249 0.499406
vt 0.714985 0.047155
vt 0.714985 0.196457
vt 0.639498 0.196457
vt 0.639498 0.047155
vt 0.065210 0.778998
vt 0.061566 0.617315
vt 0.091757 0.617315
vt 0.086775 0.778998
vt 0.061749 0.403274
vt 0.063857 0.224291
vt 0.085422 0.224291
vt 0.091939 0.403274
vt 0.634450 0.520623
vt 0.634450 0.669925
vt 0.615110 0.669925
vt 0.615110 0.520623
vt 0.752082 0.672839
vt 0.752082 0.523537
vt 0.771422 0.523537
vt 0.771422 0.672839
vt 0.891608 0.523537
vt 0.891609 0.672839
vt 0.917489 0.523537
vt 0.917489 0.672839
vt 0.529339 0.223667
vt 0.652098 0.223667
vt 0.652098 0.322487
vt 0.529339 0.322487
vt 0.654255 0.348958
vt 0.654255 0.498260
vt 0.628374 0.498260
vt 0.628374 0.348958
vt 0.062139 0.106915
vt 0.083704 0.106915
vt 0.699311 0.263030
vt 0.752514 0.263030
vt 0.752514 0.282370
vt 0.699311 0.282370
vt 0.752514 0.402557
vt 0.699311 0.402557
vt 0.828002 0.282370
vt 0.828002 0.402557
vt 0.752514 0.428437
vt 0.699311 0.428437
vt 0.907491 0.263030
vt 0.960694 0.263030
vt 0.960694 0.282370
vt 0.907491 0.282370
vt 0.960694 0.402557
vt 0.907491 0.402557
vt 0.960694 0.428437
vt 0.907491 0.428437
vt 0.832003 0.402557
vt 0.832003 0.282370
vn 0.000000 0.000000 1.000000
vn 0.000000 0.000000 1.000000
vn 0.000000 0.000000 1.000000
vn 0.000000 0.000000 1.000000
vn 0.000000 0.000000 1.000000
vn 0.000000 0.000000 1.000000
vn 0.000000 0.000000 1.000000
vn 0.000000 0.000000 1.000000
vn 0.000000 0.000000 1.000000
vn 0.000000 0.000000 1.000000
vn 0.000000 0.000000 1.000000
vn 0.000000 0.000000 1.000000
vn 0.000000 1.000000 0.000000
vn 0.000000 1.000000 0.000000
vn 0.000000 1.000000 0.000000
vn 0.000000 1.000000 0.000000
vn 0.000000 0.000000 -1.000000
vn 0.000000 0.000000 -1.000000
vn 0.000000 0.000000 -1.000000
vn 0.000000 0.000000 -1.000000
vn 0.000000 0.000000 -1.000000
vn 0.000000 0.000000 -1.000000
vn 0.000000 0.000000 -1.000000
vn 0.000000 0.000000 -1.000000
vn 0.000000 0.000000 -1.000000
vn 0.000000 0.000000 -1.000000
vn 0.000000 0.000000 -1.000000
vn 0.000000 0.000000 -1.000000
vn 0.000000 -1.000000 0.000000
vn 0.000000 -1.000000 0.000000
vn 0.000000 -1.000000 0.000000
vn 0.000000 -1.000000 0.000000
vn 1.000000 0.000000 0.000000
vn 1.000000 0.000000 0.000000
vn 1.000000 0.000000 0.000000
vn 1.000000 0.000000 0.000000
vn 1.000000 0.000000 0.000000
vn 1.000000 0.000000 0.000000
vn 1.000000 0.000000 0.000000
vn 1.000000 0.000000 0.000000
vn 1.000000 0.000000 0.000000
vn 1.000000 0.000000 0.000000
vn 1.000000 0.000000 0.000000
vn 1.000000 0.000000 0.000000
vn -1.000000 0.000000 0.000000
vn -1.000000 0.000000 0.000000
vn -1.000000 0.000000 0.000000
vn -1.000000 0.000000 0.000000
vn -1.000000 0.000000 0.000000
vn -1.000000 0.000000 0.000000
vn -1.000000 0.000000 0.000000
vn -1.000000 0.000000 0.000000
vn -1.000000 0.000000 0.000000
vn -1.000000 0.000000 0.000000
vn -1.000000 0.000000 0.000000
vn -1.000000 0.000000 0.000000
vn 0.000000 1.000000 0.000000
vn 0.000000 1.000000 0.000000
vn 0.000000 1.000000 0.000000
vn 0.000000 1.000000 0.000000
vn -1.000000 0.000000 0.000000
vn -1.000000 0.000000 0.000000
vn -1.000000 0.000000 0.000000
vn -1.000000 0.000000 0.000000
vn -1.000000 0.000000 0.000000
vn -1.000000 0.000000 0.000000
vn 0.000000 -1.000000 0.000000
vn 0.000000 -1.000000 0.000000
vn 1.000000 0.000000 0.000000
vn 1.000000 0.000000 0.000000
vn 1.000000 0.000000 0.000000
vn 1.000000 0.000000 0.000000
vn 1.000000 0.000000 0.000000
vn 1.000000 0.000000 0.000000
vn 1.000000 0.000000 0.000000
vn 1.000000 0.000000 0.000000
vn 1.000000 0.000000 0.000000
vn 1.000000 0.000000 0.000000
vn 1.000000 0.000000 0.000000
vn 1.000000 0.000000 0.000000
vn 1.000000 0.000000 0.000000
vn 1.000000 0.000000 0.000000
vn 0.000000 1.000000 0.000000
vn 0.000000 1.000000 0.000000
vn 0.000000 1.000000 0.000000
vn 0.000000 1.000000 0.000000
vn -1.000000 0.000000 0.000000
vn -1.000000 0.000000 0.000000
vn -1.000000 0.000000 0.000000
vn -1.000000 0.000000 0.000000
vn -1.000000 0.000000 0.000000
vn -1.000000 0.000000 0.000000
vn 0.000000 -1.000000 0.000000
vn 0.000000 -1.000000 0.000000
vn 1.000000 0.000000 0.000000
vn 1.000000 0.000000 0.000000
vn 1.000000 0.000000 0.000000
vn 1.000000 0.000000 0.000000
vn 1.000000 0.000000 0.000000
vn 1.000000 0.000000 0.000000
vn 0.000000 0.000000 1.000000
vn 0.000000 0.000000 1.000000
vn 0.000000 0.000000 1.000000
vn 0.000000 0.000000 1.000000
vn 0.000000 -1.000000 0.000000
vn 0.000000 -1.000000 0.000000
vn 0.000000 -1.000000 0.000000
vn 0.000000 -1.000000 0.000000
vn 0.000000 0.000000 -1.000000
vn 0.000000 0.000000 -1.000000
vn 0.000000 0.000000 -1.000000
vn 0.000000 0.000000 -1.000000
vn 0.000000 1.000000 0.000000
vn 0.000000 1.000000 0.000000
vn 0.000000 1.000000 0.000000
vn 0.000000 1.000000 0.000000
vn 0.000000 0.000000 -1.000000
vn 0.000000 0.000000 -1.000000
vn 0.000000 0.000000 -1.000000
vn 0.000000 0.000000 -1.000000
vn 0.000000 1.000000 0.000000
vn 0.000000 1.000000 0.000000
vn 0.000000 1.000000 0.000000
vn 0.000000 1.000000 0.000000
vn 0.000000 0.000000 1.000000
vn 0.000000 0.000000 1.000000
vn 0.000000 0.000000 1.000000
vn 0.000000 0.000000 1.000000
vn 0.000000 -1.000000 0.000000
vn 0.000000 -1.000000 0.000000
vn 0.000000 -1.000000 0.000000
vn 0.000000 -1.000000 0.000000
vn 0.000000 0.000000 -1.000000
vn 0.000000 0.000000 -1.000000
vn 0.000000 -1.000000 0.000000
vn 0.000000 -1.000000 0.000000
vn 0.000000 0.000000 1.000000
vn 0.000000 0.000000 1.000000
vn 0.000000 1.000000 0.000000
vn 0.000000 1.000000 0.000000
vn 0.000000 1.000000 0.000000
vn 0.000000 1.000000 0.000000
vn 0.000000 0.000000 -1.000000
vn 0.000000 0.000000 -1.000000
vn 0.000000 -1.000000 0.000000
vn 0.000000 -1.000000 0.000000
vn 0.000000 0.000000 1.000000
vn 0.000000 0.000000 1.000000
vn 0.000000 1.000000 0.000000
vn 0.000000 1.000000 0.000000
vn 0.000000 1.000000 0.000000
vn 0.000000 1.000000 0.000000
vn -1.000000 0.000000 0.000000
vn -1.000000 0.000000 0.000000
vn -1.000000 0.000000 0.000000
vn -1.000000 0.000000 0.000000
vn 0.000000 0.000000 1.000000
vn 0.000000 0.000000 1.000000
vn 0.000000 0.000000 1.000000
vn 0.000000 0.000000 1.000000
vn 1.000000 0.000000 0.000000
vn 1.000000 0.000000 0.000000
vn 1.000000 0.000000 0.000000
vn 1.000000 0.000000 0.000000
vn 0.000000 0.000000 -1.000000
vn 0.000000 0.000000 -1.000000
vn 0.000000 0.000000 -1.000000
vn 0.000000 0.000000 -1.000000
vn 0.000000 1.000000 0.000000
vn 0.000000 1.000000 0.000000
vn 0.000000 0.000000 1.000000
vn 0.000000 0.000000 1.000000
vn 0.000000 0.000000 1.000000
vn 0.000000 0.000000 1.000000
vn 0.000000 0.000000 1.000000
vn 0.000000 0.000000 1.000000
vn 0.000000 -1.000000 0.000000
vn 0.000000 -1.000000 0.000000
vn 0.000000 -1.000000 0.000000
vn 0.000000 -1.000000 0.000000
vn 0.000000 0.000000 -1.000000
vn 0.000000 0.000000 -1.000000
vn 0.000000 0.000000 -1.000000
vn 0.000000 0.000000 -1.000000
vn 0.000000 0.000000 -1.000000
vn 0.000000 0.000000 -1.000000
vn 0.000000 1.000000 0.000000
vn 0.000000 1.000000 0.000000
vn 0.000000 0.776070 0.630646
vn 0.000000 0.776070 0.630646
vn 0.000000 0.776070 0.630646
vn 0.000000 0.776070 0.630646
vn 0.769194 0.639015 0.000000
vn 0.769194 0.639015 0.000000
vn 0.769194 0.639015 0.000000
vn 0.769194 0.639015 0.000000
vn 0.000000 -0.690774 -0.723071
vn 0.000000 -0.690774 -0.723071
vn 0.000000 -0.690774 -0.723071
vn 0.000000 -0.690774 -0.723071
vn 0.000000 -0.700619 0.713536
vn 0.000000 -0.700618 0.713536
vn 0.000000 -0.700618 0.713536
vn 0.000000 -0.700618 0.713536
vn 0.769195 0.639015 0.000000
vn 0.769195 0.639015 0.000000
vn 0.769195 0.639015 0.000000
vn 0.769195 0.639015 0.000000
vn 0.000000 0.776070 -0.630646
vn 0.000000 0.776070 -0.630646
vn 0.000000 0.776070 -0.630646
vn 0.000000 0.776070 -0.630646
vn 0.000000 0.776070 0.630646
vn 0.000000 0.776070 0.630646
vn 0.000000 0.776070 0.630646
vn 0.000000 0.776070 0.630646
vn -0.769195 0.639015 0.000000
vn -0.769195 0.639015 0.000000
vn -0.769195 0.639015 0.000000
vn -0.769195 0.639015 0.000000
vn 0.000000 0.776070 -0.630646
vn 0.000000 0.776070 -0.630646
vn 0.000000 0.776070 -0.630646
vn 0.000000 0.776070 -0.630646
vn -0.769195 0.639015 0.000000
vn -0.769195 0.639015 0.000000
vn -0.769195 0.639015 0.000000
vn -0.769195 0.639015 0.000000
vn 0.845766 -0.533555 0.000000
vn 0.845766 -0.533555 0.000000
vn 0.845766 -0.533555 0.000000
vn 0.845766 -0.533555 0.000000
vn -0.769195 0.639014 0.000000
vn -0.769195 0.639014 0.000000
vn -0.769195 0.639014 0.000000
vn -0.769195 0.639014 0.000000
f 75/66/1 2/2/2 4/3/3 74/4/4
f 74/4/4 4/3/3 21/76/5 73/5/6
f 72/6/7 6/7/8 8/8/9 71/9/10
f 71/9/10 8/8/9 10/63/11 70/10/12
f 85/83/13 86/84/14 87/85/15 88/86/16
f 83/11/17 12/12/18 14/13/19 82/14/20
f 82/14/20 14/13/19 16/15/21 81/16/22
f 80/17/23 24/18/24 18/19/25 79/20/26
f 79/20/26 18/19/25 20/65/27 78/22/28
f 76/23/29 32/24/30 2/67/31 75/1/32
f 2/107/33 32/108/34 33/109/35 4/110/36
f 4/110/36 33/109/35 34/113/37 21/114/38
f 6/118/39 35/117/40 36/122/41 8/123/42
f 8/123/42 36/122/41 25/125/43 10/126/44
f 31/25/45 1/26/46 3/27/47 30/28/48
f 30/28/48 3/27/47 22/74/49 29/30/50
f 28/31/51 5/32/52 7/33/53 27/34/54
f 27/34/54 7/33/53 9/61/55 26/36/56
f 73/5/6 21/76/5 6/7/8 72/6/7
f 29/30/50 22/74/49 5/32/52 28/31/51
f 81/16/22 16/15/21 24/18/24 80/17/23
f 21/114/38 34/113/37 35/117/40 6/118/39
f 84/95/57 69/96/58 25/97/59 37/98/60
f 39/37/61 27/34/54 26/36/56 38/38/62
f 40/39/63 28/31/51 27/34/54 39/37/61
f 41/40/64 29/30/50 28/31/51 40/39/63
f 42/41/65 30/28/48 29/30/50 41/40/64
f 43/68/66 31/25/45 30/28/48 42/41/65
f 77/43/67 44/44/68 32/24/30 76/23/29
f 33/109/35 32/108/34 44/111/69 45/112/70
f 50/135/71 49/136/72 51/137/73 52/138/74
f 35/117/40 34/113/37 46/119/75 47/121/76
f 54/139/77 53/140/78 55/141/79 56/142/80
f 25/125/43 36/122/41 48/127/81 37/129/82
f 90/89/83 89/93/84 91/94/85 92/91/86
f 13/47/87 39/37/61 38/38/62 11/48/88
f 15/49/89 40/39/63 39/37/61 13/47/87
f 23/50/90 41/40/64 40/39/63 15/49/89
f 17/51/91 42/41/65 41/40/64 23/50/90
f 19/78/92 43/68/66 42/41/65 17/51/91
f 78/64/93 20/21/94 44/44/68 77/43/67
f 45/112/70 44/111/69 20/115/95 18/116/96
f 46/119/75 45/112/70 18/116/96 24/120/97
f 47/121/76 46/119/75 24/120/97 16/124/98
f 48/127/81 47/121/76 16/124/98 14/128/99
f 37/129/82 48/127/81 14/128/99 12/132/100
f 34/156/101 33/179/102 49/180/103 50/157/104
f 33/151/105 45/152/106 51/153/107 49/154/108
f 45/152/109 46/155/110 52/158/111 51/153/112
f 46/155/113 34/156/114 50/157/115 52/158/116
f 36/181/117 35/182/118 57/183/119 58/184/120
f 35/159/121 47/160/122 60/161/123 57/162/124
f 47/191/125 48/192/126 59/193/127 60/194/128
f 48/163/129 36/164/130 58/165/131 59/166/132
f 58/184/120 57/183/119 61/185/133 62/186/134
f 59/166/132 58/165/131 62/167/135 63/168/136
f 60/194/128 59/193/127 63/195/137 64/196/138
f 66/171/139 65/172/140 67/173/141 68/174/142
f 62/186/134 61/185/133 53/189/143 54/190/144
f 63/168/136 62/167/135 54/169/145 56/170/146
f 64/196/138 63/195/137 56/197/147 55/198/148
f 61/175/149 64/176/150 55/177/151 53/178/152
f 57/143/153 60/144/154 65/145/155 66/146/156
f 60/194/157 64/196/158 67/199/159 65/200/160
f 64/147/161 61/148/162 68/149/163 67/150/164
f 61/185/165 57/183/166 66/187/167 68/188/168
f 93/87/169 85/83/13 88/86/16 94/88/170
f 7/81/171 71/9/10 70/10/12 9/35/172
f 5/75/173 72/6/7 71/9/10 7/81/171
f 22/29/174 73/5/6 72/6/7 5/75/173
f 3/82/175 74/4/4 73/5/6 22/29/174
f 1/70/176 75/66/1 74/4/4 3/82/175
f 31/69/177 76/23/29 75/1/32 1/71/178
f 43/42/179 77/43/67 76/23/29 31/69/177
f 19/52/180 78/64/93 77/43/67 43/42/179
f 17/73/181 79/20/26 78/22/28 19/77/182
f 23/72/183 80/17/23 79/20/26 17/73/181
f 15/79/184 81/16/22 80/17/23 23/72/183
f 13/80/185 82/14/20 81/16/22 15/79/184
f 11/57/186 83/11/17 82/14/20 13/80/185
f 95/90/187 90/89/83 92/91/86 96/92/188
f 94/88/170 88/86/16 90/89/83 95/90/187
f 70/10/189 10/63/190 86/62/191 85/60/192
f 10/126/193 25/125/194 87/130/195 86/131/196
f 25/105/197 69/99/198 88/102/199 87/106/200
f 84/100/201 37/103/202 89/104/203 90/101/204
f 37/129/205 12/132/206 91/133/207 89/134/208
f 12/12/209 83/11/210 92/46/211 91/45/212
f 9/35/213 70/10/214 85/60/215 93/58/216
f 26/36/217 9/61/218 93/59/219 94/55/220
f 83/11/221 11/57/222 96/56/223 92/46/224
f 11/48/225 38/38/226 95/53/227 96/54/228
f 69/99/229 84/100/230 90/101/231 88/102/232
f 38/38/233 26/36/234 94/55/235 95/53/236
