# This file uses centimeters as units for non-parametric coordinates.

v -3.351114 0.684151 3.370798
v 3.351114 0.684151 3.370798
v -3.351114 1.435249 3.370798
v 3.351114 1.435248 3.370798
v -3.351114 7.983132 3.370798
v 3.351114 7.983132 3.370798
v -3.351114 11.095810 3.370798
v 3.351114 11.095810 3.370798
v -3.351114 11.781752 3.370798
v 3.351114 11.781752 3.370798
v -3.351114 11.781752 -3.370798
v 3.351114 11.781752 -3.370798
v -3.351114 11.095810 -3.370798
v 3.351114 11.095810 -3.370798
v -3.351114 7.983132 -3.370798
v 3.351114 7.983132 -3.370798
v -3.351114 1.435249 -3.370798
v 3.351114 1.435248 -3.370798
v -3.351114 0.684151 -3.370798
v 3.351114 0.684151 -3.370798
v 3.351114 7.489509 3.370798
v -3.351114 7.489509 3.370798
v -3.351114 7.489509 -3.370798
v 3.351114 7.489509 -3.370798
v 3.351114 11.781752 2.616812
v -3.351114 11.781752 2.616812
v -3.351114 11.095810 2.616812
v -3.351114 7.983132 2.616812
v -3.351114 7.489509 2.616812
v -3.351114 1.435249 2.616812
v -3.351114 0.684151 2.616812
v 3.351114 0.684151 2.616812
v 3.351114 1.435248 2.616812
v 3.351114 7.489509 2.616812
v 3.351114 7.983132 2.616812
v 3.351114 11.095810 2.616812
v 3.351114 11.781752 -2.689570
v -3.351114 11.781752 -2.689570
v -3.351114 11.095810 -2.689570
v -3.351114 7.983132 -2.689570
v -3.351114 7.489509 -2.689570
v -3.351114 1.435249 -2.689570
v -3.351114 0.684151 -2.689570
v 3.351114 0.684151 -2.689570
v 3.351114 1.435248 -2.689570
v 3.351114 7.489509 -2.689570
v 3.351114 7.983132 -2.689570
v 3.351114 11.095810 -2.689570
v 3.834046 1.435248 2.616812
v 3.834046 7.489509 2.616812
v 3.834046 1.435248 -2.689570
v 3.834046 7.489509 -2.689570
v -2.493337 7.983132 2.616811
v -2.493337 11.095810 2.616811
v -2.493337 7.983132 -2.689570
v -2.493337 11.095810 -2.689570
v 2.667755 7.983132 2.616811
v 2.667755 11.095810 2.616811
v 2.667755 11.095810 -2.689570
v 2.667755 7.983132 -2.689570
v -1.578892 7.983132 2.616811
v -1.578892 11.095810 2.616811
v -1.578892 11.095810 -2.689570
v -1.578892 7.983132 -2.689570
v 2.667755 3.566644 -2.689570
v 2.667755 3.566644 2.616811
v -1.578892 3.566644 -2.689570
v -1.578892 3.566644 2.616811
v -2.544739 11.781752 2.616812
v -2.544739 11.781752 3.370798
v -2.544739 11.095810 3.370798
v -2.544739 7.983132 3.370798
v -2.544739 7.489509 3.370798
v -2.544739 1.435249 3.370798
v -2.544739 0.684151 3.370798
v -2.544739 0.684151 2.616812
v -2.544739 0.684151 -2.689570
v -2.544739 0.684151 -3.370798
v -2.544739 1.435249 -3.370798
v -2.544739 7.489509 -3.370798
v -2.544739 7.983132 -3.370798
v -2.544739 11.095810 -3.370798
v -2.544739 11.781752 -3.370798
v -2.544739 11.781752 -2.689570
v -1.926084 12.762415 2.164000
v 2.536421 12.762415 2.164000
v 2.536421 12.762415 1.679952
v -1.926084 12.762415 1.679952
v 2.536421 12.762415 -1.726661
v -1.926084 12.762415 -1.726661
v 2.536421 12.762415 -2.164000
v -1.926084 12.762415 -2.164000
v -2.536421 12.762415 2.164000
v -2.536421 12.762415 1.679952
v -2.536421 12.762415 -1.726661
v -2.536421 12.762415 -2.164000
vt 0.375000 0.000000
vt 0.625000 0.000000
vt 0.375000 0.062500
vt 0.625000 0.062500
vt 0.375000 0.125000
vt 0.625000 0.125000
vt 0.375000 0.187500
vt 0.625000 0.187500
vt 0.375000 0.250000
vt 0.625000 0.250000
vt 0.375000 0.500000
vt 0.625000 0.500000
vt 0.375000 0.562500
vt 0.625000 0.562500
vt 0.375000 0.625000
vt 0.625000 0.625000
vt 0.375000 0.687500
vt 0.625000 0.687500
vt 0.375000 0.750000
vt 0.625000 0.750000
vt 0.375000 1.000000
vt 0.625000 1.000000
vt 0.875000 0.000000
vt 0.875000 0.062500
vt 0.875000 0.125000
vt 0.875000 0.187500
vt 0.875000 0.250000
vt 0.125000 0.000000
vt 0.125000 0.062500
vt 0.125000 0.125000
vt 0.125000 0.187500
vt 0.125000 0.250000
vt 0.625000 0.120288
vt 0.375000 0.120288
vt 0.125000 0.120288
vt 0.375000 0.629712
vt 0.625000 0.629712
vt 0.875000 0.120288
vt 0.625000 0.277960
vt 0.652960 0.250000
vt 0.347040 0.250000
vt 0.375000 0.277960
vt 0.347040 0.187500
vt 0.347040 0.125000
vt 0.347040 0.120288
vt 0.347040 0.062500
vt 0.347040 0.000000
vt 0.375000 0.972040
vt 0.625000 0.972040
vt 0.652960 0.000000
vt 0.652960 0.062500
vt 0.652960 0.120288
vt 0.652960 0.125000
vt 0.652960 0.187500
vt 0.625000 0.474738
vt 0.849738 0.250000
vt 0.150262 0.250000
vt 0.375000 0.474738
vt 0.150262 0.187500
vt 0.150262 0.125000
vt 0.150262 0.120288
vt 0.150262 0.062500
vt 0.150262 0.000000
vt 0.375000 0.775262
vt 0.625000 0.775262
vt 0.849738 0.000000
vt 0.849738 0.062500
vt 0.849738 0.120288
vt 0.849738 0.125000
vt 0.849738 0.187500
vt 0.652960 0.120288
vt 0.652960 0.062500
vt 0.849738 0.062500
vt 0.849738 0.120288
vt 0.652960 0.187500
vt 0.652960 0.125000
vt 0.849738 0.125000
vt 0.849738 0.187500
vt 0.652960 0.125000
vt 0.652960 0.187500
vt 0.849738 0.187500
vt 0.849738 0.125000
vt 0.652960 0.125000
vt 0.652960 0.187500
vt 0.849738 0.187500
vt 0.849738 0.125000
vt 0.652960 0.125000
vt 0.849738 0.125000
vt 0.849738 0.125000
vt 0.652960 0.125000
vt 0.405079 0.277960
vt 0.405079 0.250000
vt 0.405079 0.187500
vt 0.405079 0.125000
vt 0.405079 0.120288
vt 0.405079 0.062500
vt 0.405079 0.000000
vt 0.405079 1.000000
vt 0.405079 0.972040
vt 0.405079 0.775262
vt 0.405079 0.750000
vt 0.405079 0.687500
vt 0.405079 0.629712
vt 0.405079 0.625000
vt 0.405079 0.562500
vt 0.405079 0.500000
vt 0.405079 0.474738
vt 0.405079 0.250000
vt 0.625000 0.250000
vt 0.625000 0.277960
vt 0.405079 0.277960
vt 0.405079 0.474738
vt 0.625000 0.474738
vt 0.625000 0.500000
vt 0.405079 0.500000
vt 0.375000 0.250000
vt 0.375000 0.277960
vt 0.375000 0.500000
vt 0.375000 0.474738
vn 0.000000 0.000000 1.000000
vn 0.000000 0.000000 1.000000
vn 0.000000 0.000000 1.000000
vn 0.000000 0.000000 1.000000
vn 0.000000 0.000000 1.000000
vn 0.000000 0.000000 1.000000
vn 0.000000 0.000000 1.000000
vn 0.000000 0.000000 1.000000
vn 0.000000 0.000000 1.000000
vn 0.000000 0.000000 1.000000
vn 0.000000 0.000000 1.000000
vn 0.000000 0.000000 1.000000
vn 0.000000 1.000000 0.000000
vn 0.000000 1.000000 0.000000
vn 0.000000 1.000000 0.000000
vn 0.000000 1.000000 0.000000
vn 0.000000 0.000000 -1.000000
vn 0.000000 0.000000 -1.000000
vn 0.000000 0.000000 -1.000000
vn 0.000000 0.000000 -1.000000
vn 0.000000 0.000000 -1.000000
vn 0.000000 0.000000 -1.000000
vn 0.000000 0.000000 -1.000000
vn 0.000000 0.000000 -1.000000
vn 0.000000 0.000000 -1.000000
vn 0.000000 0.000000 -1.000000
vn 0.000000 0.000000 -1.000000
vn 0.000000 0.000000 -1.000000
vn 0.000000 -1.000000 0.000000
vn 0.000000 -1.000000 0.000000
vn 0.000000 -1.000000 0.000000
vn 0.000000 -1.000000 0.000000
vn 1.000000 0.000000 0.000000
vn 1.000000 0.000000 0.000000
vn 1.000000 0.000000 0.000000
vn 1.000000 0.000000 0.000000
vn 1.000000 0.000000 0.000000
vn 1.000000 0.000000 0.000000
vn 1.000000 0.000000 0.000000
vn 1.000000 0.000000 0.000000
vn 1.000000 0.000000 0.000000
vn 1.000000 0.000000 0.000000
vn 1.000000 0.000000 0.000000
vn 1.000000 0.000000 0.000000
vn -1.000000 0.000000 0.000000
vn -1.000000 0.000000 0.000000
vn -1.000000 0.000000 0.000000
vn -1.000000 0.000000 0.000000
vn -1.000000 0.000000 0.000000
vn -1.000000 0.000000 0.000000
vn -1.000000 0.000000 0.000000
vn -1.000000 0.000000 0.000000
vn -1.000000 0.000000 0.000000
vn -1.000000 0.000000 0.000000
vn -1.000000 0.000000 0.000000
vn -1.000000 0.000000 0.000000
vn 0.000000 1.000000 0.000000
vn 0.000000 1.000000 0.000000
vn 0.000000 1.000000 0.000000
vn 0.000000 1.000000 0.000000
vn -1.000000 0.000000 0.000000
vn -1.000000 0.000000 0.000000
vn -1.000000 0.000000 0.000000
vn -1.000000 0.000000 0.000000
vn -1.000000 0.000000 0.000000
vn -1.000000 0.000000 0.000000
vn 0.000000 -1.000000 0.000000
vn 0.000000 -1.000000 0.000000
vn 1.000000 0.000000 0.000000
vn 1.000000 0.000000 0.000000
vn 1.000000 0.000000 0.000000
vn 1.000000 0.000000 0.000000
vn 1.000000 0.000000 0.000000
vn 1.000000 0.000000 0.000000
vn 1.000000 0.000000 0.000000
vn 1.000000 0.000000 0.000000
vn 1.000000 0.000000 0.000000
vn 1.000000 0.000000 0.000000
vn 1.000000 0.000000 0.000000
vn 1.000000 0.000000 0.000000
vn 1.000000 0.000000 0.000000
vn 1.000000 0.000000 0.000000
vn 0.000000 1.000000 0.000000
vn 0.000000 1.000000 0.000000
vn 0.000000 1.000000 0.000000
vn 0.000000 1.000000 0.000000
vn -1.000000 0.000000 0.000000
vn -1.000000 0.000000 0.000000
vn -1.000000 0.000000 0.000000
vn -1.000000 0.000000 0.000000
vn -1.000000 0.000000 0.000000
vn -1.000000 0.000000 0.000000
vn 0.000000 -1.000000 0.000000
vn 0.000000 -1.000000 0.000000
vn 1.000000 0.000000 0.000000
vn 1.000000 0.000000 0.000000
vn 1.000000 0.000000 0.000000
vn 1.000000 0.000000 0.000000
vn 1.000000 0.000000 0.000000
vn 1.000000 0.000000 0.000000
vn 0.000000 0.000000 1.000000
vn 0.000000 0.000000 1.000000
vn 0.000000 0.000000 1.000000
vn 0.000000 0.000000 1.000000
vn 0.000000 -1.000000 0.000000
vn 0.000000 -1.000000 0.000000
vn 0.000000 -1.000000 0.000000
vn 0.000000 -1.000000 0.000000
vn 0.000000 0.000000 -1.000000
vn 0.000000 0.000000 -1.000000
vn 0.000000 0.000000 -1.000000
vn 0.000000 0.000000 -1.000000
vn 0.000000 1.000000 0.000000
vn 0.000000 1.000000 0.000000
vn 0.000000 1.000000 0.000000
vn 0.000000 1.000000 0.000000
vn 0.000000 0.000000 -1.000000
vn 0.000000 0.000000 -1.000000
vn 0.000000 0.000000 -1.000000
vn 0.000000 0.000000 -1.000000
vn 0.000000 1.000000 0.000000
vn 0.000000 1.000000 0.000000
vn 0.000000 1.000000 0.000000
vn 0.000000 1.000000 0.000000
vn 0.000000 0.000000 1.000000
vn 0.000000 0.000000 1.000000
vn -0.000000 0.000000 1.000000
vn -0.000000 0.000000 1.000000
vn 0.000000 -1.000000 0.000000
vn 0.000000 -1.000000 0.000000
vn 0.000000 -1.000000 0.000000
vn 0.000000 -1.000000 0.000000
vn 0.000000 0.000000 -1.000000
vn 0.000000 0.000000 -1.000000
vn 0.000000 -1.000000 0.000000
vn 0.000000 -1.000000 0.000000
vn -0.000000 0.000000 1.000000
vn -0.000000 0.000000 1.000000
vn 0.000000 1.000000 0.000000
vn 0.000000 1.000000 0.000000
vn 0.000000 1.000000 0.000000
vn 0.000000 1.000000 0.000000
vn 0.000000 0.000000 -1.000000
vn 0.000000 0.000000 -1.000000
vn 0.000000 -1.000000 0.000000
vn 0.000000 -1.000000 0.000000
vn 0.000000 0.000000 1.000000
vn 0.000000 0.000000 1.000000
vn 0.000000 1.000000 0.000000
vn 0.000000 1.000000 0.000000
vn 0.000000 1.000000 0.000000
vn 0.000000 1.000000 0.000000
vn -1.000000 0.000000 0.000000
vn -1.000000 0.000000 0.000000
vn -1.000000 0.000000 0.000000
vn -1.000000 0.000000 0.000000
vn -0.000000 0.000000 1.000000
vn -0.000000 0.000000 1.000000
vn -0.000000 0.000000 1.000000
vn -0.000000 0.000000 1.000000
vn 1.000000 0.000000 0.000000
vn 1.000000 0.000000 0.000000
vn 1.000000 0.000000 0.000000
vn 1.000000 0.000000 0.000000
vn 0.000000 0.000000 -1.000000
vn 0.000000 0.000000 -1.000000
vn 0.000000 0.000000 -1.000000
vn 0.000000 0.000000 -1.000000
vn 0.000000 1.000000 0.000000
vn 0.000000 1.000000 0.000000
vn 0.000000 0.000000 1.000000
vn 0.000000 0.000000 1.000000
vn 0.000000 0.000000 1.000000
vn 0.000000 0.000000 1.000000
vn 0.000000 0.000000 1.000000
vn 0.000000 0.000000 1.000000
vn 0.000000 -1.000000 0.000000
vn 0.000000 -1.000000 0.000000
vn 0.000000 -1.000000 0.000000
vn 0.000000 -1.000000 0.000000
vn 0.000000 0.000000 -1.000000
vn 0.000000 0.000000 -1.000000
vn 0.000000 0.000000 -1.000000
vn 0.000000 0.000000 -1.000000
vn 0.000000 0.000000 -1.000000
vn 0.000000 0.000000 -1.000000
vn 0.000000 1.000000 0.000000
vn 0.000000 1.000000 0.000000
vn 0.000000 0.776070 0.630647
vn 0.000000 0.776070 0.630647
vn 0.000000 0.776070 0.630647
vn 0.000000 0.776070 0.630647
vn 0.769195 0.639014 0.000000
vn 0.769195 0.639014 0.000000
vn 0.769195 0.639014 0.000000
vn 0.769195 0.639014 0.000000
vn 0.000000 -0.690774 -0.723071
vn 0.000000 -0.690774 -0.723071
vn 0.000000 -0.690774 -0.723071
vn 0.000000 -0.690774 -0.723071
vn 0.000000 -0.700618 0.713536
vn 0.000000 -0.700618 0.713536
vn 0.000000 -0.700618 0.713536
vn 0.000000 -0.700618 0.713536
vn 0.769195 0.639014 0.000000
vn 0.769195 0.639014 0.000000
vn 0.769195 0.639014 0.000000
vn 0.769195 0.639014 0.000000
vn 0.000000 0.776070 -0.630647
vn 0.000000 0.776070 -0.630647
vn 0.000000 0.776070 -0.630647
vn 0.000000 0.776070 -0.630647
vn 0.000000 0.776070 0.630646
vn 0.000000 0.776070 0.630646
vn 0.000000 0.776070 0.630646
vn 0.000000 0.776070 0.630646
vn -0.769195 0.639014 0.000000
vn -0.769195 0.639014 0.000000
vn -0.769195 0.639014 0.000000
vn -0.769195 0.639014 0.000000
vn 0.000000 0.776070 -0.630647
vn 0.000000 0.776070 -0.630647
vn 0.000000 0.776070 -0.630647
vn 0.000000 0.776070 -0.630647
vn -0.769195 0.639014 0.000000
vn -0.769195 0.639014 0.000000
vn -0.769195 0.639014 0.000000
vn -0.769195 0.639014 0.000000
vn 0.845766 -0.533554 0.000000
vn 0.845766 -0.533555 0.000000
vn 0.845766 -0.533555 0.000000
vn 0.845766 -0.533554 0.000000
vn -0.769195 0.639014 0.000000
vn -0.769195 0.639014 0.000000
vn -0.769195 0.639014 0.000000
vn -0.769195 0.639014 0.000000
f 75/97/1 2/2/2 4/4/3 74/96/4
f 74/96/4 4/4/3 21/33/5 73/95/6
f 72/94/7 6/6/8 8/8/9 71/93/10
f 71/93/10 8/8/9 10/10/11 70/92/12
f 85/108/13 86/109/14 87/110/15 88/111/16
f 83/106/17 12/12/18 14/14/19 82/105/20
f 82/105/20 14/14/19 16/16/21 81/104/22
f 80/103/23 24/37/24 18/18/25 79/102/26
f 79/102/26 18/18/25 20/20/27 78/101/28
f 76/99/29 32/49/30 2/22/31 75/98/32
f 2/2/33 32/50/34 33/51/35 4/4/36
f 4/4/36 33/51/35 34/52/37 21/33/38
f 6/6/39 35/53/40 36/54/41 8/8/42
f 8/8/42 36/54/41 25/40/43 10/10/44
f 31/47/45 1/1/46 3/3/47 30/46/48
f 30/46/48 3/3/47 22/34/49 29/45/50
f 28/44/51 5/5/52 7/7/53 27/43/54
f 27/43/54 7/7/53 9/9/55 26/41/56
f 73/95/6 21/33/5 6/6/8 72/94/7
f 29/45/50 22/34/49 5/5/52 28/44/51
f 81/104/22 16/16/21 24/37/24 80/103/23
f 21/33/38 34/52/37 35/53/40 6/6/39
f 84/107/57 69/91/58 25/39/59 37/55/60
f 39/59/61 27/43/54 26/41/56 38/57/62
f 40/60/63 28/44/51 27/43/54 39/59/61
f 41/61/64 29/45/50 28/44/51 40/60/63
f 42/62/65 30/46/48 29/45/50 41/61/64
f 43/63/66 31/47/45 30/46/48 42/62/65
f 77/100/67 44/65/68 32/49/30 76/99/29
f 33/51/35 32/50/34 44/66/69 45/67/70
f 50/71/71 49/72/72 51/73/73 52/74/74
f 35/53/40 34/52/37 46/68/75 47/69/76
f 54/75/77 53/76/78 55/77/79 56/78/80
f 25/40/43 36/54/41 48/70/81 37/56/82
f 90/112/83 89/113/84 91/114/85 92/115/86
f 13/31/87 39/59/61 38/57/62 11/32/88
f 15/30/89 40/60/63 39/59/61 13/31/87
f 23/35/90 41/61/64 40/60/63 15/30/89
f 17/29/91 42/62/65 41/61/64 23/35/90
f 19/28/92 43/63/66 42/62/65 17/29/91
f 78/101/93 20/20/94 44/65/68 77/100/67
f 45/67/70 44/66/69 20/23/95 18/24/96
f 46/68/75 45/67/70 18/24/96 24/38/97
f 47/69/76 46/68/75 24/38/97 16/25/98
f 48/70/81 47/69/76 16/25/98 14/26/99
f 37/56/82 48/70/81 14/26/99 12/27/100
f 34/52/101 33/51/102 49/72/103 50/71/104
f 33/51/105 45/67/106 51/73/107 49/72/108
f 45/67/109 46/68/110 52/74/111 51/73/112
f 46/68/113 34/52/114 50/71/115 52/74/116
f 36/54/117 35/53/118 57/79/119 58/80/120
f 35/53/121 47/69/122 60/82/123 57/79/124
f 47/69/125 48/70/126 59/81/127 60/82/128
f 48/70/129 36/54/130 58/80/131 59/81/132
f 58/80/120 57/79/119 61/83/133 62/84/134
f 59/81/132 58/80/131 62/84/135 63/85/136
f 60/82/128 59/81/127 63/85/137 64/86/138
f 66/87/139 65/88/140 67/89/141 68/90/142
f 62/84/134 61/83/133 53/76/143 54/75/144
f 63/85/136 62/84/135 54/75/145 56/78/146
f 64/86/138 63/85/137 56/78/147 55/77/148
f 61/83/149 64/86/150 55/77/151 53/76/152
f 57/79/153 60/82/154 65/88/155 66/87/156
f 60/82/157 64/86/158 67/89/159 65/88/160
f 64/86/161 61/83/162 68/90/163 67/89/164
f 61/83/165 57/79/166 66/87/167 68/90/168
f 93/116/169 85/108/13 88/111/16 94/117/170
f 7/7/171 71/93/10 70/92/12 9/9/172
f 5/5/173 72/94/7 71/93/10 7/7/171
f 22/34/174 73/95/6 72/94/7 5/5/173
f 3/3/175 74/96/4 73/95/6 22/34/174
f 1/1/176 75/97/1 74/96/4 3/3/175
f 31/48/177 76/99/29 75/98/32 1/21/178
f 43/64/179 77/100/67 76/99/29 31/48/177
f 19/19/180 78/101/93 77/100/67 43/64/179
f 17/17/181 79/102/26 78/101/28 19/19/182
f 23/36/183 80/103/23 79/102/26 17/17/181
f 15/15/184 81/104/22 80/103/23 23/36/183
f 13/13/185 82/105/20 81/104/22 15/15/184
f 11/11/186 83/106/17 82/105/20 13/13/185
f 95/119/187 90/112/83 92/115/86 96/118/188
f 94/117/170 88/111/16 90/112/83 95/119/187
f 70/92/189 10/10/190 86/109/191 85/108/192
f 10/10/193 25/39/194 87/110/195 86/109/196
f 25/39/197 69/91/198 88/111/199 87/110/200
f 84/107/201 37/55/202 89/113/203 90/112/204
f 37/55/205 12/12/206 91/114/207 89/113/208
f 12/12/209 83/106/210 92/115/211 91/114/212
f 9/9/213 70/92/214 85/108/215 93/116/216
f 26/42/217 9/9/218 93/116/219 94/117/220
f 83/106/221 11/11/222 96/118/223 92/115/224
f 11/11/225 38/58/226 95/119/227 96/118/228
f 69/91/229 84/107/230 90/112/231 88/111/232
f 38/58/233 26/42/234 94/117/235 95/119/236
