# This file uses centimeters as units for non-parametric coordinates.

v 0.809017 0.320362 -0.587785
v 0.309017 0.320362 -0.951057
v -0.309017 0.320362 -0.951057
v -0.809017 0.320362 -0.587785
v -1.000000 0.320362 0.000000
v -0.809017 0.320362 0.587785
v -0.309017 0.320362 0.951057
v 0.309017 0.320362 0.951057
v 0.809017 0.320362 0.587785
v 1.000000 0.320362 0.000000
v 0.809017 4.747986 -0.587785
v 0.309017 4.747986 -0.951057
v -0.309017 4.747986 -0.951057
v -0.809017 4.747986 -0.587785
v -1.000000 4.747986 0.000000
v -0.809017 4.747986 0.587785
v -0.309017 4.747986 0.951057
v 0.309017 4.747986 0.951057
v 0.809017 4.747986 0.587785
v 1.000000 4.747986 0.000000
v 0.298996 0.052394 -0.217233
v 0.114206 0.052394 -0.351491
v 0.228413 0.052394 -0.702982
v 0.597992 0.052394 -0.434467
v -0.114206 0.052394 -0.351491
v -0.228413 0.052394 -0.702982
v -0.298996 0.052394 -0.217233
v -0.597992 0.052394 -0.434467
v -0.369579 0.052394 0.000000
v -0.739159 0.052394 0.000000
v -0.298996 0.052394 0.217233
v -0.597992 0.052394 0.434467
v -0.114206 0.052394 0.351491
v -0.228413 0.052394 0.702982
v 0.114206 0.052394 0.351491
v 0.228413 0.052394 0.702982
v 0.298996 0.052394 0.217233
v 0.597992 0.052394 0.434467
v 0.369579 0.052394 -0.000000
v 0.739159 0.052394 -0.000000
v -0.000000 0.052394 -0.000000
v 0.793433 5.613485 -0.576463
v 0.303064 5.613485 -0.932737
v -0.303065 5.613485 -0.932737
v -0.793433 5.613485 -0.576463
v -0.980737 5.613485 0.000000
v -0.793433 5.613485 0.576463
v -0.303064 5.613485 0.932736
v 0.303064 5.613485 0.932736
v 0.793433 5.613485 0.576463
v 0.980737 5.613485 -0.000000
v 0.605973 5.677902 -0.440265
v 0.231461 5.677902 -0.712363
v -0.231461 5.677902 -0.712363
v -0.605973 5.677902 -0.440265
v -0.749023 5.677902 -0.000000
v -0.605973 5.677902 0.440265
v -0.231461 5.677902 0.712363
v 0.231461 5.677902 0.712363
v 0.605973 5.677902 0.440265
v 0.749023 5.677902 -0.000000
v 0.471925 5.966795 -0.342874
v 0.180259 5.966795 -0.554782
v 0.090130 5.966795 -0.277391
v 0.235963 5.966795 -0.171437
v -0.180259 5.966795 -0.554781
v -0.090130 5.966795 -0.277391
v -0.471925 5.966795 -0.342874
v -0.235963 5.966795 -0.171437
v -0.583332 5.966795 0.000000
v -0.291666 5.966795 0.000000
v -0.471925 5.966795 0.342874
v -0.235963 5.966795 0.171437
v -0.180259 5.966795 0.554782
v -0.090130 5.966795 0.277391
v 0.180259 5.966795 0.554782
v 0.090130 5.966795 0.277391
v 0.471925 5.966795 0.342874
v 0.235963 5.966795 0.171437
v 0.583332 5.966795 -0.000000
v 0.291666 5.966795 -0.000000
v 0.069680 6.698281 -0.050626
v 0.026615 6.698281 -0.081914
v -0.000000 6.698281 -0.000000
v -0.026616 6.698281 -0.081914
v -0.069680 6.698281 -0.050626
v -0.086130 6.698281 0.000000
v -0.069680 6.698281 0.050626
v -0.026616 6.698281 0.081914
v 0.026615 6.698281 0.081914
v 0.069680 6.698281 0.050626
v 0.086130 6.698281 -0.000000
v -0.317517 4.845056 0.977216
v -0.831270 4.845056 0.603953
v -1.027506 4.845056 0.000000
v -0.831270 4.845056 -0.603953
v -0.317517 4.845056 -0.977216
v 0.317517 4.845056 -0.977217
v 0.831270 4.845056 -0.603953
v 1.027506 4.845056 0.000000
v 0.831270 4.845056 0.603953
v 0.317517 4.845056 0.977216
v 0.762419 4.750781 -0.553930
v 0.291218 4.750781 -0.896278
v 0.299228 4.842261 -0.920931
v 0.783391 4.842261 -0.569167
v -0.291218 4.750781 -0.896278
v -0.299229 4.842261 -0.920931
v -0.762420 4.750781 -0.553930
v -0.783391 4.842261 -0.569166
v -0.942402 4.750781 0.000000
v -0.968324 4.842261 0.000000
v -0.762419 4.750781 0.553930
v -0.783391 4.842261 0.569167
v -0.291218 4.750781 0.896278
v -0.299228 4.842261 0.920931
v 0.291218 4.750781 0.896278
v 0.299229 4.842261 0.920931
v 0.762419 4.750781 0.553930
v 0.783390 4.842261 0.569166
v 0.942402 4.750781 -0.000000
v 0.968324 4.842261 0.000000
vt 0.563204 0.110329
vt 0.524142 0.081949
vt 0.475858 0.081949
vt 0.436796 0.110329
vt 0.421875 0.156250
vt 0.436796 0.202171
vt 0.475858 0.230551
vt 0.524142 0.230551
vt 0.563204 0.202171
vt 0.578125 0.156250
vt 0.626409 0.064409
vt 0.548284 0.007647
vt 0.451716 0.007647
vt 0.373591 0.064409
vt 0.343750 0.156250
vt 0.373591 0.248091
vt 0.451716 0.304853
vt 0.548284 0.304853
vt 0.626409 0.248091
vt 0.656250 0.156250
vt 0.375000 0.312500
vt 0.400000 0.312500
vt 0.425000 0.312500
vt 0.450000 0.312500
vt 0.475000 0.312500
vt 0.500000 0.312500
vt 0.525000 0.312500
vt 0.550000 0.312500
vt 0.575000 0.312500
vt 0.600000 0.312500
vt 0.625000 0.312500
vt 0.375000 0.688440
vt 0.400000 0.688440
vt 0.425000 0.688440
vt 0.450000 0.688440
vt 0.475000 0.688440
vt 0.500000 0.688440
vt 0.525000 0.688440
vt 0.550000 0.688440
vt 0.575000 0.688440
vt 0.600000 0.688440
vt 0.625000 0.688440
vt 0.626409 0.751909
vt 0.548284 0.695147
vt 0.451716 0.695147
vt 0.373591 0.751909
vt 0.343750 0.843750
vt 0.373591 0.935591
vt 0.451716 0.992353
vt 0.548284 0.992353
vt 0.626409 0.935591
vt 0.656250 0.843750
vt 0.563204 0.797829
vt 0.524142 0.769449
vt 0.475858 0.769449
vt 0.436796 0.797829
vt 0.421875 0.843750
vt 0.436796 0.889671
vt 0.475858 0.918051
vt 0.524142 0.918051
vt 0.563204 0.889671
vt 0.578125 0.843750
vt 0.500000 0.150000
vt 0.500000 0.837500
vt 0.548284 0.007647
vt 0.626409 0.064409
vt 0.451716 0.007647
vt 0.373591 0.064409
vt 0.343750 0.156250
vt 0.373591 0.248091
vt 0.451716 0.304853
vt 0.548284 0.304853
vt 0.626409 0.248091
vt 0.656250 0.156250
vt 0.626409 0.935591
vt 0.548284 0.992353
vt 0.451716 0.992353
vt 0.373591 0.935591
vt 0.343750 0.843750
vt 0.373591 0.751909
vt 0.451716 0.695147
vt 0.548284 0.695147
vt 0.626409 0.751909
vt 0.656250 0.843750
vt 0.626409 0.935591
vt 0.548284 0.992353
vt 0.451716 0.992353
vt 0.373591 0.935591
vt 0.343750 0.843750
vt 0.373591 0.751909
vt 0.451716 0.695147
vt 0.548284 0.695147
vt 0.626409 0.751909
vt 0.656250 0.843750
vt 0.626409 0.935591
vt 0.548284 0.992353
vt 0.451716 0.992353
vt 0.373591 0.935591
vt 0.343750 0.843750
vt 0.373591 0.751909
vt 0.451716 0.695147
vt 0.548284 0.695147
vt 0.626409 0.751909
vt 0.656250 0.843750
vt 0.563204 0.889671
vt 0.524142 0.918051
vt 0.475858 0.918051
vt 0.436796 0.889671
vt 0.421875 0.843750
vt 0.436796 0.797829
vt 0.475858 0.769449
vt 0.524142 0.769449
vt 0.563204 0.797829
vt 0.578125 0.843750
vt 0.451716 0.695147
vt 0.373591 0.751909
vt 0.343750 0.843750
vt 0.373591 0.935591
vt 0.451716 0.992353
vt 0.548284 0.992353
vt 0.626409 0.935591
vt 0.656250 0.843750
vt 0.626409 0.751909
vt 0.548284 0.695147
vt 0.626409 0.935591
vt 0.548284 0.992353
vt 0.548284 0.992353
vt 0.626409 0.935591
vt 0.451716 0.992353
vt 0.451716 0.992353
vt 0.373591 0.935591
vt 0.373591 0.935591
vt 0.343750 0.843750
vt 0.343750 0.843750
vt 0.373591 0.751909
vt 0.373591 0.751909
vt 0.451716 0.695147
vt 0.451716 0.695147
vt 0.548284 0.695147
vt 0.548284 0.695147
vt 0.626409 0.751909
vt 0.626409 0.751909
vt 0.656250 0.843750
vt 0.656250 0.843750
vn 0.000000 -1.000000 -0.000000
vn 0.000000 -1.000000 0.000000
vn 0.000000 -1.000000 0.000000
vn 0.000000 -1.000000 0.000000
vn 0.000000 -1.000000 0.000000
vn 0.000000 -1.000000 0.000000
vn 0.000000 -1.000000 -0.000000
vn 0.000000 -1.000000 -0.000000
vn 0.000000 -1.000000 -0.000000
vn 0.000000 -1.000000 -0.000000
vn 0.000000 -1.000000 -0.000000
vn 0.000000 -1.000000 0.000000
vn 0.000000 -1.000000 0.000000
vn 0.000000 -1.000000 0.000000
vn 0.000000 -1.000000 0.000000
vn 0.000000 -1.000000 0.000000
vn 0.000000 -1.000000 0.000000
vn 0.000000 -1.000000 -0.000000
vn 0.000000 -1.000000 -0.000000
vn 0.000000 -1.000000 -0.000000
vn 0.587785 0.000000 -0.809017
vn 0.587785 0.000000 -0.809017
vn 0.587785 0.000000 -0.809017
vn 0.587785 0.000000 -0.809017
vn -0.000000 0.000000 -1.000000
vn -0.000000 0.000000 -1.000000
vn -0.000000 0.000000 -1.000000
vn -0.000000 0.000000 -1.000000
vn -0.587785 0.000000 -0.809017
vn -0.587785 0.000000 -0.809017
vn -0.587785 0.000000 -0.809017
vn -0.587785 0.000000 -0.809017
vn -0.951057 0.000000 -0.309017
vn -0.951057 0.000000 -0.309017
vn -0.951057 0.000000 -0.309017
vn -0.951057 0.000000 -0.309017
vn -0.951057 0.000000 0.309017
vn -0.951057 0.000000 0.309017
vn -0.951057 0.000000 0.309017
vn -0.951057 0.000000 0.309017
vn -0.587785 0.000000 0.809017
vn -0.587785 0.000000 0.809017
vn -0.587785 0.000000 0.809017
vn -0.587785 0.000000 0.809017
vn 0.000000 0.000000 1.000000
vn 0.000000 0.000000 1.000000
vn 0.000000 0.000000 1.000000
vn 0.000000 0.000000 1.000000
vn 0.587785 0.000000 0.809017
vn 0.587785 0.000000 0.809017
vn 0.587785 0.000000 0.809017
vn 0.587785 0.000000 0.809017
vn 0.951057 0.000000 0.309017
vn 0.951057 0.000000 0.309017
vn 0.951057 0.000000 0.309017
vn 0.951057 0.000000 0.309017
vn 0.951057 0.000000 -0.309017
vn 0.951057 0.000000 -0.309017
vn 0.951057 0.000000 -0.309017
vn 0.951057 0.000000 -0.309017
vn 0.000000 1.000000 -0.000000
vn 0.000000 1.000000 0.000001
vn 0.000000 1.000000 0.000001
vn 0.000000 1.000000 0.000000
vn 0.000000 1.000000 0.000000
vn 0.000000 1.000000 0.000000
vn 0.000000 1.000000 -0.000000
vn 0.000000 1.000000 -0.000000
vn 0.000000 1.000000 0.000000
vn 0.000000 1.000000 0.000000
vn 0.000000 1.000000 0.000001
vn 0.000000 1.000000 0.000001
vn 0.000000 1.000000 0.000000
vn 0.000000 1.000000 0.000000
vn 0.000000 1.000000 -0.000000
vn 0.000000 1.000000 0.000000
vn 0.000000 1.000000 0.000001
vn 0.000000 1.000000 0.000001
vn 0.000000 1.000000 -0.000001
vn 0.000000 1.000000 -0.000001
vn 0.000000 -1.000000 0.000000
vn 0.000000 1.000000 0.000000
vn 0.000000 1.000000 -0.000003
vn 0.000000 1.000000 -0.000001
vn 0.000000 1.000000 0.000003
vn 0.000000 1.000000 -0.000007
vn 0.000000 1.000000 -0.000007
vn 0.000000 1.000000 0.000000
vn 0.000000 1.000000 -0.000003
vn 0.000000 1.000000 -0.000003
vn 0.000000 1.000000 0.000000
vn 0.000000 1.000000 0.000007
vn 0.431328 -0.679345 -0.593672
vn 0.431328 -0.679345 -0.593672
vn 0.431328 -0.679345 -0.593672
vn 0.431328 -0.679345 -0.593672
vn -0.000000 -0.679345 -0.733819
vn -0.000000 -0.679345 -0.733819
vn -0.000000 -0.679345 -0.733819
vn -0.000000 -0.679345 -0.733819
vn -0.431328 -0.679345 -0.593672
vn -0.431328 -0.679345 -0.593672
vn -0.431328 -0.679345 -0.593672
vn -0.431328 -0.679345 -0.593672
vn -0.697904 -0.679345 -0.226763
vn -0.697904 -0.679345 -0.226763
vn -0.697904 -0.679345 -0.226763
vn -0.697904 -0.679345 -0.226763
vn -0.697904 -0.679344 0.226763
vn -0.697904 -0.679344 0.226763
vn -0.697904 -0.679344 0.226763
vn -0.697904 -0.679344 0.226763
vn -0.431328 -0.679345 0.593672
vn -0.431328 -0.679345 0.593672
vn -0.431328 -0.679345 0.593672
vn -0.431328 -0.679345 0.593672
vn 0.000000 -0.679345 0.733819
vn 0.000000 -0.679345 0.733819
vn 0.000000 -0.679345 0.733819
vn 0.000000 -0.679345 0.733819
vn 0.431328 -0.679345 0.593673
vn 0.431328 -0.679345 0.593673
vn 0.431328 -0.679345 0.593672
vn 0.431328 -0.679345 0.593673
vn 0.697904 -0.679345 0.226763
vn 0.697904 -0.679345 0.226763
vn 0.697904 -0.679345 0.226763
vn 0.697904 -0.679345 0.226763
vn 0.697904 -0.679345 -0.226763
vn 0.697904 -0.679345 -0.226762
vn 0.697904 -0.679345 -0.226763
vn 0.697904 -0.679345 -0.226762
vn 0.567536 -0.260209 -0.781149
vn 0.567536 -0.260209 -0.781149
vn 0.567536 -0.260209 -0.781149
vn 0.567536 -0.260209 -0.781149
vn -0.000000 -0.260211 -0.965552
vn -0.000000 -0.260211 -0.965552
vn -0.000000 -0.260211 -0.965552
vn -0.000000 -0.260211 -0.965552
vn -0.567538 -0.260210 -0.781148
vn -0.567538 -0.260210 -0.781148
vn -0.567538 -0.260210 -0.781148
vn -0.567538 -0.260210 -0.781148
vn -0.918295 -0.260209 -0.298372
vn -0.918295 -0.260209 -0.298372
vn -0.918295 -0.260209 -0.298372
vn -0.918295 -0.260209 -0.298372
vn -0.918295 -0.260210 0.298371
vn -0.918295 -0.260210 0.298371
vn -0.918295 -0.260210 0.298371
vn -0.918295 -0.260210 0.298371
vn -0.567536 -0.260209 0.781149
vn -0.567536 -0.260209 0.781149
vn -0.567536 -0.260209 0.781149
vn -0.567536 -0.260209 0.781149
vn 0.000000 -0.260209 0.965552
vn 0.000000 -0.260209 0.965552
vn 0.000000 -0.260209 0.965552
vn 0.000000 -0.260209 0.965552
vn 0.567538 -0.260210 0.781148
vn 0.567538 -0.260210 0.781148
vn 0.567538 -0.260210 0.781147
vn 0.567538 -0.260210 0.781147
vn 0.918295 -0.260210 0.298372
vn 0.918295 -0.260210 0.298372
vn 0.918295 -0.260210 0.298372
vn 0.918295 -0.260210 0.298372
vn 0.918295 -0.260210 -0.298372
vn 0.918295 -0.260210 -0.298372
vn 0.918295 -0.260210 -0.298372
vn 0.918295 -0.260210 -0.298372
vn 0.164914 0.959834 -0.226986
vn 0.164914 0.959834 -0.226986
vn 0.164914 0.959834 -0.226986
vn 0.164914 0.959834 -0.226986
vn -0.000000 0.959834 -0.280570
vn -0.000000 0.959834 -0.280570
vn -0.000000 0.959834 -0.280570
vn -0.000000 0.959834 -0.280570
vn -0.164915 0.959834 -0.226985
vn -0.164915 0.959834 -0.226985
vn -0.164915 0.959834 -0.226985
vn -0.164915 0.959834 -0.226985
vn -0.266837 0.959834 -0.086701
vn -0.266837 0.959834 -0.086701
vn -0.266837 0.959834 -0.086701
vn -0.266837 0.959834 -0.086701
vn -0.266837 0.959834 0.086701
vn -0.266837 0.959834 0.086701
vn -0.266837 0.959834 0.086701
vn -0.266837 0.959834 0.086701
vn -0.164915 0.959834 0.226986
vn -0.164915 0.959834 0.226986
vn -0.164915 0.959834 0.226986
vn -0.164915 0.959834 0.226986
vn 0.000000 0.959834 0.280569
vn 0.000000 0.959834 0.280569
vn 0.000000 0.959834 0.280569
vn 0.000000 0.959834 0.280569
vn 0.164915 0.959834 0.226985
vn 0.164915 0.959834 0.226985
vn 0.164915 0.959834 0.226985
vn 0.164915 0.959834 0.226985
vn 0.266837 0.959834 0.086701
vn 0.266837 0.959834 0.086701
vn 0.266837 0.959834 0.086701
vn 0.266837 0.959834 0.086701
vn 0.266838 0.959834 -0.086701
vn 0.266838 0.959834 -0.086701
vn 0.266838 0.959834 -0.086701
vn 0.266838 0.959834 -0.086701
vn 0.516011 0.478862 -0.710228
vn 0.516011 0.478862 -0.710228
vn 0.516011 0.478862 -0.710228
vn 0.516011 0.478862 -0.710228
vn 0.000000 0.478862 -0.877891
vn 0.000000 0.478862 -0.877891
vn 0.000000 0.478861 -0.877890
vn 0.000000 0.478861 -0.877890
vn -0.516011 0.478862 -0.710228
vn -0.516011 0.478862 -0.710228
vn -0.516011 0.478862 -0.710228
vn -0.516011 0.478862 -0.710228
vn -0.834924 0.478862 -0.271282
vn -0.834924 0.478862 -0.271282
vn -0.834924 0.478862 -0.271282
vn -0.834924 0.478862 -0.271282
vn -0.834924 0.478862 0.271282
vn -0.834924 0.478862 0.271282
vn -0.834924 0.478862 0.271282
vn -0.834924 0.478862 0.271282
vn -0.516011 0.478861 0.710228
vn -0.516011 0.478861 0.710228
vn -0.516011 0.478862 0.710228
vn -0.516011 0.478861 0.710228
vn 0.000000 0.478862 0.877890
vn 0.000000 0.478862 0.877890
vn 0.000000 0.478862 0.877890
vn 0.000000 0.478862 0.877890
vn 0.516011 0.478862 0.710228
vn 0.516011 0.478862 0.710228
vn 0.516011 0.478862 0.710228
vn 0.516011 0.478862 0.710228
vn 0.834923 0.478862 0.271283
vn 0.834923 0.478862 0.271283
vn 0.834924 0.478862 0.271283
vn 0.834924 0.478862 0.271283
vn 0.834924 0.478862 -0.271283
vn 0.834924 0.478862 -0.271283
vn 0.834924 0.478862 -0.271283
vn 0.834924 0.478862 -0.271283
vn 0.567859 0.258173 -0.781590
vn 0.567859 0.258173 -0.781590
vn 0.567859 0.258173 -0.781590
vn 0.567859 0.258173 -0.781590
vn -0.000001 0.258173 -0.966099
vn -0.000001 0.258173 -0.966099
vn -0.000001 0.258173 -0.966099
vn -0.000001 0.258173 -0.966099
vn -0.567859 0.258173 -0.781590
vn -0.567859 0.258173 -0.781590
vn -0.567859 0.258173 -0.781590
vn -0.567859 0.258173 -0.781590
vn -0.918814 0.258173 -0.298543
vn -0.918814 0.258173 -0.298543
vn -0.918814 0.258173 -0.298543
vn -0.918814 0.258173 -0.298543
vn -0.918814 0.258173 0.298542
vn -0.918814 0.258173 0.298542
vn -0.918814 0.258173 0.298542
vn -0.918814 0.258173 0.298542
vn -0.567858 0.258173 0.781591
vn -0.567858 0.258173 0.781591
vn -0.567858 0.258173 0.781591
vn -0.567858 0.258173 0.781591
vn -0.000000 0.258173 0.966099
vn -0.000000 0.258173 0.966099
vn -0.000000 0.258173 0.966099
vn -0.000000 0.258173 0.966099
vn 0.567858 0.258173 0.781590
vn 0.567859 0.258173 0.781590
vn 0.567859 0.258173 0.781591
vn 0.567859 0.258173 0.781590
vn 0.918814 0.258173 0.298542
vn 0.918814 0.258173 0.298542
vn 0.918814 0.258173 0.298542
vn 0.918814 0.258173 0.298542
vn 0.918814 0.258173 -0.298542
vn 0.918814 0.258173 -0.298542
vn 0.918814 0.258173 -0.298542
vn 0.918814 0.258173 -0.298542
vn -0.586803 0.057788 0.807665
vn -0.586803 0.057788 0.807665
vn -0.586803 0.057788 0.807665
vn -0.586803 0.057788 0.807665
vn -0.949467 0.057787 0.308501
vn -0.949467 0.057787 0.308501
vn -0.949467 0.057787 0.308501
vn -0.949467 0.057787 0.308501
vn -0.949467 0.057787 -0.308500
vn -0.949467 0.057787 -0.308500
vn -0.949467 0.057787 -0.308500
vn -0.949467 0.057787 -0.308500
vn -0.586803 0.057787 -0.807665
vn -0.586803 0.057787 -0.807665
vn -0.586803 0.057787 -0.807665
vn -0.586803 0.057787 -0.807665
vn -0.000000 0.057788 -0.998329
vn -0.000000 0.057788 -0.998329
vn -0.000000 0.057788 -0.998329
vn -0.000000 0.057788 -0.998329
vn 0.586803 0.057787 -0.807665
vn 0.586803 0.057787 -0.807665
vn 0.586803 0.057787 -0.807665
vn 0.586803 0.057787 -0.807665
vn 0.949467 0.057788 -0.308500
vn 0.949467 0.057788 -0.308500
vn 0.949467 0.057788 -0.308500
vn 0.949467 0.057788 -0.308500
vn 0.949467 0.057787 0.308501
vn 0.949467 0.057787 0.308501
vn 0.949467 0.057787 0.308501
vn 0.949467 0.057787 0.308501
vn 0.586803 0.057787 0.807665
vn 0.586803 0.057787 0.807665
vn 0.586803 0.057787 0.807665
vn 0.586803 0.057787 0.807665
vn 0.000000 0.057788 0.998329
vn 0.000000 0.057788 0.998329
vn 0.000000 0.057788 0.998329
vn 0.000000 0.057788 0.998329
vn 0.029957 0.998700 -0.041233
vn 0.029957 0.998700 -0.041233
vn 0.029957 0.998700 -0.041233
vn 0.029957 0.998700 -0.041233
vn 0.029157 -0.998769 -0.040130
vn 0.029157 -0.998769 -0.040130
vn 0.029157 -0.998769 -0.040130
vn 0.029157 -0.998769 -0.040130
vn -0.000000 0.998700 -0.050972
vn -0.000000 0.998700 -0.050972
vn -0.000000 0.998700 -0.050972
vn -0.000000 0.998700 -0.050972
vn -0.000000 -0.998769 -0.049611
vn -0.000000 -0.998769 -0.049611
vn -0.000000 -0.998769 -0.049611
vn -0.000000 -0.998769 -0.049611
vn -0.029957 0.998700 -0.041237
vn -0.029957 0.998700 -0.041237
vn -0.029957 0.998700 -0.041237
vn -0.029957 0.998700 -0.041237
vn -0.029157 -0.998769 -0.040128
vn -0.029157 -0.998769 -0.040128
vn -0.029157 -0.998769 -0.040128
vn -0.029157 -0.998769 -0.040128
vn -0.048471 0.998700 -0.015749
vn -0.048471 0.998700 -0.015749
vn -0.048471 0.998700 -0.015749
vn -0.048471 0.998700 -0.015749
vn -0.047177 -0.998769 -0.015328
vn -0.047177 -0.998769 -0.015328
vn -0.047177 -0.998769 -0.015328
vn -0.047177 -0.998769 -0.015328
vn -0.048471 0.998700 0.015750
vn -0.048471 0.998700 0.015750
vn -0.048471 0.998700 0.015750
vn -0.048471 0.998700 0.015750
vn -0.047177 -0.998769 0.015329
vn -0.047177 -0.998769 0.015329
vn -0.047177 -0.998769 0.015329
vn -0.047177 -0.998769 0.015329
vn -0.029957 0.998701 0.041229
vn -0.029957 0.998701 0.041229
vn -0.029957 0.998701 0.041229
vn -0.029957 0.998701 0.041229
vn -0.029157 -0.998769 0.040130
vn -0.029157 -0.998769 0.040130
vn -0.029157 -0.998769 0.040130
vn -0.029157 -0.998769 0.040130
vn 0.000000 0.998701 0.050964
vn 0.000000 0.998701 0.050964
vn 0.000000 0.998701 0.050964
vn 0.000000 0.998700 0.050964
vn 0.000000 -0.998769 0.049604
vn 0.000000 -0.998769 0.049604
vn 0.000000 -0.998769 0.049604
vn 0.000000 -0.998769 0.049604
vn 0.029957 0.998700 0.041233
vn 0.029957 0.998700 0.041233
vn 0.029957 0.998700 0.041233
vn 0.029957 0.998700 0.041233
vn 0.029157 -0.998769 0.040128
vn 0.029157 -0.998769 0.040128
vn 0.029157 -0.998769 0.040128
vn 0.029157 -0.998769 0.040128
vn 0.048471 0.998700 0.015749
vn 0.048471 0.998700 0.015749
vn 0.048471 0.998700 0.015749
vn 0.048471 0.998700 0.015749
vn 0.047177 -0.998769 0.015327
vn 0.047177 -0.998769 0.015327
vn 0.047177 -0.998769 0.015327
vn 0.047177 -0.998769 0.015327
vn 0.048471 0.998700 -0.015750
vn 0.048471 0.998700 -0.015750
vn 0.048471 0.998700 -0.015750
vn 0.048471 0.998700 -0.015750
vn 0.047177 -0.998769 -0.015329
vn 0.047177 -0.998769 -0.015329
vn 0.047177 -0.998769 -0.015329
vn 0.047177 -0.998769 -0.015329
f 21/1/1 22/2/2 23/65/3 24/66/4
f 22/2/2 25/3/5 26/67/6 23/65/3
f 25/3/5 27/4/7 28/68/8 26/67/6
f 27/4/7 29/5/9 30/69/10 28/68/8
f 29/5/9 31/6/11 32/70/12 30/69/10
f 31/6/11 33/7/13 34/71/14 32/70/12
f 33/7/13 35/8/15 36/72/16 34/71/14
f 35/8/15 37/9/17 38/73/18 36/72/16
f 37/9/17 39/10/19 40/74/20 38/73/18
f 39/10/19 21/1/1 24/66/4 40/74/20
f 1/21/21 2/22/22 12/33/23 11/32/24
f 2/22/25 3/23/26 13/34/27 12/33/28
f 3/23/29 4/24/30 14/35/31 13/34/32
f 4/24/33 5/25/34 15/36/35 14/35/36
f 5/25/37 6/26/38 16/37/39 15/36/40
f 6/26/41 7/27/42 17/38/43 16/37/44
f 7/27/45 8/28/46 18/39/47 17/38/48
f 8/28/49 9/29/50 19/40/51 18/39/52
f 9/29/53 10/30/54 20/41/55 19/40/56
f 10/30/57 1/31/58 11/42/59 20/41/60
f 62/95/61 63/96/62 64/60/63 65/61/64
f 63/96/62 66/97/65 67/59/66 64/60/63
f 66/97/65 68/98/67 69/58/68 67/59/66
f 68/98/67 70/99/69 71/57/70 69/58/68
f 70/99/69 72/100/71 73/56/72 71/57/70
f 72/100/71 74/101/73 75/55/74 73/56/72
f 74/101/73 76/102/75 77/54/76 75/55/74
f 76/102/75 78/103/77 79/53/78 77/54/76
f 78/103/77 80/104/79 81/62/80 79/53/78
f 80/104/79 62/95/61 65/61/64 81/62/80
f 22/2/2 21/1/1 41/63/81
f 25/3/5 22/2/2 41/63/81
f 27/4/7 25/3/5 41/63/81
f 29/5/9 27/4/7 41/63/81
f 31/6/11 29/5/9 41/63/81
f 33/7/13 31/6/11 41/63/81
f 35/8/15 33/7/13 41/63/81
f 37/9/17 35/8/15 41/63/81
f 39/10/19 37/9/17 41/63/81
f 21/1/1 39/10/19 41/63/81
f 82/105/82 83/106/83 84/64/84
f 83/106/83 85/107/85 84/64/84
f 85/107/85 86/108/86 84/64/84
f 86/108/86 87/109/87 84/64/84
f 87/109/87 88/110/88 84/64/84
f 88/110/88 89/111/89 84/64/84
f 89/111/89 90/112/90 84/64/84
f 90/112/90 91/113/91 84/64/84
f 91/113/91 92/114/92 84/64/84
f 92/114/92 82/105/82 84/64/84
f 2/12/93 1/11/94 24/66/95 23/65/96
f 3/13/97 2/12/98 23/65/99 26/67/100
f 4/14/101 3/13/102 26/67/103 28/68/104
f 5/15/105 4/14/106 28/68/107 30/69/108
f 6/16/109 5/15/110 30/69/111 32/70/112
f 7/17/113 6/16/114 32/70/115 34/71/116
f 8/18/117 7/17/118 34/71/119 36/72/120
f 9/19/121 8/18/122 36/72/123 38/73/124
f 10/20/125 9/19/126 38/73/127 40/74/128
f 1/11/129 10/20/130 40/74/131 24/66/132
f 103/125/133 104/126/134 105/127/135 106/128/136
f 104/126/137 107/129/138 108/130/139 105/127/140
f 107/129/141 109/131/142 110/132/143 108/130/144
f 109/131/145 111/133/146 112/134/147 110/132/148
f 111/133/149 113/135/150 114/136/151 112/134/152
f 113/135/153 115/137/154 116/138/155 114/136/156
f 115/137/157 117/139/158 118/140/159 116/138/160
f 117/139/161 119/141/162 120/142/163 118/140/164
f 119/141/165 121/143/166 122/144/167 120/142/168
f 121/143/169 103/125/170 106/128/171 122/144/172
f 42/75/173 43/76/174 53/86/175 52/85/176
f 43/76/177 44/77/178 54/87/179 53/86/180
f 44/77/181 45/78/182 55/88/183 54/87/184
f 45/78/185 46/79/186 56/89/187 55/88/188
f 46/79/189 47/80/190 57/90/191 56/89/192
f 47/80/193 48/81/194 58/91/195 57/90/196
f 48/81/197 49/82/198 59/92/199 58/91/200
f 49/82/201 50/83/202 60/93/203 59/92/204
f 50/83/205 51/84/206 61/94/207 60/93/208
f 51/84/209 42/75/210 52/85/211 61/94/212
f 52/85/213 53/86/214 63/96/215 62/95/216
f 53/86/217 54/87/218 66/97/219 63/96/220
f 54/87/221 55/88/222 68/98/223 66/97/224
f 55/88/225 56/89/226 70/99/227 68/98/228
f 56/89/229 57/90/230 72/100/231 70/99/232
f 57/90/233 58/91/234 74/101/235 72/100/236
f 58/91/237 59/92/238 76/102/239 74/101/240
f 59/92/241 60/93/242 78/103/243 76/102/244
f 60/93/245 61/94/246 80/104/247 78/103/248
f 61/94/249 52/85/250 62/95/251 80/104/252
f 65/61/253 64/60/254 83/106/255 82/105/256
f 64/60/257 67/59/258 85/107/259 83/106/260
f 67/59/261 69/58/262 86/108/263 85/107/264
f 69/58/265 71/57/266 87/109/267 86/108/268
f 71/57/269 73/56/270 88/110/271 87/109/272
f 73/56/273 75/55/274 89/111/275 88/110/276
f 75/55/277 77/54/278 90/112/279 89/111/280
f 77/54/281 79/53/282 91/113/283 90/112/284
f 79/53/285 81/62/286 92/114/287 91/113/288
f 81/62/289 65/61/290 82/105/291 92/114/292
f 94/116/293 93/115/294 48/81/295 47/80/296
f 95/117/297 94/116/298 47/80/299 46/79/300
f 96/118/301 95/117/302 46/79/303 45/78/304
f 97/119/305 96/118/306 45/78/307 44/77/308
f 98/120/309 97/119/310 44/77/311 43/76/312
f 99/121/313 98/120/314 43/76/315 42/75/316
f 100/122/317 99/121/318 42/75/319 51/84/320
f 101/123/321 100/122/322 51/84/323 50/83/324
f 102/124/325 101/123/326 50/83/327 49/82/328
f 93/115/329 102/124/330 49/82/331 48/81/332
f 11/51/333 12/50/334 104/126/335 103/125/336
f 98/120/337 99/121/338 106/128/339 105/127/340
f 12/50/341 13/49/342 107/129/343 104/126/344
f 97/119/345 98/120/346 105/127/347 108/130/348
f 13/49/349 14/48/350 109/131/351 107/129/352
f 96/118/353 97/119/354 108/130/355 110/132/356
f 14/48/357 15/47/358 111/133/359 109/131/360
f 95/117/361 96/118/362 110/132/363 112/134/364
f 15/47/365 16/46/366 113/135/367 111/133/368
f 94/116/369 95/117/370 112/134/371 114/136/372
f 16/46/373 17/45/374 115/137/375 113/135/376
f 93/115/377 94/116/378 114/136/379 116/138/380
f 17/45/381 18/44/382 117/139/383 115/137/384
f 102/124/385 93/115/386 116/138/387 118/140/388
f 18/44/389 19/43/390 119/141/391 117/139/392
f 101/123/393 102/124/394 118/140/395 120/142/396
f 19/43/397 20/52/398 121/143/399 119/141/400
f 100/122/401 101/123/402 120/142/403 122/144/404
f 20/52/405 11/51/406 103/125/407 121/143/408
f 99/121/409 100/122/410 122/144/411 106/128/412
