# This file uses centimeters as units for non-parametric coordinates.

v 6.240964 -0.196709 0.196709
v 6.240964 0.196709 0.196709
v 6.240964 0.196709 -0.196709
v 6.240964 -0.196709 -0.196709
v -5.097088 -0.259517 -0.196709
v -5.097088 -0.259517 0.196709
v -5.099268 0.133895 0.196709
v -5.099268 0.133895 -0.196709
vt 0.375000 0.000000
vt 0.375000 0.250000
vt 0.125000 0.000000
vt 0.125000 0.250000
vt 0.125000 0.000000
vt 0.375000 0.000000
vt 0.375000 0.250000
vt 0.125000 0.250000
vn 0.005540 -0.999985 0.000000
vn 0.005540 -0.999985 0.000000
vn 0.005540 -0.999985 0.000000
vn 0.005540 -0.999985 0.000000
vn 0.000000 0.000000 1.000000
vn 0.000000 0.000000 1.000000
vn 0.000000 0.000000 1.000000
vn 0.000000 0.000000 1.000000
vn -0.005539 0.999985 0.000000
vn -0.005539 0.999985 0.000000
vn -0.005539 0.999985 0.000000
vn -0.005539 0.999985 0.000000
vn -0.000000 0.000000 -1.000000
vn -0.000000 0.000000 -1.000000
vn -0.000000 0.000000 -1.000000
vn -0.000000 0.000000 -1.000000
vn -0.999985 -0.005541 0.000000
vn -0.999985 -0.005541 0.000000
vn -0.999985 -0.005541 0.000000
vn -0.999985 -0.005541 0.000000
vn 1.000000 0.000000 0.000000
vn 1.000000 0.000000 0.000000
vn 1.000000 0.000000 0.000000
vn 1.000000 0.000000 0.000000
f 4/3/1 1/1/2 6/6/3 5/5/4
f 1/1/5 2/2/6 7/7/7 6/6/8
f 2/2/9 3/4/10 8/8/11 7/7/12
f 3/4/13 4/3/14 5/5/15 8/8/16
f 6/6/17 7/7/18 8/8/19 5/5/20
f 2/2/21 1/1/22 4/3/23 3/4/24
