# This file uses centimeters as units for non-parametric coordinates.

v 1.490309 -0.171644 -1.082773
v 0.569247 -0.171644 -1.751964
v -0.569248 -0.171644 -1.751964
v -1.490310 -0.171644 -1.082773
v -1.842124 -0.171644 0.000000
v -1.490309 -0.171644 1.082773
v -0.569247 -0.171644 1.751964
v 0.569248 -0.171644 1.751964
v 1.490309 -0.171644 1.082773
v 1.842124 -0.171644 0.000000
v 1.490309 0.171644 -1.082773
v 0.569247 0.171644 -1.751964
v -0.569248 0.171644 -1.751964
v -1.490310 0.171644 -1.082773
v -1.842124 0.171644 0.000000
v -1.490309 0.171644 1.082773
v -0.569247 0.171644 1.751964
v 0.569248 0.171644 1.751964
v 1.490309 0.171644 1.082773
v 1.842124 0.171644 0.000000
v 0.000000 -0.238621 0.000000
v 0.000000 0.238621 0.000000
vt 0.652124 0.327891
vt 0.758790 0.327891
vt 0.758790 0.448873
vt 0.652124 0.448873
vt 0.865457 0.327891
vt 0.865457 0.448873
vt 0.586200 0.327891
vt 0.586200 0.448873
vt 0.931380 0.327891
vt 0.931380 0.448873
vt 0.183121 0.327891
vt 0.289787 0.327891
vt 0.289787 0.448873
vt 0.183121 0.448873
vt 0.396454 0.327891
vt 0.396454 0.448873
vt 0.117197 0.327891
vt 0.117197 0.448873
vt 0.462377 0.327891
vt 0.462377 0.448873
vt 0.446506 0.636054
vt 0.512429 0.545318
vt 0.619096 0.692132
vt 0.619096 0.510660
vt 0.446506 0.748210
vt 0.725762 0.545318
vt 0.512429 0.838946
vt 0.791686 0.636054
vt 0.619096 0.873604
vt 0.791686 0.748210
vt 0.725762 0.838946
vt 0.375545 0.545318
vt 0.441468 0.636054
vt 0.268878 0.692132
vt 0.441468 0.748210
vt 0.268878 0.510660
vt 0.375545 0.838946
vt 0.162212 0.545318
vt 0.268878 0.873604
vt 0.096288 0.636054
vt 0.162212 0.838946
vt 0.096288 0.748210
vt 0.579945 0.448873
vt 0.467789 0.448873
vt 0.467789 0.327891
vt 0.579945 0.327891
vt 0.822799 0.449965
vt 0.934955 0.449965
vt 0.934955 0.570947
vt 0.822799 0.570947
vn 0.587785 0.000000 -0.809017
vn 0.587785 0.000000 -0.809017
vn 0.587785 0.000000 -0.809017
vn 0.587785 0.000000 -0.809017
vn -0.000000 0.000000 -1.000000
vn -0.000000 0.000000 -1.000000
vn -0.000000 0.000000 -1.000000
vn -0.000000 0.000000 -1.000000
vn -0.587785 0.000000 -0.809017
vn -0.587785 0.000000 -0.809017
vn -0.587785 0.000000 -0.809017
vn -0.587785 0.000000 -0.809017
vn -0.951057 0.000000 -0.309017
vn -0.951057 0.000000 -0.309017
vn -0.951057 0.000000 -0.309017
vn -0.951057 0.000000 -0.309017
vn -0.951057 0.000000 0.309017
vn -0.951057 0.000000 0.309017
vn -0.951057 0.000000 0.309017
vn -0.951057 0.000000 0.309017
vn -0.587785 0.000000 0.809017
vn -0.587785 0.000000 0.809017
vn -0.587785 0.000000 0.809017
vn -0.587785 0.000000 0.809017
vn 0.000000 0.000000 1.000000
vn 0.000000 0.000000 1.000000
vn 0.000000 0.000000 1.000000
vn 0.000000 0.000000 1.000000
vn 0.587785 0.000000 0.809017
vn 0.587785 0.000000 0.809017
vn 0.587785 0.000000 0.809017
vn 0.587785 0.000000 0.809017
vn 0.951057 0.000000 0.309017
vn 0.951057 0.000000 0.309017
vn 0.951057 0.000000 0.309017
vn 0.951057 0.000000 0.309017
vn 0.951057 0.000000 -0.309017
vn 0.951057 0.000000 -0.309017
vn 0.951057 0.000000 -0.309017
vn 0.951057 0.000000 -0.309017
vn 0.011228 -0.999340 -0.034556
vn 0.029395 -0.999340 -0.021357
vn 0.000000 -1.000000 0.000000
vn -0.011228 -0.999340 -0.034556
vn -0.029395 -0.999340 -0.021357
vn -0.036335 -0.999340 0.000000
vn -0.029395 -0.999340 0.021357
vn -0.011228 -0.999340 0.034556
vn 0.011228 -0.999340 0.034556
vn 0.029395 -0.999340 0.021357
vn 0.036335 -0.999340 -0.000000
vn 0.029395 0.999340 -0.021357
vn 0.011228 0.999340 -0.034556
vn 0.000000 1.000000 -0.000000
vn -0.011228 0.999340 -0.034556
vn -0.029395 0.999340 -0.021357
vn -0.036335 0.999340 0.000000
vn -0.029395 0.999340 0.021357
vn -0.011228 0.999340 0.034556
vn 0.011228 0.999340 0.034556
vn 0.029395 0.999340 0.021357
vn 0.036335 0.999340 -0.000000
f 1/15/1 2/19/2 12/20/3 11/16/4
f 2/43/5 3/44/6 13/45/7 12/46/8
f 3/7/9 4/1/10 14/4/11 13/8/12
f 4/1/13 5/2/14 15/3/15 14/4/16
f 5/2/17 6/5/18 16/6/19 15/3/20
f 6/5/21 7/9/22 17/10/23 16/6/24
f 7/47/25 8/48/26 18/49/27 17/50/28
f 8/17/29 9/11/30 19/14/31 18/18/32
f 9/11/33 10/12/34 20/13/35 19/14/36
f 10/12/37 1/15/38 11/16/39 20/13/40
f 2/21/41 1/22/42 21/23/43
f 3/25/44 2/21/41 21/23/43
f 4/27/45 3/25/44 21/23/43
f 5/29/46 4/27/45 21/23/43
f 6/31/47 5/29/46 21/23/43
f 7/30/48 6/31/47 21/23/43
f 8/28/49 7/30/48 21/23/43
f 9/26/50 8/28/49 21/23/43
f 10/24/51 9/26/50 21/23/43
f 1/22/42 10/24/51 21/23/43
f 11/32/52 12/33/53 22/34/54
f 12/33/53 13/35/55 22/34/54
f 13/35/55 14/37/56 22/34/54
f 14/37/56 15/39/57 22/34/54
f 15/39/57 16/41/58 22/34/54
f 16/41/58 17/42/59 22/34/54
f 17/42/59 18/40/60 22/34/54
f 18/40/60 19/38/61 22/34/54
f 19/38/61 20/36/62 22/34/54
f 20/36/62 11/32/52 22/34/54
