# This file uses centimeters as units for non-parametric coordinates.

v -6.157839 -0.500000 8.830525
v 6.157839 -0.500000 8.830525
v -6.157839 0.500000 8.830525
v 6.157839 0.500000 8.830525
v -6.157839 0.500000 -8.830525
v 6.157839 0.500000 -8.830525
v -6.157839 -0.500000 -8.830525
v 6.157839 -0.500000 -8.830525
v 6.157839 0.500000 7.843162
v -6.157839 0.500000 7.843162
v -6.157839 -0.500000 7.843162
v 6.157839 -0.500000 7.843162
v 6.157839 0.500000 -7.727204
v -6.157839 0.500000 -7.727204
v -6.157839 -0.500000 -7.727204
v 6.157839 -0.500000 -7.727204
v 5.222302 0.500000 8.830525
v 5.222302 0.500000 7.843162
v 5.222302 0.500000 -7.727204
v 5.222302 0.500000 -8.830525
v 5.222302 -0.500000 -8.830525
v 5.222302 -0.500000 -7.727204
v 5.222302 -0.500000 7.843162
v 5.222302 -0.500000 8.830525
v 1.771068 6.916717 8.830525
v 2.706605 6.916717 8.830525
v 2.706605 6.916717 7.843162
v 1.771068 6.916717 7.843162
v 1.771068 6.916717 -7.727204
v 1.771068 6.916717 -8.830525
v 2.706605 6.916717 -7.727204
v 2.706605 6.916717 -8.830525
v 1.771068 7.860608 8.830525
v 2.706605 7.860608 8.830525
v 2.706605 7.860608 7.843162
v 1.771068 7.860608 7.843162
v 1.771068 7.860608 -7.727204
v 1.771068 7.860608 -8.830525
v 2.706605 7.860608 -7.727204
v 2.706605 7.860608 -8.830525
v -5.072475 6.916717 8.830525
v -5.072475 6.916717 7.843162
v -5.072475 7.860608 8.830525
v -5.072475 7.860608 7.843162
v -5.072475 6.916717 -7.727204
v -5.072475 6.916717 -8.830525
v -5.072475 7.860608 -7.727204
v -5.072475 7.860608 -8.830525
v -6.042413 6.916717 8.830525
v -6.042413 6.916717 7.843162
v -6.042413 7.860608 8.830525
v -6.042413 7.860608 7.843162
v -6.042413 6.916717 -7.727204
v -6.042413 6.916717 -8.830525
v -6.042413 7.860608 -7.727204
v -6.042413 7.860608 -8.830525
v -5.072475 6.916717 -0.476975
v -5.072475 7.860608 -0.476975
v -6.042413 6.916717 -0.476975
v -6.042413 7.860608 -0.476975
v 2.254792 7.860608 -9.051087
v 2.254792 6.916717 -9.051087
v 5.706026 0.500000 -9.051087
v 5.706026 -0.500000 -8.830525
v 5.706026 -0.500000 -7.727204
v 5.706026 -0.500000 7.843162
v 5.706026 -0.500000 8.830525
v 5.706026 0.500000 8.982180
v 2.254792 6.916717 8.982180
v 2.254792 7.860608 8.982180
v 2.254792 7.860608 7.691508
v 2.254792 6.916717 7.691508
v 5.706026 0.500000 7.691508
v 5.706026 0.500000 -7.506644
v 2.254792 6.916717 -7.506644
v 2.254792 7.860608 -7.506644
vt 0.037728 0.047293
vt 0.385417 0.047293
vt 0.385417 0.068329
vt 0.037728 0.068329
vt 0.385417 0.400059
vt 0.037728 0.400059
vt 0.414000 0.068329
vt 0.414000 0.400059
vt 0.385417 0.423566
vt 0.037728 0.423566
vt 0.231680 0.629089
vt 0.239006 0.629089
vt 0.239006 0.760132
vt 0.231680 0.760132
vt 0.354536 0.629089
vt 0.354536 0.760132
vt 0.362723 0.629089
vt 0.362723 0.760132
vt 0.222581 0.629090
vt 0.229908 0.629090
vt 0.229908 0.760132
vt 0.222581 0.760132
vt 0.107051 0.629090
vt 0.107051 0.760132
vt 0.098865 0.629090
vt 0.098865 0.760132
vt 0.074985 0.496894
vt 0.196073 0.496894
vt 0.196073 0.627937
vt 0.074985 0.627937
vt 0.206027 0.496894
vt 0.206027 0.627937
vt 0.207916 0.627936
vt 0.207916 0.506848
vt 0.338958 0.506848
vt 0.338958 0.627936
vt 0.207916 0.496894
vt 0.338958 0.496894
vt 0.492982 0.448726
vt 0.881576 0.448726
vt 0.881576 0.472237
vt 0.492982 0.472237
vt 0.492982 0.077969
vt 0.881576 0.077969
vt 0.913522 0.448726
vt 0.913522 0.472237
vt 0.492982 0.051697
vt 0.881576 0.051697
vt 0.913522 0.077969
vt 0.913522 0.051697
vt 0.207916 0.501701
vt 0.898094 0.051697
vt 0.338958 0.501701
vt 0.898094 0.077969
vt 0.898094 0.448726
vt 0.201220 0.496894
vt 0.898094 0.472237
vt 0.201220 0.627937
vt 0.400196 0.068329
vt 0.400196 0.400059
vt 0.682222 0.566986
vt 0.685080 0.566986
vt 0.685080 0.895007
vt 0.682222 0.895007
vt 0.685080 0.943258
vt 0.682222 0.943258
vt 0.844992 0.566986
vt 0.847850 0.566986
vt 0.847850 0.895007
vt 0.844992 0.895007
vt 0.850533 0.566986
vt 0.853727 0.566986
vt 0.853687 0.895006
vt 0.850533 0.895007
vt 0.786118 0.566986
vt 0.789312 0.566986
vt 0.789312 0.895007
vt 0.786144 0.895008
vt 0.789312 0.943258
vt 0.786158 0.943256
vt 0.894862 0.569843
vt 0.894862 0.566986
vt 0.943114 0.566986
vt 0.943114 0.569843
vt 0.943114 0.593926
vt 0.894862 0.593926
vt 0.943114 0.614912
vt 0.894862 0.614912
vt 0.894862 0.618105
vt 0.943114 0.618105
vt 0.937726 0.667775
vt 0.937726 0.619524
vt 0.961808 0.619524
vt 0.961808 0.667775
vt 0.982794 0.619524
vt 0.982794 0.667775
vt 0.888507 0.567424
vt 0.890515 0.566986
vt 0.890515 0.570721
vt 0.888507 0.570282
vt 0.892390 0.567424
vt 0.892390 0.570282
vt 0.860101 0.570282
vt 0.860101 0.567424
vt 0.856075 0.570282
vt 0.856075 0.567424
vt 0.860101 0.594365
vt 0.856075 0.594365
vt 0.860101 0.615351
vt 0.856075 0.615351
vt 0.860101 0.618544
vt 0.856075 0.618544
vt 0.888505 0.615373
vt 0.888507 0.618544
vt 0.890514 0.614732
vt 0.890515 0.619183
vt 0.892325 0.615383
vt 0.892390 0.618544
vt 0.977857 0.615247
vt 0.977857 0.618105
vt 0.949451 0.618105
vt 0.949451 0.615247
vt 0.945425 0.618105
vt 0.945425 0.615247
vt 0.945425 0.591165
vt 0.949451 0.591165
vt 0.945425 0.570179
vt 0.949451 0.570179
vt 0.949451 0.566986
vt 0.945425 0.566986
vt 0.977857 0.566986
vt 0.977852 0.570139
vt 0.675577 0.566986
vt 0.677585 0.566986
vt 0.663260 0.895007
vt 0.661252 0.895007
vt 0.679461 0.566986
vt 0.665135 0.895007
vt 0.663260 0.943258
vt 0.661252 0.943258
vt 0.665135 0.943258
vt 0.632846 0.943258
vt 0.632846 0.895007
vt 0.628820 0.943258
vt 0.628820 0.895007
vt 0.732503 0.943258
vt 0.730495 0.943258
vt 0.716170 0.615237
vt 0.718177 0.615237
vt 0.716170 0.566986
vt 0.718177 0.566986
vt 0.734378 0.943258
vt 0.720053 0.615237
vt 0.687764 0.615237
vt 0.687764 0.566986
vt 0.720053 0.566986
vt 0.779672 0.566986
vt 0.781680 0.566986
vt 0.767345 0.895006
vt 0.765343 0.895006
vt 0.783556 0.566986
vt 0.769172 0.895004
vt 0.765342 0.943255
vt 0.736941 0.943258
vt 0.736941 0.895007
vt 0.840425 0.943258
vt 0.838417 0.943258
vt 0.824091 0.615237
vt 0.826099 0.615237
vt 0.824091 0.566986
vt 0.826099 0.566986
vt 0.842300 0.943258
vt 0.827975 0.615237
vt 0.795685 0.615237
vt 0.795685 0.566986
vt 0.827975 0.566986
vt 0.791659 0.615237
vt 0.791659 0.566986
vt 0.718167 0.615237
vt 0.716200 0.615236
vt 0.716206 0.566987
vt 0.718177 0.566986
vt 0.720015 0.615236
vt 0.720019 0.566987
vn 0.000000 0.000000 1.000000
vn -0.006391 -0.003092 0.999975
vn -0.006391 -0.003092 0.999975
vn 0.000000 0.000000 1.000000
vn 0.000000 1.000000 0.000000
vn 0.000000 1.000000 0.000000
vn 0.000000 1.000000 0.000000
vn 0.000000 1.000000 0.000000
vn 0.000000 0.000000 -1.000000
vn -0.009295 -0.004496 -0.999947
vn -0.009295 -0.004496 -0.999947
vn 0.000000 0.000000 -1.000000
vn 0.000000 -1.000000 0.000000
vn 0.000000 -1.000000 0.000000
vn 0.000000 -1.000000 0.000000
vn 0.000000 -1.000000 0.000000
vn 1.000000 0.000000 0.000000
vn 1.000000 0.000000 0.000000
vn 1.000000 0.000000 0.000000
vn 1.000000 0.000000 0.000000
vn -1.000000 0.000000 0.000000
vn -1.000000 0.000000 0.000000
vn -1.000000 0.000000 0.000000
vn -1.000000 0.000000 0.000000
vn 0.000000 1.000000 0.000000
vn 0.000000 1.000000 0.000000
vn -1.000000 0.000000 0.000000
vn -1.000000 0.000000 0.000000
vn 0.000000 -1.000000 0.000000
vn 0.000000 -1.000000 0.000000
vn 1.000000 0.000000 0.000000
vn 1.000000 0.000000 0.000000
vn 0.000000 1.000000 0.000000
vn 0.000000 1.000000 0.000000
vn -1.000000 0.000000 0.000000
vn -1.000000 0.000000 0.000000
vn 0.000000 -1.000000 0.000000
vn 0.000000 -1.000000 0.000000
vn 1.000000 0.000000 0.000000
vn 1.000000 0.000000 0.000000
vn 0.000000 1.000000 0.000000
vn 0.000000 1.000000 0.000000
vn 0.000000 1.000000 0.000000
vn 0.000000 1.000000 0.000000
vn 0.000000 1.000000 0.000000
vn 0.000000 1.000000 0.000000
vn 0.000000 1.000000 0.000000
vn 0.000000 1.000000 0.000000
vn 0.000000 1.000000 0.000000
vn 0.000000 1.000000 0.000000
vn -0.000018 -0.109616 -0.993974
vn 0.000000 -0.109616 -0.993974
vn 0.000000 -1.000000 0.000000
vn 0.000000 -1.000000 0.000000
vn 0.000000 -1.000000 0.000000
vn 0.000000 -1.000000 0.000000
vn 0.000000 -0.075610 0.997137
vn -0.000006 -0.075610 0.997137
vn -0.295358 -0.158858 0.942087
vn 0.008794 0.004730 0.999950
vn -0.008777 -0.004720 0.999950
vn -0.295358 -0.158858 0.942087
vn 0.880696 0.473682 0.000000
vn 0.880696 0.473682 0.000000
vn 0.880696 0.473682 0.000000
vn 0.880696 0.473682 0.000000
vn 0.008793 0.004730 -0.999950
vn -0.295357 -0.158858 -0.942087
vn -0.295357 -0.158858 -0.942087
vn -0.008777 -0.004720 -0.999950
vn -0.880696 -0.473682 0.000000
vn -0.880696 -0.473682 0.000000
vn -0.880696 -0.473682 0.000000
vn -0.880696 -0.473682 0.000000
vn -0.880696 -0.473682 0.000000
vn -0.880696 -0.473682 0.000000
vn -0.880696 -0.473682 0.000000
vn -0.880696 -0.473682 0.000000
vn -0.404914 -0.217783 0.888040
vn 0.012454 0.006699 0.999900
vn -0.012430 -0.006685 0.999900
vn -0.404914 -0.217783 0.888040
vn 0.880696 0.473682 0.000000
vn 0.880696 0.473682 0.000000
vn 0.880696 0.473682 0.000000
vn 0.880696 0.473682 0.000000
vn 0.012454 0.006699 -0.999900
vn -0.404916 -0.217784 -0.888039
vn -0.404916 -0.217784 -0.888039
vn -0.012430 -0.006685 -0.999900
vn -0.299156 0.000000 0.954204
vn -0.000000 0.000000 1.000000
vn -0.000000 0.000000 1.000000
vn -0.299156 0.000000 0.954204
vn 1.000000 0.000000 0.000000
vn 1.000000 0.000000 0.000000
vn 1.000000 0.000000 0.000000
vn 1.000000 0.000000 0.000000
vn -1.000000 0.000000 0.000000
vn -1.000000 0.000000 0.000000
vn -1.000000 0.000000 0.000000
vn -1.000000 0.000000 0.000000
vn -1.000000 0.000000 0.000000
vn -1.000000 0.000000 0.000000
vn -1.000000 0.000000 0.000000
vn -1.000000 0.000000 0.000000
vn 1.000000 0.000000 0.000000
vn 1.000000 0.000000 0.000000
vn 1.000000 0.000000 0.000000
vn 1.000000 0.000000 0.000000
vn 0.000000 0.000000 -1.000000
vn -0.414874 0.000000 -0.909879
vn -0.414874 0.000000 -0.909879
vn 0.000000 0.000000 -1.000000
vn 0.000000 -1.000000 0.000000
vn 0.000000 -1.000000 0.000000
vn 0.000000 -1.000000 0.000000
vn 0.000000 -1.000000 0.000000
vn 0.000000 0.000000 1.000000
vn 0.000000 0.000000 1.000000
vn 0.000000 0.000000 1.000000
vn 0.000000 0.000000 1.000000
vn 0.000000 1.000000 0.000000
vn 0.000000 1.000000 0.000000
vn 0.000000 1.000000 0.000000
vn 0.000000 1.000000 0.000000
vn 0.000000 0.000000 -1.000000
vn 0.000000 0.000000 -1.000000
vn 0.000000 0.000000 -1.000000
vn 0.000000 0.000000 -1.000000
vn 0.000000 -1.000000 0.000000
vn 0.000000 -1.000000 0.000000
vn 0.000000 -1.000000 0.000000
vn 0.000000 -1.000000 0.000000
vn 0.000000 0.000000 1.000000
vn 0.000000 0.000000 1.000000
vn 0.000000 0.000000 1.000000
vn 0.000000 0.000000 1.000000
vn 0.000000 1.000000 0.000000
vn 0.000000 1.000000 0.000000
vn 0.000000 1.000000 0.000000
vn 0.000000 1.000000 0.000000
vn 0.000000 0.000000 -1.000000
vn 0.000000 0.000000 -1.000000
vn 0.000000 0.000000 -1.000000
vn 0.000000 0.000000 -1.000000
vn 0.000000 -1.000000 0.000000
vn 0.000000 -1.000000 0.000000
vn 0.000000 -1.000000 0.000000
vn 0.000000 -1.000000 0.000000
vn 0.000000 0.000000 1.000000
vn 0.000000 0.000000 1.000000
vn 0.000000 0.000000 1.000000
vn 0.000000 0.000000 1.000000
vn 0.000000 1.000000 0.000000
vn 0.000000 1.000000 0.000000
vn 0.000000 1.000000 0.000000
vn 0.000000 1.000000 0.000000
vn 0.000000 -1.000000 0.000000
vn 0.000000 -1.000000 0.000000
vn 0.000000 -1.000000 0.000000
vn 0.000000 -1.000000 0.000000
vn 0.000000 1.000000 0.000000
vn 0.000000 1.000000 0.000000
vn 0.000000 1.000000 0.000000
vn 0.000000 1.000000 0.000000
vn 0.000000 0.000000 -1.000000
vn 0.000000 0.000000 -1.000000
vn 0.000000 0.000000 -1.000000
vn 0.000000 0.000000 -1.000000
vn 1.000000 0.000000 0.000000
vn 1.000000 0.000000 0.000000
vn 1.000000 0.000000 0.000000
vn 1.000000 0.000000 0.000000
vn 0.000000 -1.000000 0.000000
vn 0.000000 -1.000000 0.000000
vn 0.000000 -1.000000 0.000000
vn 0.000000 -1.000000 0.000000
vn -1.000000 0.000000 0.000000
vn -1.000000 0.000000 0.000000
vn -1.000000 0.000000 0.000000
vn -1.000000 0.000000 0.000000
vn 0.000000 1.000000 0.000000
vn 0.000000 1.000000 0.000000
vn 0.000000 1.000000 0.000000
vn 0.000000 1.000000 0.000000
vn 1.000000 0.000000 0.000000
vn 1.000000 0.000000 0.000000
vn 1.000000 0.000000 0.000000
vn 1.000000 0.000000 0.000000
vn 0.000000 1.000000 0.000000
vn 0.000000 1.000000 0.000000
vn 0.000000 1.000000 0.000000
vn 0.000000 1.000000 0.000000
vn -1.000000 0.000000 0.000000
vn -1.000000 0.000000 0.000000
vn -1.000000 0.000000 0.000000
vn -1.000000 0.000000 0.000000
vn 0.000000 -1.000000 0.000000
vn 0.000000 -1.000000 0.000000
vn 0.000000 -1.000000 0.000000
vn 0.000000 -1.000000 0.000000
vn 0.438690 0.000000 -0.898639
vn 0.438690 0.000000 -0.898639
vn 0.426965 0.229643 -0.874623
vn 0.426965 0.229643 -0.874623
vn 0.235775 -0.106526 -0.965952
vn 0.235775 -0.106526 -0.965952
vn 0.000000 -1.000000 0.000000
vn 0.000000 -1.000000 0.000000
vn 0.000000 -1.000000 0.000000
vn 0.000000 -1.000000 0.000000
vn 0.165054 -0.074573 0.983461
vn 0.165054 -0.074573 0.983461
vn 0.313649 0.168696 0.934433
vn 0.313649 0.168696 0.934433
vn 0.318210 0.000000 0.948020
vn 0.318210 0.000000 0.948020
vn 0.000000 1.000000 0.000000
vn 0.000000 1.000000 0.000000
vn 0.313648 0.168696 -0.934434
vn 0.313648 0.168696 -0.934434
vn 0.000000 1.000000 0.000000
vn 0.000000 1.000000 0.000000
vn 0.426963 0.229642 0.874624
vn 0.426963 0.229642 0.874624
vn 0.000000 1.000000 0.000000
vn 0.000000 1.000000 0.000000
vn 0.000000 -1.000000 0.000000
vn 0.000000 -1.000000 0.000000
vn 0.000000 -1.000000 0.000000
vn 0.000000 -1.000000 0.000000
vn -1.000000 0.000000 0.000000
vn -1.000000 0.000000 0.000000
vn -1.000000 0.000000 0.000000
vn -1.000000 0.000000 0.000000
vn 0.000000 1.000000 0.000000
vn 0.000000 1.000000 0.000000
vn 0.000000 1.000000 0.000000
vn 0.000000 1.000000 0.000000
vn 0.000000 -1.000000 0.000000
vn 0.000000 -1.000000 0.000000
vn 0.000000 -1.000000 0.000000
vn 0.000000 -1.000000 0.000000
vn 0.000000 1.000000 0.000000
vn 0.000000 1.000000 0.000000
vn 0.000000 1.000000 0.000000
vn 0.000000 1.000000 0.000000
vn 1.000000 0.000000 0.000000
vn 1.000000 0.000000 0.000000
vn 1.000000 0.000000 0.000000
vn 1.000000 0.000000 0.000000
f 1/27/1 24/28/2 17/29/3 3/30/4
f 3/1/5 17/2/6 18/3/7 10/4/8
f 5/33/9 20/34/10 21/35/11 7/36/12
f 11/39/13 23/40/14 24/41/15 1/42/16
f 2/11/17 12/12/18 9/13/19 4/14/20
f 11/19/21 1/20/22 3/21/23 10/22/24
f 10/4/8 18/3/7 19/5/25 14/6/26
f 15/23/27 11/19/21 10/22/24 14/24/28
f 15/43/29 22/44/30 23/40/14 11/39/13
f 9/13/19 12/12/18 16/15/31 13/16/32
f 14/6/26 19/5/25 20/9/33 5/10/34
f 7/25/35 15/23/27 14/24/28 5/26/36
f 7/47/37 21/48/38 22/44/30 15/43/29
f 13/16/32 16/15/31 8/17/39 6/18/40
f 33/97/41 70/98/42 71/99/43 36/100/44
f 19/5/25 18/3/7 73/59/45 74/60/46
f 38/114/47 37/113/48 76/115/49 61/116/50
f 21/35/11 20/34/10 63/51/51 64/53/52
f 22/44/30 21/48/38 64/52/53 65/54/54
f 23/40/14 22/44/30 65/54/54 66/55/55
f 24/41/15 23/40/14 66/55/55 67/57/56
f 17/29/3 24/28/2 67/56/57 68/58/58
f 17/133/59 68/134/60 69/135/61 25/136/62
f 4/61/63 9/62/64 27/63/65 26/64/66
f 73/146/67 18/147/68 28/148/69 72/149/70
f 18/67/71 17/68/72 25/69/73 28/70/74
f 20/71/75 19/72/76 29/73/77 30/74/78
f 19/157/79 74/158/80 75/159/81 29/160/82
f 13/75/83 6/76/84 32/77/85 31/78/86
f 63/166/87 20/167/88 30/168/89 62/169/90
f 25/136/91 69/135/92 70/139/93 33/140/94
f 26/64/95 27/63/96 35/65/97 34/66/98
f 50/81/99 49/82/100 51/83/101 52/84/102
f 54/89/103 53/88/104 55/87/105 56/90/106
f 31/78/107 32/77/108 40/79/109 39/80/110
f 62/169/111 30/168/112 38/170/113 61/171/114
f 28/119/115 25/120/116 41/121/117 42/122/118
f 25/136/119 33/140/120 43/142/121 41/143/122
f 33/97/123 36/100/124 44/103/125 43/104/126
f 36/150/127 28/148/128 42/154/129 44/155/130
f 30/131/131 29/132/132 45/128/133 46/129/134
f 29/160/135 37/163/136 47/164/137 45/165/138
f 37/113/139 38/114/140 48/111/141 47/109/142
f 38/170/143 30/168/144 46/174/145 48/175/146
f 42/122/147 41/121/148 49/123/149 50/124/150
f 41/143/151 43/142/152 51/144/153 49/145/154
f 43/104/155 44/103/156 52/105/157 51/106/158
f 46/129/159 45/128/160 53/127/161 54/130/162
f 47/109/163 48/111/164 56/112/165 55/110/166
f 48/175/167 46/174/168 54/177/169 56/178/170
f 44/91/171 42/92/172 57/93/173 58/94/174
f 42/122/175 50/124/176 59/125/177 57/126/178
f 50/81/179 52/84/180 60/85/181 59/86/182
f 52/105/183 44/103/184 58/107/185 60/108/186
f 45/95/187 47/96/188 58/94/189 57/93/190
f 47/109/191 55/110/192 60/108/193 58/107/194
f 55/87/195 53/88/196 59/86/197 60/85/198
f 53/127/199 45/128/200 57/126/201 59/125/202
f 32/173/203 62/169/111 61/171/114 40/176/204
f 6/172/205 63/166/87 62/169/90 32/173/206
f 64/53/52 63/51/51 6/37/207 8/38/208
f 65/54/54 64/52/53 8/50/209 16/49/210
f 66/55/55 65/54/54 16/49/210 12/45/211
f 67/57/56 66/55/55 12/45/211 2/46/212
f 68/58/58 67/56/57 2/31/213 4/32/214
f 69/135/61 68/134/60 4/137/215 26/138/216
f 70/139/93 69/135/92 26/138/217 34/141/218
f 71/99/43 70/98/42 34/101/219 35/102/220
f 9/152/221 73/146/67 72/149/70 27/153/222
f 74/60/46 73/59/45 9/7/223 13/8/224
f 75/159/81 74/158/80 13/161/225 31/162/226
f 61/116/50 76/115/49 39/117/227 40/118/228
f 72/149/229 28/148/230 29/180/231 75/179/232
f 28/148/233 36/150/234 37/181/235 29/180/236
f 36/150/237 71/151/238 76/182/239 37/181/240
f 27/153/241 72/149/242 75/179/243 31/183/244
f 71/151/245 35/156/246 39/184/247 76/182/248
f 35/156/249 27/153/250 31/183/251 39/184/252
