# This file uses centimeters as units for non-parametric coordinates.

v 0.809017 -0.214027 -0.587785
v 0.309017 -0.214027 -0.951057
v -0.309017 -0.214027 -0.951057
v -0.809017 -0.214027 -0.587785
v -1.000000 -0.214027 0.000000
v -0.809017 -0.214027 0.587785
v -0.309017 -0.214027 0.951057
v 0.309017 -0.214027 0.951057
v 0.809017 -0.214027 0.587785
v 1.000000 -0.214027 0.000000
v 1.538685 2.879487 -1.117921
v 0.587726 2.879487 -1.808833
v -0.587726 2.879487 -1.808833
v -1.538686 2.879487 -1.117920
v -1.901920 2.879487 0.000000
v -1.538685 2.879487 1.117921
v -0.587725 2.879487 1.808833
v 0.587725 2.879487 1.808833
v 1.538686 2.879487 1.117920
v 1.901920 2.879487 0.000000
v 0.000000 -0.214027 0.000000
v 1.538685 3.578015 -1.117921
v 0.587726 3.578015 -1.808833
v -0.587726 3.578277 -1.808833
v -1.538686 3.578277 -1.117920
v -1.901920 3.578277 0.000000
v -1.538685 3.578277 1.117921
v -0.587725 3.578277 1.808833
v 0.587725 3.578277 1.808833
v 1.538686 3.578015 1.117920
v 1.901920 3.578015 0.000000
v 1.767705 2.953249 -1.284313
v 0.675203 2.953249 -2.078062
v 0.675203 3.756046 -2.078062
v 1.767705 3.756046 -1.284313
v -0.675203 2.953249 -2.078062
v -0.675203 3.756046 -2.078062
v -1.767705 2.953249 -1.284313
v -1.767705 3.756046 -1.284313
v -2.185004 2.953249 0.000000
v -2.185004 3.756046 0.000000
v -1.767704 2.953249 1.284313
v -1.767704 3.756046 1.284313
v -0.675203 2.953249 2.078062
v -0.675203 3.756046 2.078062
v 0.675203 2.953249 2.078062
v 0.675203 3.756046 2.078062
v 1.767705 2.953249 1.284313
v 1.767705 3.756046 1.284313
v 2.185004 2.953249 0.000000
v 2.185004 3.756046 0.000000
v 1.538685 3.134896 -1.117921
v 0.587726 3.134896 -1.808833
v 0.000000 3.134896 0.000000
v -0.587726 3.135157 -1.808833
v -1.538686 3.135157 -1.117920
v -1.901920 3.135157 0.000000
v -1.538685 3.135157 1.117921
v -0.587725 3.135157 1.808833
v 0.587725 3.135157 1.808833
v 1.538686 3.134896 1.117920
v 1.901920 3.134896 0.000000
vt 0.812701 0.130548
vt 0.770903 0.160916
vt 0.154691 0.547889
vt 0.754939 0.210053
vt 0.770905 0.259188
vt 0.386706 0.547889
vt 0.812702 0.289555
vt 0.154691 0.953223
vt 0.864366 0.289556
vt 0.386706 0.953223
vt 0.906164 0.259188
vt 0.154691 0.902556
vt 0.922129 0.210052
vt 0.386706 0.902556
vt 0.906164 0.160916
vt 0.154691 0.851889
vt 0.864366 0.130548
vt 0.386706 0.851889
vt 0.838534 0.210052
vt 0.968913 0.687875
vt 0.154691 0.801223
vt 0.716965 0.687875
vt 0.386706 0.801223
vt 0.154691 0.750556
vt 0.386706 0.750556
vt 0.154691 0.699889
vt 0.386706 0.699889
vt 0.154691 0.649222
vt 0.386706 0.649222
vt 0.154691 0.598556
vt 0.386706 0.598556
vt 0.133373 0.547889
vt 0.133373 0.497222
vt 0.335254 0.497223
vt 0.335254 0.547889
vt 0.133373 0.953223
vt 0.335329 0.953223
vt 0.133373 0.902556
vt 0.335329 0.902556
vt 0.133373 0.851889
vt 0.335329 0.851889
vt 0.133373 0.801223
vt 0.335329 0.801223
vt 0.133373 0.750556
vt 0.335329 0.750556
vt 0.133373 0.699889
vt 0.335329 0.699889
vt 0.133373 0.649222
vt 0.335254 0.649222
vt 0.133373 0.598556
vt 0.335254 0.598556
vt 0.207188 0.497222
vt 0.207188 0.547889
vt 0.207264 0.953223
vt 0.207264 0.902556
vt 0.207264 0.851889
vt 0.207264 0.801223
vt 0.207264 0.750556
vt 0.207264 0.699889
vt 0.207188 0.649222
vt 0.920811 0.539771
vt 0.207188 0.598556
vt 0.794832 0.448244
vt 0.639099 0.448237
vt 0.681014 0.376383
vt 0.513125 0.539769
vt 0.465017 0.687874
vt 0.681014 0.077179
vt 0.513151 0.835961
vt 0.639113 0.927469
vt 0.794821 0.927474
vt 0.920779 0.835954
vt 0.621173 0.077179
vt 0.501492 0.376383
vt 0.561332 0.077179
vt 0.501492 0.077179
vt 0.621173 0.376383
vt 0.561332 0.376383
vt 0.082605 0.077179
vt 0.082605 0.376383
vt 0.142446 0.077179
vt 0.142446 0.376383
vt 0.202287 0.077179
vt 0.202287 0.376383
vt 0.262128 0.077179
vt 0.262128 0.376383
vt 0.321969 0.077179
vt 0.321969 0.376383
vt 0.381810 0.077179
vt 0.381810 0.376383
vt 0.441651 0.077179
vt 0.441651 0.376383
vt 0.154691 0.497223
vt 0.154691 0.446556
vt 0.133373 0.446556
vt 0.386706 0.497223
vt 0.386706 0.446556
vt 0.335329 0.446556
vt 0.207264 0.446556
vn 0.566414 -0.267201 -0.779602
vn 0.566414 -0.267201 -0.779602
vn 0.566414 -0.267201 -0.779602
vn 0.566414 -0.267201 -0.779602
vn -0.000000 -0.267201 -0.963641
vn -0.000000 -0.267201 -0.963641
vn -0.000000 -0.267201 -0.963641
vn -0.000000 -0.267201 -0.963641
vn -0.566414 -0.267201 -0.779602
vn -0.566414 -0.267201 -0.779602
vn -0.566414 -0.267200 -0.779602
vn -0.566414 -0.267200 -0.779602
vn -0.916477 -0.267200 -0.297781
vn -0.916477 -0.267200 -0.297781
vn -0.916477 -0.267201 -0.297781
vn -0.916477 -0.267201 -0.297781
vn -0.916477 -0.267201 0.297782
vn -0.916477 -0.267201 0.297782
vn -0.916477 -0.267200 0.297782
vn -0.916477 -0.267200 0.297782
vn -0.566414 -0.267201 0.779602
vn -0.566414 -0.267201 0.779602
vn -0.566414 -0.267201 0.779602
vn -0.566414 -0.267201 0.779602
vn 0.000000 -0.267201 0.963641
vn 0.000000 -0.267201 0.963641
vn 0.000000 -0.267201 0.963641
vn 0.000000 -0.267201 0.963641
vn 0.566414 -0.267201 0.779602
vn 0.566414 -0.267201 0.779602
vn 0.566414 -0.267201 0.779602
vn 0.566414 -0.267201 0.779602
vn 0.916477 -0.267201 0.297781
vn 0.916477 -0.267201 0.297781
vn 0.916477 -0.267201 0.297781
vn 0.916477 -0.267201 0.297781
vn 0.916477 -0.267201 -0.297781
vn 0.916477 -0.267201 -0.297781
vn 0.916477 -0.267200 -0.297781
vn 0.916477 -0.267200 -0.297781
vn 0.000000 -1.000000 0.000000
vn 0.000000 -1.000000 0.000000
vn 0.000000 -1.000000 -0.000000
vn 0.000000 -1.000000 0.000000
vn 0.000000 -1.000000 0.000000
vn 0.000000 -1.000000 0.000000
vn 0.000000 -1.000000 -0.000000
vn 0.000000 -1.000000 -0.000000
vn 0.000000 -1.000000 0.000000
vn 0.000000 -1.000000 0.000000
vn 0.000000 -1.000000 0.000000
vn 0.000000 1.000000 0.000000
vn 0.000111 1.000000 0.000036
vn 0.000080 1.000000 -0.000026
vn 0.000154 1.000000 0.000095
vn 0.000111 1.000000 0.000081
vn 0.000137 1.000000 -0.000000
vn 0.000111 1.000000 -0.000081
vn 0.000042 1.000000 -0.000130
vn 0.000069 1.000000 -0.000167
vn 0.000069 1.000000 -0.000094
vn 0.000000 1.000000 0.000000
vn 0.587785 0.000000 -0.809017
vn 0.587785 0.000000 -0.809017
vn 0.587785 0.000000 -0.809017
vn 0.587785 0.000000 -0.809017
vn 0.000000 0.000000 -1.000000
vn 0.000000 0.000000 -1.000000
vn 0.000000 0.000000 -1.000000
vn 0.000000 0.000000 -1.000000
vn -0.587785 0.000000 -0.809017
vn -0.587785 0.000000 -0.809017
vn -0.587785 0.000000 -0.809017
vn -0.587785 0.000000 -0.809017
vn -0.951057 0.000000 -0.309017
vn -0.951057 0.000000 -0.309017
vn -0.951057 0.000000 -0.309017
vn -0.951057 0.000000 -0.309017
vn -0.951056 0.000000 0.309017
vn -0.951056 0.000000 0.309017
vn -0.951056 0.000000 0.309017
vn -0.951056 0.000000 0.309017
vn -0.587785 0.000000 0.809017
vn -0.587785 0.000000 0.809017
vn -0.587785 0.000000 0.809017
vn -0.587785 0.000000 0.809017
vn 0.000000 0.000000 1.000000
vn 0.000000 0.000000 1.000000
vn 0.000000 0.000000 1.000000
vn 0.000000 0.000000 1.000000
vn 0.587785 0.000000 0.809017
vn 0.587785 0.000000 0.809017
vn 0.587785 0.000000 0.809017
vn 0.587785 0.000000 0.809017
vn 0.951057 0.000000 0.309017
vn 0.951057 0.000000 0.309017
vn 0.951057 0.000000 0.309017
vn 0.951057 0.000000 0.309017
vn 0.951057 0.000000 -0.309017
vn 0.951057 0.000000 -0.309017
vn 0.951057 0.000000 -0.309017
vn 0.951057 0.000000 -0.309017
vn 0.155313 -0.964458 -0.213771
vn 0.155313 -0.964458 -0.213771
vn 0.155313 -0.964458 -0.213771
vn 0.155313 -0.964458 -0.213771
vn -0.324208 0.834125 0.446234
vn -0.324208 0.834125 0.446234
vn -0.324208 0.834125 0.446234
vn -0.324208 0.834125 0.446234
vn -0.000000 -0.964459 -0.264234
vn -0.000000 -0.964459 -0.264234
vn -0.000000 -0.964459 -0.264234
vn -0.000000 -0.964459 -0.264234
vn 0.000086 0.834311 0.551294
vn 0.000086 0.834311 0.551294
vn 0.000086 0.834311 0.551294
vn 0.000086 0.834311 0.551294
vn -0.155313 -0.964458 -0.213770
vn -0.155313 -0.964458 -0.213770
vn -0.155313 -0.964458 -0.213770
vn -0.155313 -0.964458 -0.213770
vn 0.323877 0.834497 0.445778
vn 0.323877 0.834497 0.445778
vn 0.323877 0.834497 0.445778
vn 0.323877 0.834497 0.445778
vn -0.251302 -0.964458 -0.081653
vn -0.251302 -0.964458 -0.081653
vn -0.251302 -0.964458 -0.081653
vn -0.251302 -0.964458 -0.081653
vn 0.524044 0.834497 0.170272
vn 0.524044 0.834497 0.170272
vn 0.524044 0.834497 0.170272
vn 0.524044 0.834497 0.170272
vn -0.251302 -0.964458 0.081653
vn -0.251302 -0.964458 0.081653
vn -0.251302 -0.964458 0.081653
vn -0.251302 -0.964458 0.081653
vn 0.524044 0.834497 -0.170273
vn 0.524044 0.834497 -0.170273
vn 0.524044 0.834497 -0.170273
vn 0.524044 0.834497 -0.170273
vn -0.155313 -0.964458 0.213771
vn -0.155313 -0.964458 0.213771
vn -0.155313 -0.964458 0.213771
vn -0.155313 -0.964458 0.213771
vn 0.323877 0.834497 -0.445779
vn 0.323877 0.834497 -0.445779
vn 0.323877 0.834497 -0.445779
vn 0.323877 0.834497 -0.445779
vn 0.000000 -0.964458 0.264235
vn 0.000000 -0.964458 0.264235
vn 0.000000 -0.964458 0.264235
vn 0.000000 -0.964458 0.264235
vn 0.000000 0.834497 -0.551012
vn 0.000000 0.834497 -0.551012
vn 0.000000 0.834497 -0.551012
vn 0.000000 0.834497 -0.551012
vn 0.155313 -0.964458 0.213770
vn 0.155313 -0.964458 0.213771
vn 0.155313 -0.964458 0.213771
vn 0.155313 -0.964458 0.213771
vn -0.323973 0.834311 -0.446057
vn -0.323973 0.834311 -0.446057
vn -0.323973 0.834311 -0.446057
vn -0.323973 0.834311 -0.446057
vn 0.251303 -0.964458 0.081653
vn 0.251303 -0.964458 0.081653
vn 0.251303 -0.964458 0.081653
vn 0.251303 -0.964458 0.081653
vn -0.524580 0.834125 -0.170446
vn -0.524580 0.834125 -0.170446
vn -0.524580 0.834125 -0.170446
vn -0.524580 0.834125 -0.170446
vn 0.251302 -0.964458 -0.081653
vn 0.251302 -0.964458 -0.081653
vn 0.251302 -0.964458 -0.081653
vn 0.251302 -0.964458 -0.081653
vn -0.524580 0.834125 0.170446
vn -0.524580 0.834125 0.170446
vn -0.524580 0.834125 0.170446
vn -0.524580 0.834125 0.170446
vn -0.587785 0.000000 0.809017
vn -0.587785 0.000000 0.809017
vn -0.587785 0.000000 0.809017
vn -0.587785 0.000000 0.809017
vn 0.000000 0.000000 1.000000
vn 0.000000 0.000000 1.000000
vn 0.000000 0.000000 1.000000
vn 0.000000 0.000000 1.000000
vn 0.587785 0.000000 0.809017
vn 0.587785 0.000000 0.809017
vn 0.587785 0.000000 0.809017
vn 0.587785 0.000000 0.809017
vn 0.951057 0.000000 0.309017
vn 0.951057 0.000000 0.309017
vn 0.951057 0.000000 0.309017
vn 0.951057 0.000000 0.309017
vn 0.951056 0.000000 -0.309017
vn 0.951056 0.000000 -0.309017
vn 0.951056 0.000000 -0.309017
vn 0.951056 0.000000 -0.309017
vn 0.587785 0.000000 -0.809017
vn 0.587785 0.000000 -0.809017
vn 0.587785 0.000000 -0.809017
vn 0.587785 0.000000 -0.809017
vn 0.000000 0.000000 -1.000000
vn 0.000000 0.000000 -1.000000
vn 0.000000 0.000000 -1.000000
vn 0.000000 0.000000 -1.000000
vn -0.587785 0.000000 -0.809017
vn -0.587785 0.000000 -0.809017
vn -0.587785 0.000000 -0.809017
vn -0.587785 0.000000 -0.809017
vn -0.951057 0.000000 -0.309017
vn -0.951057 0.000000 -0.309017
vn -0.951057 0.000000 -0.309017
vn -0.951057 0.000000 -0.309017
vn -0.951057 0.000000 0.309017
vn -0.951057 0.000000 0.309017
vn -0.951057 0.000000 0.309017
vn -0.951057 0.000000 0.309017
f 1/75/1 2/73/2 12/77/3 11/78/4
f 2/73/5 3/68/6 13/65/7 12/77/8
f 3/79/9 4/81/10 14/82/11 13/80/12
f 4/81/13 5/83/14 15/84/15 14/82/16
f 5/83/17 6/85/18 16/86/19 15/84/20
f 6/85/21 7/87/22 17/88/23 16/86/24
f 7/87/25 8/89/26 18/90/27 17/88/28
f 8/89/29 9/91/30 19/92/31 18/90/32
f 9/91/33 10/76/34 20/74/35 19/92/36
f 10/76/37 1/75/38 11/78/39 20/74/40
f 2/2/41 1/1/42 21/19/43
f 3/4/44 2/2/41 21/19/43
f 4/5/45 3/4/44 21/19/43
f 5/7/46 4/5/45 21/19/43
f 6/9/47 5/7/46 21/19/43
f 7/11/48 6/9/47 21/19/43
f 8/13/49 7/11/48 21/19/43
f 9/15/50 8/13/49 21/19/43
f 10/17/51 9/15/50 21/19/43
f 1/1/42 10/17/51 21/19/43
f 52/20/52 53/72/53 54/22/54
f 53/72/53 55/71/55 54/22/54
f 55/71/55 56/70/56 54/22/54
f 56/70/56 57/69/57 54/22/54
f 57/69/57 58/67/58 54/22/54
f 58/67/58 59/66/59 54/22/54
f 59/66/59 60/64/60 54/22/54
f 60/64/60 61/63/61 54/22/54
f 61/63/61 62/61/62 54/22/54
f 62/61/62 52/20/52 54/22/54
f 32/3/63 33/93/64 34/96/65 35/6/66
f 33/93/67 36/94/68 37/97/69 34/96/70
f 36/8/71 38/12/72 39/14/73 37/10/74
f 38/12/75 40/16/76 41/18/77 39/14/78
f 40/16/79 42/21/80 43/23/81 41/18/82
f 42/21/83 44/24/84 45/25/85 43/23/86
f 44/24/87 46/26/88 47/27/89 45/25/90
f 46/26/91 48/28/92 49/29/93 47/27/94
f 48/28/95 50/30/96 51/31/97 49/29/98
f 50/30/99 32/3/100 35/6/101 51/31/102
f 11/32/103 12/33/104 33/93/105 32/3/106
f 23/34/107 22/35/108 35/6/109 34/96/110
f 12/33/111 13/95/112 36/94/113 33/93/114
f 24/98/115 23/34/116 34/96/117 37/97/118
f 13/36/119 14/38/120 38/12/121 36/8/122
f 25/39/123 24/37/124 37/10/125 39/14/126
f 14/38/127 15/40/128 40/16/129 38/12/130
f 26/41/131 25/39/132 39/14/133 41/18/134
f 15/40/135 16/42/136 42/21/137 40/16/138
f 27/43/139 26/41/140 41/18/141 43/23/142
f 16/42/143 17/44/144 44/24/145 42/21/146
f 28/45/147 27/43/148 43/23/149 45/25/150
f 17/44/151 18/46/152 46/26/153 44/24/154
f 29/47/155 28/45/156 45/25/157 47/27/158
f 18/46/159 19/48/160 48/28/161 46/26/162
f 30/49/163 29/47/164 47/27/165 49/29/166
f 19/48/167 20/50/168 50/30/169 48/28/170
f 31/51/171 30/49/172 49/29/173 51/31/174
f 20/50/175 11/32/176 32/3/177 50/30/178
f 22/35/179 31/51/180 51/31/181 35/6/182
f 22/35/183 23/34/184 53/52/185 52/53/186
f 23/34/187 24/98/188 55/99/189 53/52/190
f 24/37/191 25/39/192 56/55/193 55/54/194
f 25/39/195 26/41/196 57/56/197 56/55/198
f 26/41/199 27/43/200 58/57/201 57/56/202
f 27/43/203 28/45/204 59/58/205 58/57/206
f 28/45/207 29/47/208 60/59/209 59/58/210
f 29/47/211 30/49/212 61/60/213 60/59/214
f 30/49/215 31/51/216 62/62/217 61/60/218
f 31/51/219 22/35/220 52/53/221 62/62/222
