# This file uses centimeters as units for non-parametric coordinates.

v 1.000595 -3.420597 -1.733081
v -1.000594 -3.420597 -1.733081
v -2.001189 -3.420597 -0.000000
v -1.000595 -3.420597 1.733081
v 1.000595 -3.420597 1.733081
v 2.001189 -3.420597 0.000000
v 2.001190 -3.420597 -3.466161
v -2.001189 -3.420597 -3.466162
v -4.002379 -3.420597 -0.000001
v -2.001190 -3.420597 3.466162
v 2.001189 -3.420597 3.466162
v 4.002379 -3.420597 0.000000
v 2.001190 -2.776597 -3.466161
v -2.001189 -2.776597 -3.466162
v -4.002379 -2.776597 -0.000001
v -2.001190 -2.776597 3.466162
v 2.001189 -2.776597 3.466162
v 4.002379 -2.776597 0.000000
v 0.641754 -2.776597 -1.111549
v -0.641753 -2.776597 -1.111549
v -1.283507 -2.776597 -0.000000
v -0.641754 -2.776597 1.111549
v 0.641753 -2.776597 1.111549
v 1.283507 -2.776597 -0.000000
v 0.000000 -3.420597 0.000000
v -5.027709 2.740734 5.027709
v 5.027709 2.740734 5.027709
v -5.510833 3.074567 5.510833
v 5.510833 3.074567 5.510833
v -5.027709 3.408399 5.027709
v 5.027709 3.408399 5.027709
v -5.027709 3.408399 -5.027709
v 5.027709 3.408399 -5.027709
v -5.510833 3.074567 -5.510833
v 5.510833 3.074567 -5.510833
v -5.027709 2.740734 -5.027709
v 5.027709 2.740734 -5.027709
v -0.963303 3.074567 5.510833
v -0.878852 3.408399 5.027709
v -0.878852 3.408399 -5.027709
v -0.963303 3.074567 -5.510833
v -0.878852 2.740734 -5.027709
v -0.878852 2.740734 5.027709
v 1.002621 3.074567 5.510833
v 0.914724 3.408399 5.027709
v 0.914724 3.408399 -5.027709
v 1.002621 3.074567 -5.510833
v 0.914724 2.740734 -5.027709
v 0.914724 2.740734 5.027709
v -5.510833 3.074567 -1.002621
v -5.027709 3.408399 -0.914724
v -0.878852 3.408399 -0.914724
v 0.914724 3.408399 -0.914724
v 5.027709 3.408399 -0.914724
v 5.510833 3.074567 -1.002621
v 5.027709 2.740734 -0.914724
v 0.914724 2.740734 -0.914724
v -0.878852 2.740734 -0.914724
v -5.027709 2.740734 -0.914724
v -5.510831 3.074567 1.041940
v -5.027709 3.408399 0.950595
v -0.878852 3.408399 0.950595
v 0.914724 3.408399 0.950595
v 5.027709 3.408399 0.950595
v 5.510831 3.074567 1.041940
v 5.027709 2.740734 0.950595
v 0.914724 2.740734 0.950595
v -0.878852 2.740734 0.950595
v -5.027709 2.740734 0.950595
v -0.412339 1.345858 -0.429550
v -0.412339 1.345858 0.465422
v 0.448211 1.345858 -0.429550
v 0.448211 1.345858 0.465422
v -1.075463 2.156422 1.155070
v 1.111335 2.156422 1.155070
v 1.111335 2.156422 -1.119199
v -1.075463 2.156422 -1.119199
v -0.749256 1.345859 0.021225
v -1.075463 2.156423 0.026295
v -0.878852 2.740734 0.024792
v -5.027709 2.740734 0.024792
v -5.510832 3.074567 0.027175
v -5.027709 3.408399 0.024792
v -0.878852 3.408399 0.024792
v 0.914724 3.408399 0.024792
v 5.027709 3.408399 0.024792
v 5.510832 3.074567 0.027175
v 5.027709 2.740734 0.024792
v 0.914724 2.740734 0.024792
v 1.111335 2.156423 0.026295
v 0.785128 1.345859 0.021225
vt 0.590653 0.181197
vt 0.691513 0.229327
vt 0.704259 0.234114
vt 0.659616 0.133739
vt 0.739906 0.270646
vt 0.741799 0.312539
vt 0.776340 0.270542
vt 0.774487 0.313283
vt 0.824707 0.228612
vt 0.811940 0.233421
vt 0.925591 0.181197
vt 0.856665 0.134465
vt 0.707915 0.235653
vt 0.675703 0.119312
vt 0.742379 0.325335
vt 0.773907 0.326148
vt 0.808286 0.235053
vt 0.840581 0.120055
vt 0.151541 0.232010
vt 0.758149 0.226994
vt 0.184500 0.786328
vt 0.594315 0.881622
vt 0.331978 0.853116
vt 0.130925 0.846076
vt 0.593833 0.495779
vt 0.432102 0.495780
vt 0.103681 0.598088
vt 0.593835 0.727421
vt 0.593833 0.887756
vt 0.143396 0.619061
vt 0.182621 0.659063
vt 0.139458 0.623494
vt 0.594313 0.498219
vt 0.436122 0.498218
vt 0.331651 0.113681
vt 0.101143 0.608265
vt 0.819529 0.655042
vt 0.819527 0.498217
vt 0.255167 0.721774
vt 0.299194 0.760503
vt 0.824078 0.887756
vt 0.824079 0.727428
vt 0.103604 0.604381
vt 0.366427 0.850377
vt 0.663749 0.495779
vt 0.663750 0.727422
vt 0.663748 0.887756
vt 0.211386 0.683484
vt 0.662703 0.498218
vt 0.336872 0.111647
vt 0.662702 0.881622
vt 0.364593 0.825135
vt 0.824082 0.495780
vt 0.819527 0.881623
vt 0.095589 0.610067
vt 0.432104 0.690804
vt 0.593832 0.690803
vt 0.663749 0.690803
vt 0.323049 0.767080
vt 0.314997 0.775300
vt 0.819526 0.690866
vt 0.342208 0.113877
vt 0.594315 0.690870
vt 0.103366 0.608024
vt 0.098805 0.636268
vt 0.432105 0.654712
vt 0.593831 0.654717
vt 0.663750 0.654715
vt 0.334713 0.782874
vt 0.329420 0.789502
vt 0.819528 0.726164
vt 0.343286 0.119375
vt 0.594311 0.726164
vt 0.118484 0.624858
vt 0.331650 0.114286
vt 0.333813 0.116290
vt 0.336568 0.114528
vt 0.341409 0.116638
vt 0.337401 0.118594
vt 0.343352 0.118489
vt 0.339350 0.112529
vt 0.344664 0.117011
vt 0.342995 0.121074
vt 0.333755 0.120867
vt 0.330580 0.115226
vt 0.333942 0.112112
vt 0.662704 0.690871
vt 0.662705 0.726164
vt 0.307249 0.783572
vt 0.322831 0.794502
vt 0.824080 0.690803
vt 0.306629 0.754379
vt 0.084211 0.604929
vt 0.432105 0.727429
vt 0.436122 0.690866
vt 0.436124 0.726164
vt 0.332790 0.118823
vt 0.337334 0.121373
vt 0.436122 0.881622
vt 0.359097 0.827161
vt 0.824081 0.654712
vt 0.070872 0.638050
vt 0.436122 0.655044
vt 0.662700 0.655037
vt 0.594317 0.655037
vt 0.293955 0.768496
vt 0.260226 0.716040
vt 0.432107 0.887755
vt 0.364332 0.847842
vt 0.204081 0.689562
vt 0.250138 0.727548
vt 0.216361 0.675354
vt 0.370017 0.854773
vt 0.367126 0.822236
vt 0.339240 0.835913
vt 0.177902 0.666842
vt 0.189446 0.652906
vt 0.333265 0.876207
vt 0.136179 0.629402
vt 0.126154 0.850272
vt 0.783812 0.020974
vt 0.517243 0.232010
vt 0.732452 0.020866
vt 0.788377 0.248088
vt 0.460638 0.093645
vt 0.770203 0.411808
vt 0.380240 0.021901
vt 0.746006 0.411535
vt 0.290487 0.021945
vt 0.727850 0.248169
vt 0.208391 0.094428
vn 0.000000 -1.000000 -0.000000
vn 0.000000 -1.000000 -0.000000
vn 0.000000 -1.000000 -0.000000
vn 0.000000 -1.000000 -0.000000
vn 0.000000 -1.000000 0.000000
vn 0.000000 -1.000000 0.000000
vn 0.000000 -1.000000 0.000000
vn 0.000000 -1.000000 0.000000
vn 0.000000 -1.000000 -0.000000
vn 0.000000 -1.000000 -0.000000
vn 0.000000 -1.000000 -0.000000
vn 0.000000 -1.000000 -0.000000
vn 0.000000 0.000000 -1.000000
vn 0.000000 0.000000 -1.000000
vn 0.000000 0.000000 -1.000000
vn 0.000000 0.000000 -1.000000
vn -0.866025 0.000000 -0.500000
vn -0.866025 0.000000 -0.500000
vn -0.866025 0.000000 -0.500000
vn -0.866025 0.000000 -0.500000
vn -0.866026 0.000000 0.500000
vn -0.866026 0.000000 0.500000
vn -0.866026 0.000000 0.500000
vn -0.866026 0.000000 0.500000
vn -0.000000 0.000000 1.000000
vn -0.000000 0.000000 1.000000
vn -0.000000 0.000000 1.000000
vn -0.000000 0.000000 1.000000
vn 0.866025 0.000000 0.500000
vn 0.866025 0.000000 0.500000
vn 0.866025 0.000000 0.500000
vn 0.866025 0.000000 0.500000
vn 0.866026 0.000000 -0.500000
vn 0.866026 0.000000 -0.500000
vn 0.866026 0.000000 -0.500000
vn 0.866026 0.000000 -0.500000
vn 0.000000 1.000000 -0.000000
vn 0.000000 1.000000 -0.000000
vn 0.000000 1.000000 -0.000000
vn 0.000000 1.000000 -0.000000
vn 0.000000 1.000000 0.000000
vn 0.000000 1.000000 -0.000000
vn 0.000000 1.000000 0.000000
vn 0.000000 1.000000 0.000000
vn 0.000000 1.000000 0.000000
vn 0.000000 1.000000 0.000000
vn 0.000000 1.000000 -0.000000
vn 0.000000 1.000000 0.000000
vn 0.000000 -1.000000 0.000000
vn 0.000000 -0.822700 0.568475
vn 0.000000 -0.822700 0.568475
vn 0.000000 -0.000000 1.000000
vn 0.000000 -0.000000 1.000000
vn 0.000000 0.822700 0.568476
vn 0.000000 0.822700 0.568476
vn 0.000000 1.000000 0.000000
vn 0.000000 1.000000 0.000000
vn 0.000000 1.000000 0.000000
vn 0.000000 1.000000 0.000000
vn 0.000000 0.822700 -0.568476
vn 0.000000 0.822700 -0.568476
vn 0.000000 0.000000 -1.000000
vn 0.000000 0.000000 -1.000000
vn 0.000000 -0.822700 -0.568475
vn 0.000000 -0.822700 -0.568475
vn 0.000000 -1.000000 0.000000
vn 0.000000 -1.000000 0.000000
vn 0.000000 -1.000000 0.000000
vn 0.000000 -1.000000 0.000000
vn 0.568476 -0.822700 0.000000
vn 0.568475 -0.822700 0.000000
vn 1.000000 0.000000 0.000000
vn 1.000000 -0.000000 0.000000
vn 0.568475 0.822700 0.000000
vn 0.568476 0.822700 0.000000
vn -0.568476 -0.822700 0.000000
vn -0.568476 -0.822700 0.000000
vn -1.000000 0.000000 0.000000
vn -1.000000 0.000000 0.000000
vn -0.568476 0.822700 0.000000
vn -0.568476 0.822700 0.000000
vn 0.000000 -0.000000 1.000000
vn 0.000000 0.822700 0.568476
vn 0.000000 1.000000 0.000000
vn 0.000000 1.000000 0.000000
vn 0.000000 0.822700 -0.568476
vn 0.000000 0.000000 -1.000000
vn 0.000000 -0.822700 -0.568476
vn 0.000000 -1.000000 0.000000
vn 0.000000 -1.000000 0.000000
vn 0.000000 -0.822700 0.568475
vn 0.000000 -0.000000 1.000000
vn 0.000000 0.822700 0.568476
vn 0.000000 1.000000 0.000000
vn 0.000000 1.000000 0.000000
vn 0.000000 0.822700 -0.568476
vn 0.000000 0.000000 -1.000000
vn 0.000000 -0.822700 -0.568476
vn 0.000000 -1.000000 0.000000
vn 0.000000 -1.000000 0.000000
vn 0.000000 -0.822700 0.568475
vn -1.000000 0.000000 0.000000
vn -0.568476 0.822700 0.000000
vn 0.000000 1.000000 0.000000
vn 0.000000 1.000000 0.000000
vn 0.000000 1.000000 0.000000
vn 0.000000 1.000000 0.000000
vn 1.000000 -0.000000 0.000000
vn 0.568476 0.822700 0.000000
vn 0.568476 -0.822700 0.000000
vn 0.000000 -1.000000 0.000000
vn 0.000000 -1.000000 0.000000
vn 0.000000 -1.000000 0.000000
vn 0.000000 -1.000000 0.000000
vn -0.568476 -0.822700 0.000000
vn -1.000000 -0.000000 -0.000000
vn -1.000000 0.000000 -0.000000
vn -0.568476 0.822700 -0.000000
vn -0.568476 0.822700 -0.000000
vn 0.000000 1.000000 0.000000
vn 0.000000 1.000000 0.000000
vn 0.000000 1.000000 0.000000
vn 0.000000 1.000000 0.000000
vn 0.000000 1.000000 0.000000
vn 0.000000 1.000000 0.000000
vn 0.000000 1.000000 0.000000
vn 0.000000 1.000000 0.000000
vn 1.000000 0.000000 -0.000000
vn 1.000000 -0.000000 -0.000000
vn 0.568476 0.822700 -0.000000
vn 0.568476 0.822700 -0.000000
vn 0.568476 -0.822700 -0.000000
vn 0.568476 -0.822700 0.000000
vn 0.000000 -1.000000 0.000000
vn 0.000000 -1.000000 0.000000
vn 0.000000 -1.000000 0.000000
vn 0.000000 -1.000000 0.000000
vn 0.000000 -1.000000 0.000000
vn 0.000000 -1.000000 0.000000
vn 0.000000 -1.000000 0.000000
vn 0.000000 -1.000000 0.000000
vn -0.568476 -0.822700 0.000000
vn -0.568476 -0.822700 -0.000000
vn -0.947784 0.318914 -0.000000
vn -0.947784 0.318914 -0.000000
vn -0.986363 -0.134396 -0.095008
vn -0.981008 -0.193966 0.000397
vn 0.000000 0.330302 -0.943875
vn 0.000000 0.330302 -0.943875
vn 0.000000 -0.198474 -0.980106
vn 0.000000 -0.198474 -0.980106
vn 0.947784 0.318913 -0.000000
vn 0.947784 0.318913 -0.000000
vn 0.981008 -0.193966 0.000397
vn 0.986363 -0.134396 -0.095008
vn 0.000000 0.330302 0.943875
vn 0.000000 0.330302 0.943875
vn 0.000000 -0.198474 0.980106
vn 0.000000 -0.198474 0.980106
vn 0.000000 -0.648013 0.761629
vn 0.000000 -0.648014 0.761629
vn 0.818955 -0.573858 -0.000356
vn 0.807473 -0.564749 -0.170429
vn 0.000000 -0.648014 -0.761629
vn 0.000000 -0.648014 -0.761629
vn -0.807473 -0.564749 -0.170429
vn -0.818955 -0.573858 -0.000356
vn -0.989904 0.141729 0.001679
vn -0.841040 0.122835 -0.526844
vn -0.841040 0.122835 -0.526844
vn -0.989902 0.141745 -0.001828
vn 0.000000 0.163217 -0.986590
vn 0.000000 0.163217 -0.986590
vn 0.000000 0.163217 -0.986590
vn 0.000000 0.163217 -0.986590
vn 0.841774 0.115617 -0.527303
vn 0.991078 0.133273 0.001679
vn 0.991076 0.133289 -0.001826
vn 0.841774 0.115617 -0.527303
vn -0.000000 0.154843 0.987939
vn -0.000000 0.154843 0.987939
vn -0.000000 0.154843 0.987939
vn -0.000000 0.154843 0.987939
vn -0.840541 0.117929 0.528757
vn -0.840541 0.117929 0.528757
vn -0.986071 -0.135553 0.096387
vn -0.806145 -0.565964 0.172669
vn -0.947784 0.318913 0.000000
vn 0.947784 0.318913 0.000000
vn 0.986071 -0.135553 0.096387
vn 0.806145 -0.565964 0.172669
vn 0.841244 0.110707 0.529200
vn 0.841244 0.110707 0.529200
f 1/1/1 2/2/2 8/3/3 7/4/4
f 2/2/2 3/5/5 9/6/6 8/3/3
f 3/5/5 4/7/7 10/8/8 9/6/6
f 4/7/7 5/9/9 11/10/10 10/8/8
f 5/9/9 6/11/11 12/12/12 11/10/10
f 6/11/11 1/1/1 7/4/4 12/12/12
f 7/4/13 8/3/14 14/13/15 13/14/16
f 8/3/17 9/6/18 15/15/19 14/13/20
f 9/6/21 10/8/22 16/16/23 15/15/24
f 10/8/25 11/10/26 17/17/27 16/16/28
f 11/10/29 12/12/30 18/18/31 17/17/32
f 12/12/33 7/4/34 13/14/35 18/18/36
f 13/14/37 14/13/38 20/130/39 19/123/40
f 14/13/38 15/15/41 21/128/42 20/130/39
f 15/15/41 16/16/43 22/126/44 21/128/42
f 16/16/43 17/17/45 23/124/46 22/126/44
f 17/17/45 18/18/47 24/121/48 23/124/46
f 18/18/47 13/14/37 19/123/40 24/121/48
f 2/2/2 1/1/1 25/20/49
f 3/5/5 2/2/2 25/20/49
f 4/7/7 3/5/5 25/20/49
f 5/9/9 4/7/7 25/20/49
f 6/11/11 5/9/9 25/20/49
f 1/1/1 6/11/11 25/20/49
f 26/21/50 43/115/51 38/23/52 28/24/53
f 28/24/53 38/23/52 39/118/54 30/120/55
f 51/94/56 52/28/57 40/29/58 32/108/59
f 32/30/60 40/117/61 41/31/62 34/32/63
f 34/32/63 41/31/62 42/116/64 36/119/65
f 36/34/66 42/33/67 58/105/68 59/103/69
f 56/106/70 37/111/71 35/39/72 55/40/73
f 55/40/73 35/39/72 33/107/74 54/92/75
f 36/119/76 59/36/77 50/43/78 34/32/79
f 34/32/79 50/43/78 51/27/80 32/30/81
f 38/23/52 44/44/82 45/113/83 39/118/54
f 40/29/58 52/28/57 53/46/84 46/47/85
f 41/31/62 40/117/61 46/112/86 47/48/87
f 42/116/64 41/31/62 47/48/87 48/110/88
f 58/105/68 42/33/67 48/49/89 57/104/90
f 38/23/52 43/115/51 49/109/91 44/44/82
f 44/44/82 29/52/92 31/114/93 45/113/83
f 46/47/85 53/46/84 54/42/94 33/41/95
f 47/48/87 46/112/86 33/107/96 35/39/97
f 48/110/88 47/48/87 35/39/97 37/111/98
f 57/104/90 48/49/89 37/38/99 56/37/100
f 44/44/82 49/109/91 27/100/101 29/52/92
f 50/43/78 82/55/102 83/93/103 51/27/80
f 83/56/104 84/57/105 52/28/57 51/94/56
f 53/46/84 52/28/57 84/57/105 85/58/106
f 54/42/94 53/46/84 85/58/106 86/91/107
f 87/60/108 55/40/73 54/92/75 86/59/109
f 88/89/110 56/106/70 55/40/73 87/60/108
f 89/87/111 57/104/90 56/37/100 88/61/112
f 59/103/69 58/105/68 80/63/113 81/95/114
f 50/43/78 59/36/77 81/64/115 82/55/102
f 60/65/116 28/24/117 30/120/118 61/102/119
f 30/26/120 39/25/121 62/67/122 61/66/123
f 63/68/124 62/67/122 39/25/121 45/45/125
f 64/101/126 63/68/124 45/45/125 31/53/127
f 29/52/128 65/70/129 64/69/130 31/114/131
f 27/100/132 66/90/133 65/70/129 29/52/128
f 49/51/134 67/88/135 66/71/136 27/54/137
f 43/22/138 68/73/139 67/88/135 49/51/134
f 69/96/140 68/73/139 43/22/138 26/99/141
f 60/65/116 69/74/142 26/21/143 28/24/117
f 80/97/144 58/35/145 77/75/146 79/76/147
f 58/35/148 57/50/149 76/77/150 77/75/151
f 57/50/152 89/62/153 90/78/154 76/77/155
f 67/72/156 68/98/157 74/79/158 75/80/159
f 75/80/159 74/79/158 71/81/160 73/82/161
f 76/77/155 90/78/154 91/83/162 72/84/163
f 77/75/151 76/77/150 72/84/164 70/85/165
f 79/76/147 77/75/146 70/85/166 78/86/167
f 78/86/168 70/85/169 20/131/170 21/129/171
f 70/85/172 72/84/173 19/19/174 20/131/175
f 72/84/176 91/83/177 24/122/178 19/19/179
f 73/82/180 71/81/181 22/127/182 23/125/183
f 71/81/184 78/86/168 21/129/171 22/127/185
f 74/79/186 79/76/147 78/86/167 71/81/187
f 68/98/188 80/97/144 79/76/147 74/79/186
f 81/95/114 80/63/113 68/73/139 69/96/140
f 82/55/102 81/64/115 69/74/142 60/65/116
f 83/93/103 82/55/102 60/65/116 61/102/119
f 61/66/123 62/67/122 84/57/105 83/56/104
f 85/58/106 84/57/105 62/67/122 63/68/124
f 86/91/107 85/58/106 63/68/124 64/101/126
f 65/70/129 87/60/108 86/59/109 64/69/130
f 66/90/133 88/89/110 87/60/108 65/70/129
f 67/88/135 89/87/111 88/61/112 66/71/136
f 90/78/154 89/62/153 67/72/189 75/80/190
f 91/83/162 90/78/154 75/80/190 73/82/191
f 24/122/178 91/83/177 73/82/192 23/125/193
