# This file uses centimeters as units for non-parametric coordinates.

v -0.500000 -0.500000 4.085712
v 0.500000 -0.500000 4.085712
v -0.500000 0.500000 4.085712
v 0.500000 0.500000 4.085712
v -0.500000 0.500000 -4.085712
v 0.500000 0.500000 -4.085712
v -0.500000 -0.500000 -4.085712
v 0.500000 -0.500000 -4.085712
v 0.500000 -0.500000 0.388770
v -0.500000 -0.500000 0.388770
v -0.500000 0.500000 0.388770
v 0.500000 0.500000 0.388770
v 0.500000 -0.500000 -0.552145
v -0.500000 -0.500000 -0.552145
v -0.500000 0.500000 -0.552145
v 0.500000 0.500000 -0.552145
v -4.082969 -0.500000 -0.552145
v -4.082969 0.500000 -0.552145
v -4.082969 -0.500000 0.388770
v -4.082969 0.500000 0.388770
v 4.082969 0.500000 0.388770
v 4.082969 -0.500000 0.388770
v 4.082969 -0.500000 -0.552145
v 4.082969 0.500000 -0.552145
v -0.500000 4.832880 0.388770
v 0.500000 4.832880 0.388770
v 0.500000 4.832880 -0.552145
v -0.500000 4.832880 -0.552145
v -0.500000 5.903977 0.388770
v 0.500000 5.903977 0.388770
v 0.500000 5.903977 -0.552145
v -0.500000 5.903977 -0.552145
v -4.666766 5.559395 4.888824
v 4.666766 5.559395 4.888824
v 4.666766 5.973230 4.888824
v -4.666766 5.973230 4.888824
v 4.666766 5.559395 -5.052200
v 4.666766 5.973230 -5.052200
v -4.666766 5.559395 -5.052200
v -4.666766 5.973230 -5.052200
vt 0.375000 0.000000
vt 0.625000 0.000000
vt 0.375000 0.250000
vt 0.625000 0.250000
vt 0.375000 0.500000
vt 0.625000 0.500000
vt 0.375000 0.750000
vt 0.625000 0.750000
vt 0.375000 1.000000
vt 0.625000 1.000000
vt 0.875000 0.000000
vt 0.875000 0.250000
vt 0.125000 0.000000
vt 0.125000 0.250000
vt 0.625000 0.886894
vt 0.738106 0.000000
vt 0.261894 0.000000
vt 0.375000 0.886894
vt 0.261894 0.250000
vt 0.375000 0.363106
vt 0.625000 0.363106
vt 0.738106 0.250000
vt 0.625000 0.858107
vt 0.766893 0.000000
vt 0.233107 0.000000
vt 0.375000 0.858107
vt 0.233107 0.250000
vt 0.375000 0.391893
vt 0.625000 0.391893
vt 0.766893 0.250000
vt 0.233107 0.250000
vt 0.233107 0.000000
vt 0.261894 0.000000
vt 0.261894 0.250000
vt 0.738106 0.250000
vt 0.738106 0.000000
vt 0.766893 0.000000
vt 0.766893 0.250000
vt 0.375000 0.363106
vt 0.625000 0.363106
vt 0.625000 0.391893
vt 0.375000 0.391893
vt 0.375000 0.363106
vt 0.625000 0.363106
vt 0.625000 0.391893
vt 0.375000 0.391893
vt 0.375000 0.363106
vt 0.625000 0.363106
vt 0.625000 0.363106
vt 0.375000 0.363106
vt 0.625000 0.391893
vt 0.625000 0.391893
vt 0.375000 0.391893
vt 0.375000 0.391893
vn 0.000000 0.000000 1.000000
vn 0.000000 0.000000 1.000000
vn 0.000000 0.000000 1.000000
vn 0.000000 0.000000 1.000000
vn 0.000000 1.000000 0.000000
vn 0.000000 1.000000 0.000000
vn 0.000000 1.000000 0.000000
vn 0.000000 1.000000 0.000000
vn 0.000000 0.000000 -1.000000
vn 0.000000 0.000000 -1.000000
vn 0.000000 0.000000 -1.000000
vn 0.000000 0.000000 -1.000000
vn 0.000000 -1.000000 0.000000
vn 0.000000 -1.000000 0.000000
vn 0.000000 -1.000000 0.000000
vn 0.000000 -1.000000 0.000000
vn 1.000000 0.000000 0.000000
vn 1.000000 0.000000 0.000000
vn 1.000000 0.000000 0.000000
vn 1.000000 0.000000 0.000000
vn -1.000000 0.000000 0.000000
vn -1.000000 0.000000 0.000000
vn -1.000000 0.000000 0.000000
vn -1.000000 0.000000 0.000000
vn 0.000000 -1.000000 0.000000
vn 0.000000 -1.000000 0.000000
vn 0.000000 -1.000000 0.000000
vn 0.000000 -1.000000 0.000000
vn -1.000000 0.000000 0.000000
vn -1.000000 0.000000 0.000000
vn -1.000000 0.000000 0.000000
vn -1.000000 0.000000 0.000000
vn 0.000000 1.000000 0.000000
vn 0.000000 1.000000 0.000000
vn 0.000000 1.000000 0.000000
vn 0.000000 1.000000 0.000000
vn 1.000000 0.000000 0.000000
vn 1.000000 0.000000 0.000000
vn 1.000000 0.000000 0.000000
vn 1.000000 0.000000 0.000000
vn -1.000000 0.000000 0.000000
vn -1.000000 0.000000 0.000000
vn -1.000000 0.000000 0.000000
vn -1.000000 0.000000 0.000000
vn 0.000000 1.000000 0.000000
vn 0.000000 1.000000 0.000000
vn 0.000000 1.000000 0.000000
vn 0.000000 1.000000 0.000000
vn 1.000000 0.000000 0.000000
vn 1.000000 0.000000 0.000000
vn 1.000000 0.000000 0.000000
vn 1.000000 0.000000 0.000000
vn 0.000000 0.000000 -1.000000
vn 0.000000 0.000000 -1.000000
vn 0.000000 0.000000 -1.000000
vn 0.000000 0.000000 -1.000000
vn 0.000000 -1.000000 0.000000
vn 0.000000 -1.000000 0.000000
vn 0.000000 -1.000000 0.000000
vn 0.000000 -1.000000 0.000000
vn 0.000000 0.000000 1.000000
vn 0.000000 0.000000 1.000000
vn 0.000000 0.000000 1.000000
vn 0.000000 0.000000 1.000000
vn 0.000000 1.000000 0.000000
vn 0.000000 1.000000 0.000000
vn 0.000000 1.000000 0.000000
vn 0.000000 1.000000 0.000000
vn 0.000000 0.000000 1.000000
vn 0.000000 0.000000 1.000000
vn 0.000000 0.000000 1.000000
vn 0.000000 0.000000 1.000000
vn 0.000000 -1.000000 0.000000
vn 0.000000 -1.000000 0.000000
vn 0.000000 -1.000000 0.000000
vn 0.000000 -1.000000 0.000000
vn 0.000000 0.000000 -1.000000
vn 0.000000 0.000000 -1.000000
vn 0.000000 0.000000 -1.000000
vn 0.000000 0.000000 -1.000000
vn 0.000000 1.000000 0.000000
vn 0.000000 1.000000 0.000000
vn 0.000000 1.000000 0.000000
vn 0.000000 1.000000 0.000000
vn 0.000000 0.000000 1.000000
vn 0.000000 0.000000 1.000000
vn 0.000000 0.000000 1.000000
vn 0.000000 0.000000 1.000000
vn 1.000000 0.000000 0.000000
vn 1.000000 0.000000 0.000000
vn 1.000000 0.000000 0.000000
vn 1.000000 0.000000 0.000000
vn 0.000000 0.000000 -1.000000
vn 0.000000 0.000000 -1.000000
vn 0.000000 0.000000 -1.000000
vn 0.000000 0.000000 -1.000000
vn -1.000000 0.000000 0.000000
vn -1.000000 0.000000 0.000000
vn -1.000000 0.000000 0.000000
vn -1.000000 0.000000 0.000000
vn 0.000000 0.000000 1.000000
vn 0.000000 0.000000 1.000000
vn 0.000000 0.000000 1.000000
vn 0.000000 0.000000 1.000000
vn 1.000000 0.000000 0.000000
vn 1.000000 0.000000 0.000000
vn 1.000000 0.000000 0.000000
vn 1.000000 0.000000 0.000000
vn 0.000000 0.000000 -1.000000
vn 0.000000 0.000000 -1.000000
vn 0.000000 0.000000 -1.000000
vn 0.000000 0.000000 -1.000000
vn -1.000000 0.000000 0.000000
vn -1.000000 0.000000 0.000000
vn -1.000000 0.000000 0.000000
vn -1.000000 0.000000 0.000000
vn 0.000000 -0.987217 0.159382
vn 0.000000 -0.987217 0.159382
vn 0.000000 -0.987217 0.159382
vn 0.000000 -0.987217 0.159382
vn 0.000000 0.999882 -0.015388
vn 0.000000 0.999882 -0.015388
vn 0.000000 0.999882 -0.015388
vn 0.000000 0.999882 -0.015388
vn 0.171768 -0.985137 0.000000
vn 0.171768 -0.985137 0.000000
vn 0.171768 -0.985137 0.000000
vn 0.171768 -0.985137 0.000000
vn -0.016618 0.999862 0.000000
vn -0.016618 0.999862 0.000000
vn -0.016618 0.999862 0.000000
vn -0.016618 0.999862 0.000000
vn 0.000000 -0.987217 -0.159382
vn 0.000000 -0.987217 -0.159382
vn 0.000000 -0.987217 -0.159382
vn 0.000000 -0.987217 -0.159382
vn 0.000000 0.999882 0.015388
vn 0.000000 0.999882 0.015388
vn 0.000000 0.999882 0.015388
vn 0.000000 0.999882 0.015388
vn -0.171768 -0.985137 0.000000
vn -0.171768 -0.985137 0.000000
vn -0.171768 -0.985137 0.000000
vn -0.171768 -0.985137 0.000000
vn 0.016618 0.999862 0.000000
vn 0.016618 0.999862 0.000000
vn 0.016618 0.999862 0.000000
vn 0.016618 0.999862 0.000000
f 1/1/1 2/2/2 4/4/3 3/3/4
f 15/28/5 16/29/6 6/6/7 5/5/8
f 5/5/9 6/6/10 8/8/11 7/7/12
f 7/7/13 8/8/14 13/23/15 14/26/16
f 16/30/17 13/24/18 8/11/19 6/12/20
f 7/13/21 14/25/22 15/27/23 5/14/24
f 10/18/25 9/15/26 2/10/27 1/9/28
f 11/19/29 10/17/30 1/1/31 3/3/32
f 3/3/33 4/4/34 12/21/35 11/20/36
f 2/2/37 9/16/38 12/22/39 4/4/40
f 14/26/16 13/23/15 9/15/26 10/18/25
f 18/31/41 17/32/42 19/33/43 20/34/44
f 29/43/45 30/44/46 31/45/47 32/46/48
f 21/35/49 22/36/50 23/37/51 24/38/52
f 15/27/53 14/25/54 17/32/55 18/31/56
f 14/25/57 10/17/58 19/33/59 17/32/60
f 10/17/61 11/19/62 20/34/63 19/33/64
f 11/19/65 15/27/66 18/31/67 20/34/68
f 12/22/69 9/16/70 22/36/71 21/35/72
f 9/16/73 13/24/74 23/37/75 22/36/76
f 13/24/77 16/30/78 24/38/79 23/37/80
f 16/30/81 12/22/82 21/35/83 24/38/84
f 11/20/85 12/21/86 26/40/87 25/39/88
f 12/21/89 16/29/90 27/41/91 26/40/92
f 16/29/93 15/28/94 28/42/95 27/41/96
f 15/28/97 11/20/98 25/39/99 28/42/100
f 33/47/101 34/48/102 35/49/103 36/50/104
f 34/48/105 37/51/106 38/52/107 35/49/108
f 37/51/109 39/53/110 40/54/111 38/52/112
f 39/53/113 33/47/114 36/50/115 40/54/116
f 25/39/117 26/40/118 34/48/119 33/47/120
f 30/44/121 29/43/122 36/50/123 35/49/124
f 26/40/125 27/41/126 37/51/127 34/48/128
f 31/45/129 30/44/130 35/49/131 38/52/132
f 27/41/133 28/42/134 39/53/135 37/51/136
f 32/46/137 31/45/138 38/52/139 40/54/140
f 28/42/141 25/39/142 33/47/143 39/53/144
f 29/43/145 32/46/146 40/54/147 36/50/148
