# This file uses centimeters as units for non-parametric coordinates.

v 8.923488 2.733363 14.579566
v 9.961744 2.733363 14.579566
v 11.000000 2.733363 14.579566
v 12.038256 2.733363 14.579566
v 13.076512 2.733363 14.579566
v 8.923488 3.140636 14.579566
v 9.961744 3.140636 14.579566
v 11.000000 3.140636 14.579566
v 12.038256 3.140636 14.579566
v 13.076512 3.140636 14.579566
v 8.923488 3.140636 13.789783
v 9.961744 3.140636 13.789783
v 11.000000 3.140636 13.789783
v 12.038256 3.140636 13.789783
v 13.076512 3.140636 13.789783
v 8.923488 3.140636 13.000000
v 9.961744 3.140636 13.000000
v 11.000000 3.140636 13.000000
v 12.038256 3.140636 13.000000
v 13.076512 3.140636 13.000000
v 8.923488 3.140636 12.210217
v 9.961744 3.140636 12.210217
v 11.000000 3.140636 12.210217
v 12.038256 3.140636 12.210217
v 13.076512 3.140636 12.210217
v 8.923488 3.140636 11.420434
v 9.961744 3.140636 11.420434
v 11.000000 3.140636 11.420434
v 12.038256 3.140636 11.420434
v 13.076512 3.140636 11.420434
v 8.923488 2.733363 11.420434
v 9.961744 2.733363 11.420434
v 11.000000 2.733363 11.420434
v 12.038256 2.733363 11.420434
v 13.076512 2.733363 11.420434
v 8.923488 2.733363 12.210217
v 9.961744 2.733363 12.210217
v 11.000000 2.733363 12.210217
v 12.038256 2.733363 12.210217
v 13.076512 2.733363 12.210217
v 8.923488 2.733363 13.000000
v 9.961744 2.733363 13.000000
v 12.038256 2.733363 13.000000
v 13.076512 2.733363 13.000000
v 8.923488 2.733363 13.789783
v 9.961744 2.733363 13.789783
v 11.000000 2.733363 13.789783
v 12.038256 2.733363 13.789783
v 13.076512 2.733363 13.789783
v 9.800701 2.937000 14.824570
v 8.601402 2.937000 14.824570
v 8.601402 2.937000 13.912285
v 8.601402 2.937000 13.000000
v 8.601402 2.937000 12.087715
v 8.601402 2.937000 11.175430
v 9.800701 2.937000 11.175430
v 11.000000 2.937000 11.175430
v 12.199299 2.937000 11.175430
v 13.398598 2.937000 11.175430
v 13.398598 2.937000 12.087715
v 13.398598 2.937000 13.000000
v 13.398598 2.937000 13.912285
v 13.398598 2.937000 14.824570
v 12.199299 2.937000 14.824570
v 11.000000 2.937000 14.824570
v 10.659347 0.473122 12.740872
v 11.000000 0.473122 12.740872
v 10.659347 0.473122 13.000000
v 11.340653 0.473122 12.740872
v 11.340653 0.473122 13.000000
v 11.000000 0.473122 13.259128
v 10.659347 0.473122 13.259128
v 11.340653 0.473122 13.259128
v 9.732995 0.183006 12.036212
v 11.000000 0.183006 12.036212
v 11.000000 0.183006 13.000000
v 9.732995 0.183006 13.000000
v 12.267005 0.183006 12.036212
v 12.267005 0.183006 13.000000
v 11.000000 0.183006 13.963788
v 9.732995 0.183006 13.963788
v 12.267005 0.183006 13.963788
vt 0.962523 0.523599
vt 0.240836 0.875130
vt 0.919023 0.625032
vt 0.896429 0.559914
vt 0.240798 0.827347
vt 0.913975 0.693759
vt 0.240761 0.779564
vt 0.886469 0.755480
vt 0.240724 0.731782
vt 0.840490 0.800641
vt 0.843928 0.600890
vt 0.840245 0.635606
vt 0.329888 0.791497
vt 0.808915 0.580831
vt 0.831304 0.673719
vt 0.329248 0.743719
vt 0.819742 0.713046
vt 0.328608 0.695940
vt 0.799664 0.748039
vt 0.764945 0.744347
vt 0.377666 0.790857
vt 0.769584 0.569277
vt 0.377026 0.743079
vt 0.376386 0.695300
vt 0.726831 0.735408
vt 0.425445 0.790217
vt 0.731465 0.560346
vt 0.424805 0.742439
vt 0.424165 0.694660
vt 0.687508 0.723852
vt 0.676700 0.591667
vt 0.696737 0.556671
vt 0.665142 0.630986
vt 0.656204 0.669093
vt 0.652514 0.703804
vt 0.655754 0.504153
vt 0.609846 0.549343
vt 0.542576 0.503607
vt 0.619170 0.438286
vt 0.582422 0.611021
vt 0.500808 0.592357
vt 0.577411 0.679652
vt 0.497357 0.689812
vt 0.599918 0.744712
vt 0.533859 0.781074
vt 0.088699 0.092004
vt 0.710478 0.401648
vt 0.307275 0.000977
vt 0.526770 0.088669
vt 0.599027 0.857707
vt 0.000977 0.311675
vt 0.808080 0.405020
vt 0.437635 0.972205
vt 0.437635 0.913894
vt 0.495945 0.913894
vt 0.495945 0.972205
vt 0.437635 0.855584
vt 0.495945 0.855584
vt 0.687704 0.899600
vt 0.617812 0.307330
vt 0.092019 0.530336
vt 0.897028 0.446828
vt 0.554255 0.913894
vt 0.554255 0.972205
vt 0.554255 0.855584
vt 0.785188 0.903193
vt 0.530090 0.527001
vt 0.311514 0.618028
vt 0.645057 0.790623
vt 0.706714 0.818076
vt 0.775366 0.823125
vt 0.720847 0.481584
vt 0.789552 0.486561
vt 0.851288 0.513988
vt 0.838512 0.255467
vt 0.846305 0.242956
vt 0.951081 0.241143
vt 0.918358 0.328829
vt 0.824136 0.251724
vt 0.826194 0.355768
vt 0.849832 0.228782
vt 0.923894 0.148978
vt 0.302710 0.326606
vt 0.316881 0.327074
vt 0.326385 0.316173
vt 0.292404 0.302832
vt 0.291904 0.316991
vt 0.326885 0.302014
vt 0.316079 0.292399
vt 0.301907 0.291931
vt 0.192941 0.731819
vt 0.876577 0.866785
vt 0.193090 0.922950
vt 0.240873 0.922913
vt 0.145158 0.731856
vt 0.145195 0.779639
vt 0.192978 0.779602
vt 0.145270 0.875205
vt 0.193053 0.875167
vt 0.145307 0.922987
vt 0.097375 0.731894
vt 0.097413 0.779676
vt 0.097487 0.875242
vt 0.097525 0.923025
vt 0.049593 0.731931
vt 0.049742 0.923062
vt 0.423525 0.646882
vt 0.471303 0.646242
vt 0.426085 0.837996
vt 0.473863 0.837356
vt 0.375746 0.647522
vt 0.378307 0.838636
vt 0.327968 0.648162
vt 0.330528 0.839276
vt 0.280189 0.648802
vt 0.282750 0.839916
vt 0.193016 0.827385
vt 0.097450 0.827459
vt 0.049630 0.779714
vt 0.049667 0.827497
vt 0.049705 0.875279
vt 0.471943 0.694020
vt 0.472583 0.741799
vt 0.473223 0.789577
vt 0.280829 0.696581
vt 0.281469 0.744359
vt 0.282110 0.792137
vt 0.953367 0.801617
vt 0.995394 0.712822
vt 0.999023 0.615147
vt 0.837838 0.220756
vt 0.836040 0.116220
vt 0.815717 0.229211
vt 0.812139 0.243369
vt 0.738392 0.323424
vt 0.711076 0.231308
vt 0.823801 0.217216
vt 0.743812 0.143448
vn 0.000000 -0.769045 0.639195
vn 0.000000 -0.769045 0.639195
vn 0.000000 0.000000 1.000000
vn 0.000000 0.000000 1.000000
vn 0.000000 -0.769045 0.639195
vn 0.000000 0.000000 1.000000
vn 0.000000 -0.769045 0.639195
vn 0.000000 -0.000000 1.000000
vn 0.000000 -0.769045 0.639195
vn 0.000000 0.000000 1.000000
vn 0.000000 1.000000 0.000000
vn 0.000000 1.000000 0.000000
vn 0.000000 1.000000 0.000000
vn 0.000000 1.000000 0.000000
vn 0.000000 1.000000 0.000000
vn 0.000000 1.000000 0.000000
vn 0.000000 1.000000 0.000000
vn 0.000000 1.000000 0.000000
vn 0.000000 1.000000 0.000000
vn 0.000000 1.000000 0.000000
vn 0.000000 1.000000 0.000000
vn 0.000000 1.000000 0.000000
vn 0.000000 1.000000 0.000000
vn 0.000000 1.000000 0.000000
vn 0.000000 1.000000 0.000000
vn 0.000000 1.000000 0.000000
vn 0.000000 1.000000 0.000000
vn 0.000000 1.000000 0.000000
vn 0.000000 1.000000 0.000000
vn 0.000000 1.000000 0.000000
vn 0.000000 1.000000 0.000000
vn 0.000000 1.000000 0.000000
vn 0.000000 1.000000 0.000000
vn 0.000000 1.000000 0.000000
vn 0.000000 1.000000 0.000000
vn 0.000000 0.000000 -1.000000
vn 0.000000 0.000000 -1.000000
vn 0.000000 -0.769045 -0.639195
vn 0.000000 -0.769045 -0.639195
vn 0.000000 0.000000 -1.000000
vn 0.000000 -0.769045 -0.639195
vn 0.000000 0.000000 -1.000000
vn 0.000000 -0.769045 -0.639195
vn 0.000000 0.000000 -1.000000
vn 0.000000 -0.769045 -0.639195
vn 0.000000 -1.000000 0.000000
vn 0.000000 -1.000000 0.000000
vn 0.000000 -1.000000 0.000000
vn 0.000000 -1.000000 0.000000
vn 0.000000 -1.000000 0.000000
vn 0.000000 -1.000000 0.000000
vn 0.000000 -1.000000 0.000000
vn 0.000000 -1.000000 0.000000
vn 0.000000 -1.000000 0.000000
vn 0.000000 -1.000000 0.000000
vn 0.000000 -1.000000 0.000000
vn 0.000000 -1.000000 0.000000
vn 0.000000 -1.000000 0.000000
vn 0.000000 -1.000000 0.000000
vn 0.000000 -1.000000 0.000000
vn 0.000000 -1.000000 0.000000
vn -0.000000 -1.000000 0.000000
vn -0.000000 -1.000000 0.000000
vn 0.000000 -1.000000 0.000000
vn 0.000000 -1.000000 0.000000
vn 0.000000 -1.000000 0.000000
vn 0.000000 -1.000000 0.000000
vn 0.000000 -1.000000 -0.000000
vn 0.000000 -1.000000 -0.000000
vn -0.000000 -1.000000 -0.000000
vn 0.000000 -1.000000 0.000000
vn 0.000000 -1.000000 0.000000
vn 0.000000 -1.000000 0.000000
vn 0.000000 -1.000000 0.000000
vn 0.000000 -1.000000 0.000000
vn 0.000000 -1.000000 0.000000
vn 0.000000 -1.000000 0.000000
vn 0.000000 -1.000000 0.000000
vn 0.534395 -0.845235 0.000000
vn 0.534395 -0.845235 0.000000
vn 1.000000 0.000000 0.000000
vn 1.000000 0.000000 0.000000
vn 0.534395 -0.845235 0.000000
vn 1.000000 0.000000 0.000000
vn 0.534395 -0.845235 0.000000
vn 1.000000 -0.000000 0.000000
vn 0.534395 -0.845235 0.000000
vn 1.000000 -0.000000 0.000000
vn -0.534395 -0.845235 0.000000
vn -0.534395 -0.845235 0.000000
vn -1.000000 0.000000 0.000000
vn -1.000000 0.000000 0.000000
vn -0.534395 -0.845235 0.000000
vn -1.000000 0.000000 0.000000
vn -0.534395 -0.845235 0.000000
vn -1.000000 0.000000 0.000000
vn -0.534395 -0.845235 0.000000
vn -1.000000 0.000000 0.000000
vn 0.000000 0.769044 0.639195
vn 0.000000 0.769044 0.639195
vn -0.534395 0.845235 0.000000
vn -0.534395 0.845235 0.000000
vn -0.534395 0.845235 0.000000
vn -0.534395 0.845235 0.000000
vn -0.534395 0.845235 0.000000
vn 0.000000 0.769044 -0.639195
vn 0.000000 0.769044 -0.639195
vn 0.000000 0.769044 -0.639195
vn 0.000000 0.769044 -0.639195
vn 0.000000 0.769044 -0.639195
vn 0.534395 0.845235 0.000000
vn 0.534395 0.845235 0.000000
vn 0.534395 0.845235 0.000000
vn 0.534395 0.845235 0.000000
vn 0.534395 0.845235 0.000000
vn 0.000000 0.769044 0.639195
vn 0.000000 0.769044 0.639195
vn 0.000000 0.769044 0.639195
vn 0.000000 -0.228563 -0.973529
vn 0.000000 -0.228563 -0.973529
vn 0.000000 -0.228563 -0.973529
vn 0.000000 -0.228563 -0.973529
vn -0.955524 -0.294914 0.000000
vn -0.955524 -0.294914 0.000000
vn -0.955524 -0.294914 0.000000
vn -0.955524 -0.294914 0.000000
vn 0.000000 -0.228563 -0.973529
vn 0.000000 -0.228563 -0.973529
vn 0.000000 -0.228563 -0.973529
vn 0.000000 -0.228563 -0.973529
vn 0.955524 -0.294914 0.000000
vn 0.955524 -0.294914 0.000000
vn 0.955524 -0.294914 0.000000
vn 0.955524 -0.294914 0.000000
vn 0.000000 -0.228563 0.973529
vn 0.000000 -0.228563 0.973529
vn 0.000000 -0.228563 0.973529
vn 0.000000 -0.228563 0.973529
vn -0.955524 -0.294914 0.000000
vn -0.955524 -0.294914 0.000000
vn -0.955524 -0.294914 0.000000
vn -0.955524 -0.294914 0.000000
vn 0.955524 -0.294914 0.000000
vn 0.955524 -0.294914 0.000000
vn 0.955524 -0.294914 0.000000
vn 0.955524 -0.294914 0.000000
vn 0.000000 -0.228563 0.973529
vn 0.000000 -0.228563 0.973529
vn 0.000000 -0.228563 0.973529
vn 0.000000 -0.228563 0.973529
vn 0.000000 0.924696 -0.380707
vn 0.000000 0.924696 -0.380708
vn 0.000000 0.924696 -0.380708
vn 0.000000 0.924696 -0.380708
vn -0.298867 0.954295 0.000000
vn -0.298867 0.954295 0.000000
vn -0.298867 0.954295 0.000000
vn -0.298867 0.954295 0.000000
vn 0.000000 0.924696 -0.380708
vn 0.000000 0.924696 -0.380707
vn 0.000000 0.924696 -0.380708
vn 0.000000 0.924696 -0.380708
vn 0.298867 0.954295 0.000000
vn 0.298867 0.954295 0.000000
vn 0.298867 0.954295 0.000000
vn 0.298867 0.954295 0.000000
vn 0.000000 0.924696 0.380708
vn 0.000000 0.924696 0.380707
vn 0.000000 0.924696 0.380708
vn 0.000000 0.924696 0.380708
vn -0.298867 0.954295 0.000000
vn -0.298867 0.954295 0.000000
vn -0.298867 0.954295 0.000000
vn -0.298867 0.954295 0.000000
vn 0.298867 0.954295 0.000000
vn 0.298867 0.954295 0.000000
vn 0.298867 0.954295 0.000000
vn 0.298867 0.954295 0.000000
vn 0.000000 0.924696 0.380707
vn 0.000000 0.924696 0.380708
vn 0.000000 0.924696 0.380708
vn 0.000000 0.924696 0.380708
f 1/1/1 2/130/2 50/3/3 51/4/4
f 2/130/2 3/129/5 65/6/6 50/3/3
f 3/129/5 4/128/7 64/8/8 65/6/6
f 4/128/7 5/92/9 63/10/10 64/8/8
f 6/116/11 7/127/12 12/13/13 11/114/14
f 7/127/12 8/126/15 13/16/16 12/13/13
f 8/126/15 9/125/17 14/18/18 13/16/16
f 9/125/17 10/115/19 15/113/20 14/18/18
f 11/114/14 12/13/13 17/21/21 16/112/22
f 12/13/13 13/16/16 18/23/23 17/21/21
f 13/16/16 14/18/18 19/24/24 18/23/23
f 14/18/18 15/113/20 20/111/25 19/24/24
f 16/112/22 17/21/21 22/26/26 21/109/27
f 17/21/21 18/23/23 23/28/28 22/26/26
f 18/23/23 19/24/24 24/29/29 23/28/28
f 19/24/24 20/111/25 25/107/30 24/29/29
f 21/109/27 22/26/26 27/124/31 26/110/32
f 22/26/26 23/28/28 28/123/33 27/124/31
f 23/28/28 24/29/29 29/122/34 28/123/33
f 24/29/29 25/107/30 30/108/35 29/122/34
f 55/36/36 56/37/37 32/38/38 31/39/39
f 56/37/37 57/40/40 33/41/41 32/38/38
f 57/40/40 58/42/42 34/43/43 33/41/41
f 58/42/42 59/44/44 35/45/45 34/43/43
f 31/106/46 32/121/47 37/103/48 36/104/49
f 32/121/47 33/120/50 38/118/51 37/103/48
f 33/120/50 34/119/52 39/102/53 38/118/51
f 34/119/52 35/105/54 40/101/55 39/102/53
f 36/104/49 37/103/48 42/98/56 41/100/57
f 74/53/58 75/54/59 76/55/60 77/56/61
f 75/54/59 78/57/62 79/58/63 76/55/60
f 39/102/53 40/101/55 44/95/64 43/96/65
f 41/100/57 42/98/56 46/99/66 45/93/67
f 77/56/61 76/55/60 80/63/68 81/64/69
f 76/55/60 79/58/63 82/65/70 80/63/68
f 43/96/65 44/95/64 49/91/71 48/97/72
f 45/93/67 46/99/66 2/2/73 1/94/74
f 46/99/66 47/117/75 3/5/76 2/2/73
f 47/117/75 48/97/72 4/7/77 3/5/76
f 48/97/72 49/91/71 5/9/78 4/7/77
f 40/50/79 35/45/80 59/44/81 60/69/82
f 44/59/83 40/50/79 60/69/82 61/70/84
f 49/66/85 44/59/83 61/70/84 62/71/86
f 5/92/87 49/66/85 62/71/86 63/10/88
f 31/39/89 36/47/90 54/72/91 55/36/92
f 36/47/90 41/52/93 53/73/94 54/72/91
f 41/52/93 45/62/95 52/74/96 53/73/94
f 45/62/95 1/1/97 51/4/98 52/74/96
f 51/4/4 50/3/3 7/12/99 6/11/100
f 52/74/96 51/4/98 6/11/101 11/14/102
f 53/73/94 52/74/96 11/14/102 16/22/103
f 54/72/91 53/73/94 16/22/103 21/27/104
f 55/36/92 54/72/91 21/27/104 26/32/105
f 26/32/106 27/31/107 56/37/37 55/36/36
f 27/31/107 28/33/108 57/40/40 56/37/37
f 28/33/108 29/34/109 58/42/42 57/40/40
f 29/34/109 30/35/110 59/44/44 58/42/42
f 60/69/82 59/44/81 30/35/111 25/30/112
f 61/70/84 60/69/82 25/30/112 20/25/113
f 62/71/86 61/70/84 20/25/113 15/20/114
f 63/10/88 62/71/86 15/20/114 10/19/115
f 64/8/8 63/10/10 10/19/116 9/17/117
f 65/6/6 64/8/8 9/17/117 8/15/118
f 50/3/3 65/6/6 8/15/118 7/12/99
f 37/46/119 38/48/120 67/89/121 66/90/122
f 42/51/123 37/46/124 66/90/125 68/86/126
f 38/48/127 39/49/128 69/88/129 67/89/130
f 39/49/131 43/60/132 70/85/133 69/88/134
f 47/68/135 46/61/136 72/87/137 71/83/138
f 46/61/139 42/51/140 68/86/141 72/87/142
f 43/60/143 48/67/144 73/84/145 70/85/146
f 48/67/147 47/68/148 71/83/149 73/84/150
f 66/75/151 67/76/152 75/77/153 74/78/154
f 68/79/155 66/75/156 74/78/157 77/80/158
f 67/76/159 69/81/160 78/82/161 75/77/162
f 69/81/163 70/131/164 79/132/165 78/82/166
f 71/133/167 72/134/168 81/135/169 80/136/170
f 72/134/171 68/79/172 77/80/173 81/135/174
f 70/131/175 73/137/176 82/138/177 79/132/178
f 73/137/179 71/133/180 80/136/181 82/138/182
