# This file uses centimeters as units for non-parametric coordinates.

v -12.724227 -0.000000 12.724227
v 12.724227 -0.000000 12.724227
v -12.724227 0.000000 -12.724227
v 12.724227 0.000000 -12.724227
vt 0.000000 0.000000
vt 1.000000 0.000000
vt 0.000000 1.000000
vt 1.000000 1.000000
vn 0.000000 1.000000 0.000000
vn 0.000000 1.000000 0.000000
vn 0.000000 1.000000 0.000000
vn 0.000000 1.000000 0.000000
f 1/1/1 2/2/2 4/4/3 3/3/4
v -12.724227 -0.000000 12.724227
v 12.724227 -0.000000 12.724227
v -12.724227 0.000000 -12.724227
v 12.724227 0.000000 -12.724227
vt 0.000000 0.000000
vt 1.000000 0.000000
vt 0.000000 1.000000
vt 1.000000 1.000000
vn 0.000000 1.000000 0.000000
vn 0.000000 1.000000 0.000000
vn 0.000000 1.000000 0.000000
vn 0.000000 1.000000 0.000000
f 5/5/5 6/6/6 8/8/7 7/7/8
