# This file uses centimeters as units for non-parametric coordinates.

v -0.010459 0.002444 -0.023103
v -0.027539 0.002444 -0.026242
v -0.010459 0.011004 -0.023103
v -0.027539 0.011004 -0.026242
v -0.013982 0.011004 -0.003933
v -0.031062 0.011004 -0.007072
v -0.046253 0.002366 -0.010217
v -0.044507 0.002444 -0.019464
v -0.046253 0.007918 -0.010217
v -0.044507 0.007840 -0.019464
v 0.001334 0.002366 -0.001472
v 0.002990 0.002444 -0.010735
v 0.002990 0.007840 -0.010735
v 0.001334 0.007918 -0.001472
v -0.017291 0.007647 -0.000810
v -0.029080 0.007647 -0.002977
v -0.029080 0.003717 -0.002977
v -0.017291 0.003717 -0.000810
v -0.044142 0.008998 -0.006098
v -0.044142 0.002366 -0.006098
v -0.002103 0.002366 0.001628
v -0.002103 0.008998 0.001628
v -0.016756 0.008920 0.011159
v -0.033836 0.008920 0.008020
v -0.033836 0.002444 0.008020
v -0.016756 0.002444 0.011159
v -0.068673 -0.008595 -0.041021
v 0.000015 -0.008595 -0.022624
v 0.068699 -0.008595 -0.041036
v -0.137346 -0.008595 0.077955
v 0.000030 -0.008595 0.114749
v 0.137399 -0.008595 0.077925
v -0.141121 0.003478 0.084494
v 0.000031 0.003478 0.122299
v 0.141175 0.003478 0.084463
v -0.117445 0.003478 0.043476
v 0.000026 0.003478 0.074938
v 0.117490 0.003478 0.043450
v 0.000000 -0.008595 -0.159996
v 0.000000 0.003478 -0.159996
v -0.137346 0.016638 0.077955
v -0.135076 0.021025 0.074022
v 0.000030 0.021025 0.110208
v 0.000030 0.016638 0.114749
v 0.000027 0.016571 0.082142
v 0.000027 0.021092 0.086822
v -0.123386 0.021092 0.053769
v -0.121046 0.016571 0.049715
v 0.135128 0.021025 0.073992
v 0.137399 0.016638 0.077925
v 0.121092 0.016571 0.049689
v 0.123433 0.021092 0.053741
v 0.117381 -0.008595 0.043261
v 0.000027 -0.008595 0.087817
v -0.118130 -0.008595 0.044663
v -0.121684 -0.002425 0.046332
v -0.139269 -0.002445 0.081286
v 0.000031 -0.002445 0.118595
v 0.139322 -0.002445 0.081255
v 0.123948 -0.002425 0.045600
v 0.001312 -0.003346 -0.166757
vt 0.176765 0.552714
vt 0.284142 0.552714
vt 0.284142 0.660091
vt 0.176765 0.660091
vt 0.284142 0.767468
vt 0.176765 0.767468
vt 0.176765 0.767468
vt 0.284142 0.767468
vt 0.284142 0.874846
vt 0.176765 0.874846
vt 0.284142 0.552714
vt 0.391520 0.552714
vt 0.391520 0.660091
vt 0.284142 0.660091
vt 0.069387 0.552714
vt 0.176765 0.552714
vt 0.176765 0.660091
vt 0.069387 0.660091
vt 0.391520 0.552714
vt 0.391520 0.660091
vt 0.391520 0.660091
vt 0.391520 0.552714
vt 0.391520 0.660091
vt 0.069387 0.660091
vt 0.069387 0.660091
vt 0.069387 0.552714
vt 0.069387 0.552714
vt 0.069387 0.660091
vt 0.284142 0.767468
vt 0.176765 0.767468
vt 0.176765 0.874846
vt 0.284142 0.874846
vt 0.783337 0.132668
vt 0.747446 0.153393
vt 0.690829 0.096764
vt 0.762597 0.055317
vt 0.726704 0.189295
vt 0.649333 0.168565
vt 0.471667 0.399373
vt 0.374305 0.499263
vt 0.369624 0.484558
vt 0.464665 0.392539
vt 0.191265 0.499263
vt 0.195948 0.484556
vt 0.804064 0.210024
vt 0.977792 0.690843
vt 0.941451 0.826471
vt 0.706537 0.690843
vt 0.842165 0.925757
vt 0.457561 0.385234
vt 0.454116 0.381741
vt 0.365169 0.469281
vt 0.362970 0.461926
vt 0.200402 0.469281
vt 0.202602 0.461926
vt 0.319172 0.371815
vt 0.320155 0.377078
vt 0.235589 0.377081
vt 0.236570 0.371818
vt 0.369073 0.330859
vt 0.370940 0.333471
vt 0.433906 0.359678
vt 0.369534 0.424051
vt 0.359533 0.406730
vt 0.416586 0.349678
vt 0.281599 0.447613
vt 0.281599 0.427613
vt 0.317688 0.361317
vt 0.365698 0.325561
vt 0.238054 0.361321
vt 0.671878 0.174605
vt 0.701928 0.107866
vt 0.768401 0.076962
vt 0.468100 0.395892
vt 0.371920 0.491772
vt 0.193651 0.491771
vt 0.811630 0.330450
vt 0.811630 0.193221
vt 0.855662 0.215099
vt 0.855437 0.309577
vt 0.791879 0.313388
vt 0.791814 0.203955
vt 0.870337 0.228257
vt 0.870562 0.296016
vt 0.771238 0.326479
vt 0.771238 0.215099
vt 0.862698 0.260182
vt 0.862698 0.125541
vt 0.899920 0.146022
vt 0.900112 0.238717
vt 0.845860 0.249652
vt 0.845916 0.140017
vt 0.912772 0.159327
vt 0.912581 0.225808
vt 0.828377 0.238717
vt 0.828377 0.124921
vt 0.758041 0.429608
vt 0.728624 0.600179
vt 0.725028 0.595854
vt 0.741040 0.500549
vt 0.752572 0.431912
vt 0.734699 0.597479
vt 0.762083 0.434488
vt 0.746196 0.427618
vt 0.713928 0.624192
vt 0.709701 0.619108
vt 0.722803 0.541126
vt 0.741292 0.431077
vt 0.719343 0.620907
vt 0.750963 0.432701
vn 0.180760 0.000000 -0.983527
vn 0.180760 0.000000 -0.983527
vn 0.180760 0.000000 -0.983527
vn 0.180760 0.000000 -0.983527
vn 0.000000 1.000000 0.000000
vn 0.000000 1.000000 0.000000
vn 0.000000 1.000000 0.000000
vn 0.000000 1.000000 0.000000
vn -0.180757 0.000000 0.983528
vn -0.180757 0.000000 0.983528
vn -0.180757 0.000000 0.983528
vn -0.180757 0.000000 0.983528
vn -0.982632 0.000000 -0.185564
vn -0.982632 0.000000 -0.185564
vn -0.982632 0.000000 -0.185564
vn -0.982632 0.000000 -0.185564
vn 0.984400 0.000000 0.175946
vn 0.984400 0.000000 0.175946
vn 0.984400 0.000000 0.175946
vn 0.984400 0.000000 0.175946
vn -0.202931 0.000000 0.979193
vn -0.202931 0.000000 0.979193
vn -0.202931 0.000000 0.979193
vn -0.202931 0.000000 0.979193
vn -0.194843 0.980066 -0.038824
vn -0.194843 0.980066 -0.038824
vn -0.194843 0.980066 -0.038824
vn -0.194843 0.980066 -0.038824
vn -0.370971 0.000000 -0.928644
vn -0.370971 0.000000 -0.928644
vn -0.370971 0.000000 -0.928644
vn -0.370971 0.000000 -0.928644
vn 0.676920 0.000000 -0.736056
vn 0.676920 0.000000 -0.736056
vn 0.676920 0.000000 -0.736056
vn 0.676920 0.000000 -0.736056
vn 0.195913 0.980066 0.032994
vn 0.195913 0.980066 0.032994
vn 0.195913 0.980066 0.032994
vn 0.195913 0.980066 0.032994
vn -0.158493 0.000000 0.987360
vn -0.158493 0.000000 0.987360
vn -0.158493 0.000000 0.987360
vn -0.158493 0.000000 0.987360
vn -0.122012 0.737840 0.663857
vn -0.122012 0.737840 0.663857
vn -0.122012 0.737840 0.663857
vn -0.122012 0.737840 0.663857
vn -0.120214 0.939649 0.320325
vn -0.120214 0.939649 0.320325
vn -0.120214 0.939649 0.320325
vn -0.120214 0.939649 0.320325
vn -0.889973 0.000000 0.456014
vn -0.889973 0.000000 0.456014
vn -0.889973 0.000000 0.456014
vn -0.889973 0.000000 0.456013
vn 0.669674 0.000000 0.742655
vn 0.669674 0.000000 0.742655
vn 0.669674 0.000000 0.742655
vn 0.669674 0.000000 0.742655
vn -0.001545 0.939648 0.342138
vn -0.001545 0.939648 0.342138
vn -0.001545 0.939648 0.342138
vn -0.001545 0.939648 0.342138
vn 0.019602 0.994103 -0.106656
vn 0.019602 0.994103 -0.106656
vn 0.019602 0.994103 -0.106655
vn 0.019602 0.994103 -0.106656
vn -0.917830 0.000000 -0.396973
vn -0.917830 0.000000 -0.396973
vn -0.917830 0.000000 -0.396973
vn -0.917830 0.000000 -0.396973
vn 0.999002 0.000000 -0.044676
vn 0.999002 0.000000 -0.044676
vn 0.999002 0.000000 -0.044676
vn 0.999002 0.000000 -0.044676
vn -0.000000 -1.000000 -0.000001
vn -0.000000 -1.000000 -0.000000
vn -0.000000 -1.000000 -0.000000
vn -0.000000 -1.000000 -0.000000
vn 0.000000 -1.000000 0.000000
vn -0.000000 -1.000000 -0.000000
vn -0.221441 -0.517083 0.826795
vn -0.221441 -0.517083 0.826795
vn -0.253955 0.190871 0.948196
vn -0.253955 0.190871 0.948196
vn 0.221625 -0.517081 0.826746
vn 0.221625 -0.517081 0.826746
vn 0.254165 0.190872 0.948139
vn 0.254165 0.190872 0.948139
vn -0.000000 -1.000000 -0.000000
vn 0.000000 1.000000 0.000000
vn 0.000000 1.000000 0.000000
vn 0.000000 1.000000 0.000000
vn 0.000000 1.000000 0.000000
vn -0.182938 0.707116 0.683023
vn -0.182938 0.707116 0.683023
vn 0.000075 0.719263 0.694738
vn 0.000075 0.719263 0.694738
vn 0.183086 0.707115 0.682985
vn 0.183086 0.707115 0.682985
vn -0.000073 0.719265 -0.694736
vn -0.000073 0.719265 -0.694736
vn -0.183084 0.707116 -0.682984
vn -0.183084 0.707116 -0.682984
vn 0.182940 0.707118 -0.683021
vn 0.182940 0.707118 -0.683021
vn -0.000770 0.999996 0.002878
vn 0.000000 0.999996 0.002877
vn 0.000000 0.999996 0.002877
vn -0.000770 0.999996 0.002878
vn 0.000771 0.999996 0.002876
vn 0.000771 0.999996 0.002876
vn -0.226286 0.484720 0.844891
vn -0.226286 0.484720 0.844891
vn -0.000097 0.482058 -0.876139
vn 0.228451 0.469299 -0.852976
vn 0.228451 0.469299 -0.852976
vn -0.000097 0.482058 -0.876139
vn 0.226474 0.484722 0.844840
vn 0.226474 0.484722 0.844840
vn -0.228640 0.469301 -0.852925
vn -0.228640 0.469301 -0.852925
vn 0.867638 0.122521 -0.481864
vn 0.745350 0.510810 -0.428401
vn 0.865970 0.000000 -0.500096
vn 0.865970 0.000000 -0.500096
vn -0.866080 0.000000 -0.499905
vn -0.866080 0.000000 -0.499905
vn -0.866081 0.000002 -0.499904
vn -0.866081 0.000002 -0.499904
vn 0.865970 0.000000 -0.500096
vn 0.865970 0.000000 -0.500096
vn 0.883341 0.136911 -0.448290
vn 0.873319 0.003164 -0.487139
vn -0.000001 -1.000000 -0.000001
vn -0.000000 -1.000000 -0.000000
vn 0.000000 -1.000000 0.000000
vn -0.869438 -0.019797 -0.493646
vn 0.179871 0.052527 -0.982287
vn -0.053333 -0.758390 -0.649616
vn -0.806470 -0.365605 -0.464692
vn -0.812185 -0.351873 -0.465339
vn -0.830936 0.283774 -0.478558
vn -0.876973 0.071265 -0.475226
vn -0.868576 0.061097 -0.491775
vn 0.690472 -0.606878 -0.393634
vn 0.679682 -0.620517 -0.391140
vn -0.863295 -0.194822 -0.465581
vn -0.221442 -0.517081 0.826795
vn -0.221442 -0.517081 0.826795
vn 0.221624 -0.517081 0.826747
vn 0.221624 -0.517081 0.826747
vn 0.826818 -0.378291 -0.416254
vn -0.046884 0.722286 -0.690003
f 1/1/1 2/2/2 4/3/3 3/4/4
f 3/4/5 4/3/6 6/5/7 5/6/8
f 23/7/9 24/8/10 25/9/11 26/10/12
f 8/11/13 7/12/14 9/13/15 10/14/16
f 11/15/17 12/16/18 13/17/19 14/18/20
f 17/19/21 16/20/22 19/21/23 20/22/24
f 6/23/25 4/3/26 10/14/27 9/13/28
f 4/3/29 2/2/30 8/11/31 10/14/32
f 1/1/33 3/4/34 13/17/35 12/16/36
f 3/4/37 5/24/38 14/18/39 13/17/40
f 15/25/41 18/26/42 21/27/43 22/28/44
f 5/6/45 6/5/46 16/29/47 15/30/48
f 6/23/49 9/13/50 19/21/51 16/20/52
f 9/13/53 7/12/54 20/22/55 19/21/56
f 11/15/57 14/18/58 22/28/59 21/27/60
f 14/18/61 5/24/62 15/25/63 22/28/64
f 15/30/65 16/29/66 24/8/67 23/7/68
f 16/29/69 17/32/70 25/9/71 24/8/72
f 18/31/73 15/30/74 23/7/75 26/10/76
f 27/33/77 28/34/78 54/72/79 55/73/80
f 28/34/78 29/37/81 53/71/82 54/72/79
f 57/74/83 58/75/84 34/41/85 33/42/86
f 58/75/87 59/76/88 35/44/89 34/41/90
f 28/34/78 27/33/77 39/45/91
f 29/37/81 28/34/78 39/45/91
f 36/46/92 37/47/93 40/48/94
f 37/47/93 38/49/95 40/48/94
f 42/51/96 41/50/97 44/52/98 43/53/99
f 43/53/99 44/52/98 50/54/100 49/55/101
f 45/56/102 46/57/103 52/58/104 51/59/105
f 46/57/103 45/56/102 48/60/106 47/61/107
f 42/62/108 43/63/109 46/64/110 47/65/111
f 43/63/109 49/66/112 52/67/113 46/64/110
f 33/42/86 34/41/85 44/52/114 41/50/115
f 37/68/116 36/69/117 48/60/118 45/56/119
f 34/41/90 35/44/89 50/54/120 44/52/121
f 38/70/122 37/68/116 45/56/119 51/59/123
f 35/87/124 38/88/125 51/89/126 50/90/127
f 48/80/128 41/79/129 42/83/130 47/84/131
f 50/90/127 51/89/126 52/93/132 49/94/133
f 35/87/124 59/91/134 60/92/135 38/88/125
f 54/72/79 53/71/82 32/38/136 31/35/137
f 55/73/80 54/72/79 31/35/137 30/36/138
f 56/97/139 61/98/140 39/99/141 27/100/142 55/101/143
f 36/77/144 56/81/139 57/82/145 33/78/146
f 36/77/144 33/78/146 41/79/129 48/80/128
f 61/104/140 60/105/135 53/106/147 29/107/148 39/108/141
f 56/81/139 55/85/143 30/86/149 57/82/145
f 30/39/150 31/40/151 58/75/84 57/74/83
f 31/40/152 32/43/153 59/76/88 58/75/87
f 60/92/135 59/91/134 32/95/154 53/96/147
f 40/102/155 61/98/140 56/97/139 36/103/144
f 38/109/125 60/105/135 61/104/140 40/110/155
