# This file uses centimeters as units for non-parametric coordinates.

v -0.395155 0.131921 0.165242
v -0.335686 0.248637 0.165242
v -0.243060 0.341262 0.165242
v -0.126345 0.400732 0.165242
v 0.003035 0.421224 0.165242
v 0.132415 0.400732 0.165242
v 0.249131 0.341262 0.165242
v 0.341757 0.248637 0.165242
v 0.401226 0.131921 0.165242
v 0.421718 0.002541 0.165242
v 0.401226 -0.126839 0.165242
v 0.341757 -0.243554 0.165242
v 0.249131 -0.336180 0.165242
v 0.132415 -0.395649 0.165242
v 0.003035 -0.416141 0.165242
v -0.126345 -0.395649 0.165242
v -0.243060 -0.336180 0.165242
v -0.335686 -0.243554 0.165242
v -0.395155 -0.126839 0.165242
v -0.415647 0.002541 0.165242
v -0.395155 0.131921 -0.112167
v -0.335686 0.248637 -0.112167
v -0.243060 0.341262 -0.112167
v -0.126345 0.400732 -0.112167
v 0.003035 0.421224 -0.112167
v 0.132415 0.400732 -0.112167
v 0.249131 0.341262 -0.112167
v 0.341757 0.248637 -0.112167
v 0.401226 0.131921 -0.112167
v 0.421718 0.002541 -0.112167
v 0.401226 -0.126839 -0.112167
v 0.341757 -0.243554 -0.112167
v 0.249131 -0.336180 -0.112167
v 0.132415 -0.395649 -0.112167
v 0.003035 -0.416141 -0.112167
v -0.126345 -0.395649 -0.112167
v -0.243060 -0.336180 -0.112167
v -0.335686 -0.243554 -0.112167
v -0.395155 -0.126839 -0.112167
v -0.415647 0.002541 -0.112167
v 0.003035 0.002541 0.165242
v 0.003035 0.002541 -0.112167
v -0.298885 0.280630 0.193021
v 0.298059 0.280630 0.193021
v -0.298885 0.369231 0.193021
v 0.298059 0.369231 0.193021
v -0.298885 0.347340 -0.387120
v 0.298059 0.347340 -0.387120
v -0.298885 0.302521 -0.387120
v 0.298059 0.302521 -0.387120
v -0.298885 0.369231 -0.168776
v -0.298885 0.280630 -0.168776
v 0.298059 0.280630 -0.168776
v 0.298059 0.369231 -0.168776
v -0.298885 0.616586 0.193021
v 0.298059 0.616586 0.193021
v 0.298059 0.616586 -0.168776
v -0.298885 0.616586 -0.168776
v 0.001620 0.616586 -0.195502
v 0.001620 0.616586 0.193388
v 0.001620 0.369231 0.193388
v 0.001620 0.280630 0.193388
v 0.001620 0.280630 -0.195502
v 0.001620 0.302521 -0.475995
v 0.001620 0.347340 -0.475995
v 0.001620 0.369231 -0.195502
v 0.001991 0.616586 0.065149
v 0.352498 0.616586 0.034123
v 0.352498 0.369231 0.034123
v 0.352498 0.280630 0.034123
v 0.001991 0.280630 0.065149
v -0.353324 0.280630 0.034123
v -0.353324 0.369231 0.034123
v -0.353324 0.616586 0.034123
vt 0.137596 0.036619
vt 0.157656 0.036619
vt 0.157656 0.180534
vt 0.137596 0.180534
vt 0.173575 0.036619
vt 0.173575 0.180534
vt 0.193634 0.036619
vt 0.193634 0.180534
vt 0.215870 0.036619
vt 0.215870 0.180534
vt 0.238106 0.036619
vt 0.238106 0.180534
vt 0.258166 0.036619
vt 0.258166 0.180534
vt 0.274085 0.036619
vt 0.274085 0.180534
vt 0.294145 0.036619
vt 0.294145 0.180534
vt 0.316381 0.036619
vt 0.316381 0.180534
vt 0.338617 0.036619
vt 0.338617 0.180534
vt 0.358676 0.036619
vt 0.358676 0.180534
vt 0.376704 0.036619
vt 0.376704 0.180534
vt 0.398873 0.036619
vt 0.398873 0.180534
vt 0.421109 0.036619
vt 0.421109 0.180534
vt 0.443345 0.036619
vt 0.443345 0.180534
vt 0.463404 0.036619
vt 0.463404 0.180534
vt 0.057145 0.036619
vt 0.073065 0.036619
vt 0.073065 0.180534
vt 0.057145 0.180534
vt 0.093124 0.036619
vt 0.093124 0.180534
vt 0.115360 0.036619
vt 0.115360 0.180534
vt 0.281125 0.357872
vt 0.275961 0.325268
vt 0.381471 0.325267
vt 0.296112 0.387285
vt 0.319455 0.410628
vt 0.348868 0.425614
vt 0.381472 0.430778
vt 0.414076 0.425613
vt 0.443489 0.410627
vt 0.466831 0.387285
vt 0.481818 0.357872
vt 0.486982 0.325267
vt 0.481818 0.292663
vt 0.466831 0.263250
vt 0.443489 0.239907
vt 0.414075 0.224921
vt 0.381471 0.219757
vt 0.348866 0.224921
vt 0.319453 0.239908
vt 0.296111 0.263250
vt 0.281125 0.292663
vt 0.242747 0.358200
vt 0.227760 0.387613
vt 0.142400 0.325596
vt 0.204418 0.410955
vt 0.175005 0.425942
vt 0.142400 0.431106
vt 0.109796 0.425942
vt 0.080383 0.410955
vt 0.057041 0.387613
vt 0.042054 0.358200
vt 0.036890 0.325596
vt 0.042054 0.292991
vt 0.057041 0.263578
vt 0.080383 0.240236
vt 0.109796 0.225249
vt 0.142400 0.220085
vt 0.175005 0.225249
vt 0.204418 0.240236
vt 0.227760 0.263578
vt 0.242747 0.292991
vt 0.247911 0.325596
vt 0.726778 0.586034
vt 0.726778 0.602035
vt 0.676778 0.602035
vt 0.676778 0.586034
vt 0.660506 0.586034
vt 0.660506 0.602035
vt 0.644260 0.602035
vt 0.644260 0.586034
vt 0.640402 0.274386
vt 0.640402 0.255067
vt 0.666251 0.255067
vt 0.666251 0.274386
vt 0.843936 0.542864
vt 0.843936 0.518035
vt 0.860182 0.518035
vt 0.860182 0.542864
vt 0.726778 0.612522
vt 0.726778 0.622991
vt 0.676778 0.622991
vt 0.676778 0.612522
vt 0.726778 0.548857
vt 0.726778 0.559326
vt 0.676778 0.559326
vt 0.676778 0.548857
vt 0.693201 0.294236
vt 0.706803 0.294236
vt 0.706803 0.320085
vt 0.693201 0.320085
vt 0.666661 0.274386
vt 0.672197 0.255067
vt 0.685799 0.255067
vt 0.684134 0.274386
vt 0.679190 0.320085
vt 0.679190 0.294236
vt 0.692792 0.294236
vt 0.692792 0.320085
vt 0.687945 0.274386
vt 0.686280 0.255067
vt 0.699882 0.255067
vt 0.705419 0.274386
vt 0.676778 0.602035
vt 0.676778 0.586034
vt 0.660506 0.602035
vt 0.644260 0.602035
vt 0.570580 0.551903
vt 0.570580 0.569678
vt 0.524837 0.569678
vt 0.524837 0.551903
vt 0.644260 0.569813
vt 0.660506 0.569813
vt 0.660506 0.569813
vt 0.644260 0.569813
vt 0.676778 0.569813
vt 0.676778 0.569813
vt 0.726778 0.569813
vt 0.843936 0.568035
vt 0.860182 0.568035
vt 0.672197 0.293970
vt 0.685799 0.293970
vt 0.640402 0.293970
vt 0.666251 0.293970
vt 0.686280 0.293970
vt 0.699882 0.293970
vt 0.570580 0.587698
vt 0.524837 0.587698
vt 0.876454 0.518035
vt 0.876454 0.542864
vt 0.876454 0.568035
vn -0.951057 0.309016 0.000000
vn -0.809017 0.587786 0.000000
vn -0.809017 0.587786 0.000000
vn -0.951057 0.309016 0.000000
vn -0.587786 0.809017 0.000000
vn -0.587786 0.809017 0.000000
vn -0.309018 0.951056 0.000000
vn -0.309018 0.951056 0.000000
vn -0.000000 1.000000 0.000000
vn -0.000000 1.000000 0.000000
vn 0.309018 0.951056 0.000000
vn 0.309018 0.951056 0.000000
vn 0.587786 0.809017 0.000000
vn 0.587786 0.809017 0.000000
vn 0.809017 0.587786 0.000000
vn 0.809017 0.587786 0.000000
vn 0.951056 0.309018 0.000000
vn 0.951056 0.309018 0.000000
vn 1.000000 0.000000 0.000000
vn 1.000000 0.000000 0.000000
vn 0.951056 -0.309017 0.000000
vn 0.951056 -0.309017 0.000000
vn 0.809017 -0.587786 0.000000
vn 0.809017 -0.587786 0.000000
vn 0.587785 -0.809017 0.000000
vn 0.587785 -0.809017 0.000000
vn 0.309017 -0.951057 0.000000
vn 0.309017 -0.951057 0.000000
vn 0.000000 -1.000000 0.000000
vn 0.000000 -1.000000 0.000000
vn -0.309017 -0.951057 0.000000
vn -0.309017 -0.951057 0.000000
vn -0.587785 -0.809017 0.000000
vn -0.587785 -0.809017 0.000000
vn -0.809017 -0.587785 0.000000
vn -0.809017 -0.587785 0.000000
vn -0.951057 -0.309017 0.000000
vn -0.951057 -0.309017 0.000000
vn -1.000000 -0.000002 0.000000
vn -1.000000 -0.000002 0.000000
vn 0.000000 0.000000 1.000000
vn 0.000000 0.000000 1.000000
vn -0.000000 0.000000 1.000000
vn 0.000000 0.000000 1.000000
vn 0.000000 0.000000 1.000000
vn 0.000000 0.000000 1.000000
vn 0.000000 0.000000 1.000000
vn 0.000000 0.000000 1.000000
vn -0.000000 0.000000 1.000000
vn -0.000000 0.000000 1.000000
vn 0.000000 0.000000 1.000000
vn 0.000000 0.000000 1.000000
vn -0.000000 0.000000 1.000000
vn -0.000000 0.000000 1.000000
vn 0.000000 0.000000 1.000000
vn 0.000000 0.000000 1.000000
vn 0.000000 0.000000 1.000000
vn 0.000000 0.000000 1.000000
vn 0.000000 0.000000 1.000000
vn -0.000000 0.000000 1.000000
vn 0.000000 0.000000 1.000000
vn -0.000000 0.000000 -1.000000
vn -0.000000 0.000000 -1.000000
vn -0.000000 0.000000 -1.000000
vn 0.000000 0.000000 -1.000000
vn 0.000000 0.000000 -1.000000
vn 0.000000 0.000000 -1.000000
vn 0.000000 0.000000 -1.000000
vn 0.000000 0.000000 -1.000000
vn 0.000000 0.000000 -1.000000
vn 0.000000 0.000000 -1.000000
vn 0.000000 0.000000 -1.000000
vn 0.000000 0.000000 -1.000000
vn 0.000000 0.000000 -1.000000
vn 0.000000 0.000000 -1.000000
vn 0.000000 0.000000 -1.000000
vn 0.000000 0.000000 -1.000000
vn 0.000000 0.000000 -1.000000
vn 0.000000 0.000000 -1.000000
vn 0.000000 0.000000 -1.000000
vn 0.000000 0.000000 -1.000000
vn 0.000000 0.000000 -1.000000
vn 0.000000 0.000000 1.000000
vn 0.001238 0.000000 0.999999
vn 0.001238 0.000000 0.999999
vn 0.000000 0.000000 1.000000
vn 0.000000 1.000000 0.000000
vn 0.000000 1.000000 -0.000000
vn 0.000000 1.000000 -0.000000
vn 0.000000 1.000000 -0.000000
vn -0.000000 0.000000 -1.000000
vn 0.287179 0.000000 -0.957877
vn 0.287179 0.000000 -0.957877
vn -0.000000 0.000000 -1.000000
vn 0.000003 -0.998941 -0.046005
vn 0.007380 -0.999256 -0.037848
vn 0.000000 -1.000000 -0.000000
vn 0.000000 -1.000000 -0.000000
vn 1.000000 0.000001 0.000000
vn 0.988562 -0.000000 -0.150814
vn 0.988562 -0.000000 -0.150814
vn 1.000000 0.000001 -0.000000
vn -0.988562 0.000000 -0.150814
vn -1.000000 0.000000 0.000000
vn -1.000000 0.000000 -0.000000
vn -0.988562 0.000000 -0.150814
vn -1.000000 0.000000 0.000000
vn -1.000000 0.000000 0.000000
vn -0.000025 -0.996170 -0.087432
vn 0.017045 -0.996026 -0.087419
vn 1.000000 0.000000 0.000000
vn 1.000000 0.000000 0.000000
vn 0.000006 0.996171 -0.087432
vn 0.017045 0.996026 -0.087419
vn 0.017045 0.996026 -0.087419
vn -0.000025 0.996171 -0.087432
vn 0.000000 0.000000 1.000000
vn 0.001238 0.000000 0.999999
vn 0.001238 0.000000 0.999999
vn 0.000000 0.000000 1.000000
vn 1.000000 0.000000 0.000000
vn 0.965840 0.000000 -0.259140
vn 0.965840 0.000000 -0.259140
vn 1.000000 0.000000 0.000000
vn 0.089793 0.000000 -0.995960
vn 0.000000 0.000000 -1.000000
vn 0.000000 0.000000 -1.000000
vn 0.089793 0.000000 -0.995960
vn -0.965840 0.000000 -0.259140
vn -1.000000 0.000000 0.000000
vn -1.000000 0.000000 0.000000
vn -0.965840 0.000000 -0.259140
vn 0.000000 1.000000 0.000000
vn 0.000000 1.000000 0.000000
vn -0.001221 0.000000 0.999999
vn -0.001221 0.000000 0.999999
vn -0.001221 0.000000 0.999999
vn -0.001221 0.000000 0.999999
vn -0.007286 -0.999256 -0.037879
vn 0.000000 -1.000000 0.000000
vn -0.016815 -0.996030 -0.087420
vn -0.283608 0.000000 -0.958940
vn -0.283608 0.000000 -0.958940
vn -0.016815 0.996030 -0.087420
vn -0.016815 0.996030 -0.087420
vn -0.088587 0.000000 -0.996068
vn -0.088587 0.000000 -0.996068
vn 0.000000 1.000000 0.000000
vn 0.000000 1.000000 0.000000
vn 0.946020 0.000000 0.324108
vn 0.946020 0.000000 0.324108
vn 0.946020 0.000002 0.324108
vn 0.946020 0.000002 0.324108
vn 0.000000 -1.000000 -0.000000
vn 0.000000 -1.000000 -0.000000
vn 0.000000 -1.000000 -0.000000
vn -0.946020 0.000000 0.324108
vn -0.946020 0.000000 0.324108
vn -0.946020 0.000000 0.324108
vn -0.946020 0.000000 0.324108
vn 0.000000 1.000000 -0.000000
f 1/1/1 2/2/2 22/3/3 21/4/4
f 2/2/2 3/5/5 23/6/6 22/3/3
f 3/5/5 4/7/7 24/8/8 23/6/6
f 4/7/7 5/9/9 25/10/10 24/8/8
f 5/9/9 6/11/11 26/12/12 25/10/10
f 6/11/11 7/13/13 27/14/14 26/12/12
f 7/13/13 8/15/15 28/16/16 27/14/14
f 8/15/15 9/17/17 29/18/18 28/16/16
f 9/17/17 10/19/19 30/20/20 29/18/18
f 10/19/19 11/21/21 31/22/22 30/20/20
f 11/21/21 12/23/23 32/24/24 31/22/22
f 12/23/23 13/25/25 33/26/26 32/24/24
f 13/25/25 14/27/27 34/28/28 33/26/26
f 14/27/27 15/29/29 35/30/30 34/28/28
f 15/29/29 16/31/31 36/32/32 35/30/30
f 16/31/31 17/33/33 37/34/34 36/32/32
f 17/35/33 18/36/35 38/37/36 37/38/34
f 18/36/35 19/39/37 39/40/38 38/37/36
f 19/39/37 20/41/39 40/42/40 39/40/38
f 20/41/39 1/1/1 21/4/4 40/42/40
f 2/43/41 1/44/42 41/45/43
f 3/46/44 2/43/41 41/45/43
f 4/47/45 3/46/44 41/45/43
f 5/48/46 4/47/45 41/45/43
f 6/49/47 5/48/46 41/45/43
f 7/50/48 6/49/47 41/45/43
f 8/51/49 7/50/48 41/45/43
f 9/52/50 8/51/49 41/45/43
f 10/53/51 9/52/50 41/45/43
f 11/54/52 10/53/51 41/45/43
f 12/55/53 11/54/52 41/45/43
f 13/56/54 12/55/53 41/45/43
f 14/57/55 13/56/54 41/45/43
f 15/58/56 14/57/55 41/45/43
f 16/59/57 15/58/56 41/45/43
f 17/60/58 16/59/57 41/45/43
f 18/61/59 17/60/58 41/45/43
f 19/62/60 18/61/59 41/45/43
f 20/63/61 19/62/60 41/45/43
f 1/44/42 20/63/61 41/45/43
f 21/64/62 22/65/63 42/66/64
f 22/65/63 23/67/65 42/66/64
f 23/67/65 24/68/66 42/66/64
f 24/68/66 25/69/67 42/66/64
f 25/69/67 26/70/68 42/66/64
f 26/70/68 27/71/69 42/66/64
f 27/71/69 28/72/70 42/66/64
f 28/72/70 29/73/71 42/66/64
f 29/73/71 30/74/72 42/66/64
f 30/74/72 31/75/73 42/66/64
f 31/75/73 32/76/74 42/66/64
f 32/76/74 33/77/75 42/66/64
f 33/77/75 34/78/76 42/66/64
f 34/78/76 35/79/77 42/66/64
f 35/79/77 36/80/78 42/66/64
f 36/80/78 37/81/79 42/66/64
f 37/81/79 38/82/80 42/66/64
f 38/82/80 39/83/81 42/66/64
f 39/83/81 40/84/82 42/66/64
f 40/84/82 21/64/62 42/66/64
f 62/85/83 44/86/84 46/87/85 61/88/86
f 67/89/87 68/90/88 57/91/89 59/92/90
f 65/93/91 48/94/92 50/95/93 64/96/94
f 63/97/95 53/98/96 70/99/97 71/100/98
f 70/101/99 53/102/100 54/103/101 69/104/102
f 52/105/103 72/106/104 73/107/105 51/108/106
f 49/109/107 52/110/103 51/111/106 47/112/108
f 64/113/109 50/114/110 53/115/96 63/116/95
f 54/117/101 53/118/100 50/119/111 48/120/112
f 66/121/113 54/122/114 48/123/115 65/124/116
f 61/88/117 46/87/118 56/125/119 60/126/120
f 69/127/121 54/128/122 57/91/123 68/90/124
f 54/129/125 66/130/126 59/131/127 57/132/128
f 51/133/129 73/134/130 74/135/131 58/136/132
f 74/135/133 67/89/87 59/92/90 58/136/134
f 45/137/135 61/88/117 60/126/120 55/138/136
f 43/139/137 62/85/83 61/88/86 45/137/138
f 52/140/139 63/97/95 71/100/98 72/141/140
f 49/142/141 64/113/109 63/116/95 52/143/139
f 47/144/142 65/93/91 64/96/94 49/145/143
f 51/146/144 66/121/113 65/124/116 47/147/145
f 59/131/127 66/130/126 51/148/146 58/149/147
f 60/126/148 56/125/149 68/90/88 67/89/87
f 46/87/150 69/127/121 68/90/124 56/125/151
f 44/86/152 70/101/99 69/104/102 46/87/153
f 71/100/98 70/99/97 44/150/154 62/151/155
f 72/141/140 71/100/98 62/151/155 43/152/156
f 73/107/105 72/106/104 43/139/157 45/137/158
f 74/135/131 73/134/130 45/137/159 55/138/160
f 55/138/161 60/126/148 67/89/87 74/135/133
