# This file uses centimeters as units for non-parametric coordinates.

v 0.190553 -0.114234 -0.089202
v 0.066656 -0.114234 -0.089202
v -0.057241 -0.114234 -0.089202
v -0.181138 -0.114234 -0.089202
v 0.190553 0.088492 -0.089202
v 0.066656 0.088492 -0.089202
v -0.057241 0.088492 -0.089202
v -0.181138 0.088492 -0.089202
v 0.066656 0.385107 -0.029734
v -0.057241 0.385107 -0.029734
v 0.066656 0.385107 0.029734
v -0.057241 0.385107 0.029734
v 0.190553 0.088492 0.089202
v 0.066656 0.088492 0.089202
v -0.057241 0.088492 0.089202
v -0.181138 0.088492 0.089202
v 0.190553 -0.114234 0.089202
v 0.066656 -0.114234 0.089202
v -0.057241 -0.114234 0.089202
v -0.181138 -0.114234 0.089202
v 0.042653 -0.554068 0.013121
v -0.033238 -0.554068 0.013121
v 0.042653 -0.554068 -0.013121
v -0.033238 -0.554068 -0.013121
v -0.181138 -0.114234 0.029734
v -0.181138 -0.114234 -0.029734
v -0.181138 0.088492 0.029734
v -0.181138 0.088492 -0.029734
v 0.190553 -0.114234 0.029734
v 0.190553 -0.114234 -0.029734
v 0.190553 0.088492 0.029734
v 0.190553 0.088492 -0.029734
v 0.099573 -0.554068 -0.032804
v 0.190553 -0.289473 -0.089202
v 0.066656 -0.289473 -0.089202
v 0.042653 -0.554068 -0.032804
v -0.057241 -0.289473 -0.089202
v -0.033238 -0.554068 -0.032804
v -0.181138 -0.289473 -0.089202
v -0.090158 -0.554068 -0.032804
v 0.190553 0.263731 -0.089202
v 0.159582 0.385107 -0.074337
v 0.066656 0.263731 -0.089202
v 0.066656 0.385107 -0.074337
v -0.057241 0.263731 -0.089202
v -0.057241 0.385107 -0.074337
v -0.150167 0.385107 -0.074337
v -0.181138 0.263731 -0.089202
v 0.159582 0.385107 0.074337
v 0.190553 0.263731 0.089202
v 0.066656 0.385107 0.074337
v 0.066656 0.263731 0.089202
v -0.057241 0.385107 0.074337
v -0.057241 0.263731 0.089202
v -0.150167 0.385107 0.074337
v -0.181138 0.263731 0.089202
v 0.190553 -0.289473 0.089202
v 0.099573 -0.554068 0.032804
v 0.066656 -0.289473 0.089202
v 0.042653 -0.554068 0.032804
v -0.057241 -0.289473 0.089202
v -0.033238 -0.554068 0.032804
v -0.090158 -0.554068 0.032804
v -0.181138 -0.289473 0.089202
v 0.159582 0.385107 -0.029734
v 0.190553 0.263731 -0.029734
v -0.150167 0.385107 -0.029734
v -0.181138 0.263731 -0.029734
v 0.159582 0.385107 0.029734
v 0.190553 0.263731 0.029734
v -0.150167 0.385107 0.029734
v -0.181138 0.263731 0.029734
v 0.099573 -0.554068 0.013121
v 0.190553 -0.289473 0.029734
v -0.090158 -0.554068 0.013121
v -0.181138 -0.289473 0.029734
v 0.099573 -0.554068 -0.013121
v 0.190553 -0.289473 -0.029734
v -0.090158 -0.554068 -0.013121
v -0.181138 -0.289473 -0.029734
v -0.045239 -0.454891 -0.061003
v 0.054654 -0.454891 -0.061003
v 0.145063 -0.454891 -0.061003
v 0.145063 -0.454891 -0.021428
v 0.145063 -0.454891 0.021428
v 0.145063 -0.454891 0.061003
v 0.054654 -0.454891 0.061003
v -0.045239 -0.454891 0.061003
v -0.135648 -0.454891 0.061003
v -0.135648 -0.454891 0.021428
v -0.135648 -0.454891 -0.021428
v -0.135648 -0.454891 -0.061003
vt 0.155538 0.835001
vt 0.196399 0.835001
vt 0.196398 0.875861
vt 0.155538 0.875861
vt 0.237259 0.835001
vt 0.237259 0.875861
vt 0.278120 0.835001
vt 0.278120 0.875861
vt 0.360204 0.549487
vt 0.398247 0.549487
vt 0.398247 0.587530
vt 0.360204 0.587530
vt 0.155538 0.600917
vt 0.196399 0.600918
vt 0.196399 0.641778
vt 0.155538 0.641778
vt 0.237260 0.600918
vt 0.237259 0.641778
vt 0.278120 0.600918
vt 0.278120 0.641778
vt 0.204315 0.729374
vt 0.229343 0.729374
vt 0.229343 0.747405
vt 0.204315 0.747405
vt 0.392373 0.819059
vt 0.419098 0.819059
vt 0.419098 0.865914
vt 0.392373 0.865914
vt 0.365648 0.819059
vt 0.365648 0.865914
vt 0.338924 0.819059
vt 0.338924 0.865914
vt 0.027032 0.817358
vt 0.054157 0.817358
vt 0.054157 0.865060
vt 0.027032 0.865060
vt 0.081282 0.817358
vt 0.081282 0.865060
vt 0.108406 0.817358
vt 0.108406 0.865060
vt 0.082682 0.713863
vt 0.095544 0.737200
vt 0.077493 0.737200
vt 0.073704 0.713863
vt 0.170541 0.780305
vt 0.185543 0.760929
vt 0.204315 0.760929
vt 0.200357 0.780305
vt 0.229343 0.760929
vt 0.233301 0.780305
vt 0.263117 0.780305
vt 0.248115 0.760929
vt 0.351596 0.740324
vt 0.364269 0.717402
vt 0.373114 0.717402
vt 0.369381 0.740324
vt 0.108406 0.906295
vt 0.101626 0.934855
vt 0.081282 0.934855
vt 0.081282 0.906295
vt 0.165752 0.935646
vt 0.155538 0.911182
vt 0.196398 0.911182
vt 0.196398 0.935646
vt 0.237259 0.911182
vt 0.237259 0.935646
vt 0.278120 0.911182
vt 0.267905 0.935646
vt 0.345604 0.934469
vt 0.338924 0.906416
vt 0.365648 0.906416
vt 0.365648 0.934469
vt 0.033812 0.934855
vt 0.027032 0.906295
vt 0.054157 0.906295
vt 0.054157 0.934855
vt 0.155538 0.565597
vt 0.165752 0.541133
vt 0.196399 0.541133
vt 0.196399 0.565597
vt 0.237260 0.541133
vt 0.237260 0.565597
vt 0.267906 0.541133
vt 0.278120 0.565597
vt 0.419098 0.906416
vt 0.412418 0.934469
vt 0.392373 0.934469
vt 0.392373 0.906416
vt 0.039894 0.737200
vt 0.052756 0.713863
vt 0.061734 0.713863
vt 0.057945 0.737200
vt 0.185543 0.715850
vt 0.170541 0.696474
vt 0.200357 0.696474
vt 0.204315 0.715850
vt 0.233301 0.696474
vt 0.229343 0.715850
vt 0.263117 0.696474
vt 0.248115 0.715850
vt 0.393753 0.717402
vt 0.406425 0.740324
vt 0.388640 0.740324
vt 0.384908 0.717402
vt 0.155538 0.799680
vt 0.196399 0.799680
vt 0.237259 0.799680
vt 0.278120 0.799680
vt 0.331671 0.520954
vt 0.360204 0.520954
vt 0.331671 0.549487
vt 0.398247 0.520954
vt 0.426780 0.520954
vt 0.426780 0.549487
vt 0.331671 0.587530
vt 0.426780 0.587530
vt 0.360204 0.616062
vt 0.331671 0.616062
vt 0.398247 0.616062
vt 0.426780 0.616062
vt 0.196399 0.677098
vt 0.155538 0.677098
vt 0.237259 0.677098
vt 0.278120 0.677099
vt 0.185543 0.729374
vt 0.248115 0.729374
vt 0.185543 0.747405
vt 0.248115 0.747405
vt 0.392373 0.778557
vt 0.419098 0.778557
vt 0.365648 0.778557
vt 0.338924 0.778557
vt 0.027032 0.776124
vt 0.054157 0.776124
vt 0.081282 0.776124
vt 0.108406 0.776124
vn 0.000000 0.000000 -1.000000
vn 0.000000 0.000000 -1.000000
vn 0.000000 0.000000 -1.000000
vn 0.000000 0.000000 -1.000000
vn 0.000000 0.000000 -1.000000
vn 0.000000 0.000000 -1.000000
vn 0.000000 0.000000 -1.000000
vn 0.000000 0.000000 -1.000000
vn 0.000000 1.000000 0.000000
vn 0.000000 1.000000 0.000000
vn 0.000000 1.000000 0.000000
vn 0.000000 1.000000 0.000000
vn -0.000000 0.000000 1.000000
vn -0.000000 0.000000 1.000000
vn -0.000000 0.000000 1.000000
vn -0.000000 0.000000 1.000000
vn -0.000000 0.000000 1.000000
vn -0.000000 0.000000 1.000000
vn -0.000000 0.000000 1.000000
vn -0.000000 0.000000 1.000000
vn -0.000000 -1.000000 -0.000001
vn 0.000000 -1.000000 -0.000001
vn 0.000000 -1.000000 0.000001
vn -0.000000 -1.000000 0.000001
vn -1.000000 -0.000000 -0.000000
vn -1.000000 -0.000000 -0.000000
vn -1.000000 0.000000 -0.000000
vn -1.000000 0.000000 -0.000000
vn -1.000000 0.000000 -0.000000
vn -1.000000 -0.000000 -0.000000
vn -1.000000 0.000000 -0.000000
vn -1.000000 -0.000000 -0.000000
vn 1.000000 0.000000 0.000000
vn 1.000000 0.000000 0.000000
vn 1.000000 -0.000000 0.000000
vn 1.000000 -0.000000 0.000000
vn 1.000000 0.000000 0.000000
vn 1.000000 0.000000 0.000000
vn 1.000000 0.000000 0.000000
vn 1.000000 0.000000 0.000000
vn 0.908947 -0.416912 0.000000
vn 0.953974 -0.299888 0.000000
vn 0.950857 -0.309632 0.000000
vn 0.908947 -0.416912 0.000000
vn 0.000000 -0.190378 -0.981711
vn 0.000000 -0.273490 -0.961875
vn 0.000000 -0.273490 -0.961875
vn 0.000000 -0.201012 -0.979589
vn 0.000000 -0.273490 -0.961875
vn 0.000000 -0.201012 -0.979589
vn 0.000000 -0.190378 -0.981711
vn 0.000000 -0.273490 -0.961875
vn -0.953975 -0.299887 -0.000000
vn -0.908946 -0.416914 -0.000000
vn -0.908946 -0.416913 -0.000000
vn -0.950857 -0.309631 -0.000000
vn 0.968952 0.247247 0.000000
vn 0.968952 0.247247 0.000000
vn 0.968953 0.247247 0.000000
vn 0.968953 0.247247 0.000000
vn 0.000000 0.121567 -0.992583
vn 0.000000 0.121567 -0.992583
vn 0.000000 0.121567 -0.992583
vn 0.000000 0.121567 -0.992583
vn 0.000000 0.121567 -0.992583
vn 0.000000 0.121567 -0.992583
vn 0.000000 0.121567 -0.992583
vn 0.000000 0.121567 -0.992583
vn -0.968953 0.247246 -0.000000
vn -0.968953 0.247246 -0.000000
vn -0.968953 0.247245 -0.000000
vn -0.968953 0.247245 -0.000000
vn 0.968953 0.247246 0.000000
vn 0.968953 0.247246 0.000000
vn 0.968953 0.247246 0.000000
vn 0.968953 0.247246 0.000000
vn -0.000000 0.121567 0.992583
vn -0.000000 0.121567 0.992583
vn -0.000000 0.121567 0.992583
vn -0.000000 0.121567 0.992583
vn -0.000000 0.121567 0.992583
vn -0.000000 0.121567 0.992583
vn -0.000000 0.121567 0.992583
vn -0.000000 0.121567 0.992583
vn -0.968953 0.247246 -0.000000
vn -0.968953 0.247246 -0.000000
vn -0.968953 0.247245 -0.000000
vn -0.968953 0.247245 -0.000000
vn 0.953974 -0.299888 0.000000
vn 0.908947 -0.416912 0.000000
vn 0.908947 -0.416912 0.000000
vn 0.950857 -0.309631 0.000000
vn -0.000000 -0.273490 0.961875
vn -0.000000 -0.190378 0.981711
vn -0.000000 -0.201012 0.979589
vn -0.000000 -0.273490 0.961875
vn -0.000000 -0.201012 0.979589
vn -0.000000 -0.273490 0.961875
vn -0.000000 -0.190378 0.981711
vn -0.000000 -0.273490 0.961875
vn -0.908946 -0.416914 -0.000000
vn -0.953975 -0.299887 -0.000000
vn -0.950857 -0.309631 -0.000000
vn -0.908946 -0.416913 -0.000000
vn 0.000000 0.000000 -1.000000
vn 0.000000 0.000000 -1.000000
vn 0.000000 0.000000 -1.000000
vn 0.000000 0.000000 -1.000000
vn 0.000000 0.000000 -1.000000
vn 0.000000 0.000000 -1.000000
vn 0.000000 0.000000 -1.000000
vn 0.000000 0.000000 -1.000000
vn 0.000000 1.000000 0.000000
vn 0.000000 1.000000 0.000000
vn 0.000000 1.000000 0.000000
vn 0.000000 1.000000 0.000000
vn 0.000000 1.000000 0.000000
vn 0.000000 1.000000 0.000000
vn 0.000000 1.000000 0.000000
vn 0.000000 1.000000 0.000000
vn 0.000000 1.000000 0.000000
vn 0.000000 1.000000 0.000000
vn 0.000000 1.000000 0.000000
vn 0.000000 1.000000 0.000000
vn -0.000000 0.000000 1.000000
vn -0.000000 0.000000 1.000000
vn -0.000000 0.000000 1.000000
vn -0.000000 0.000000 1.000000
vn -0.000000 0.000000 1.000000
vn -0.000000 0.000000 1.000000
vn -0.000000 0.000000 1.000000
vn -0.000000 0.000000 1.000000
vn -0.000001 -1.000000 -0.000000
vn -0.000000 -1.000000 -0.000001
vn -0.000001 -1.000000 -0.000000
vn 0.000000 -1.000000 -0.000001
vn 0.000001 -1.000000 0.000000
vn 0.000001 -1.000000 0.000000
vn -0.000001 -1.000000 -0.000000
vn 0.000001 -1.000000 0.000000
vn -0.000000 -1.000000 0.000001
vn -0.000001 -1.000000 -0.000000
vn 0.000000 -1.000000 0.000001
vn 0.000001 -1.000000 0.000000
vn -1.000000 -0.000000 -0.000000
vn -1.000000 -0.000000 -0.000000
vn -1.000000 0.000000 -0.000000
vn -1.000000 0.000000 -0.000000
vn -1.000000 0.000001 -0.000000
vn -1.000000 0.000000 -0.000000
vn -1.000000 -0.000000 -0.000000
vn -1.000000 -0.000001 -0.000000
vn 1.000000 0.000001 0.000000
vn 1.000000 0.000001 0.000000
vn 1.000000 0.000000 0.000000
vn 1.000000 0.000000 0.000000
vn 1.000000 -0.000000 0.000000
vn 1.000000 -0.000001 0.000000
vn 1.000000 0.000000 0.000000
vn 1.000000 0.000001 0.000000
vn 0.000000 -0.168047 -0.985779
vn 0.000000 -0.168048 -0.985779
vn 0.000000 -0.168047 -0.985779
vn 0.964204 -0.265160 0.000000
vn 0.964205 -0.265160 0.000000
vn 0.964205 -0.265159 0.000000
vn 0.964205 -0.265160 0.000000
vn -0.000000 -0.168047 0.985779
vn -0.000000 -0.168047 0.985779
vn -0.000000 -0.168048 0.985779
vn -0.000000 -0.168048 0.985779
vn -0.964205 -0.265158 -0.000000
vn -0.964205 -0.265158 -0.000000
vn -0.964205 -0.265158 -0.000000
vn -0.964205 -0.265158 -0.000000
vn 0.000000 -0.168048 -0.985779
f 1/1/1 2/2/2 6/3/3 5/4/4
f 2/2/2 3/5/5 7/6/6 6/3/3
f 3/5/5 4/7/7 8/8/8 7/6/6
f 9/9/9 10/10/10 12/11/11 11/12/12
f 13/13/13 14/14/14 18/15/15 17/16/16
f 14/14/14 15/17/17 19/18/18 18/15/15
f 15/17/17 16/19/19 20/20/20 19/18/18
f 21/21/21 22/22/22 24/23/23 23/24/24
f 25/25/25 20/26/26 16/27/27 27/28/28
f 26/29/29 25/25/25 27/28/28 28/30/30
f 4/31/31 26/29/29 28/30/30 8/32/32
f 17/33/33 29/34/34 31/35/35 13/36/36
f 29/34/34 30/37/37 32/38/38 31/35/35
f 30/37/37 1/39/39 5/40/40 32/38/38
f 33/41/41 83/42/42 84/43/43 77/44/44
f 83/45/45 33/46/46 36/47/47 82/48/48
f 82/48/48 36/47/47 38/49/49 81/50/50
f 92/51/51 81/50/50 38/49/49 40/52/52
f 92/53/53 40/54/54 79/55/55 91/56/56
f 41/57/57 42/58/58 65/59/59 66/60/60
f 42/61/61 41/62/62 43/63/63 44/64/64
f 44/64/64 43/63/63 45/65/65 46/66/66
f 46/66/66 45/65/65 48/67/67 47/68/68
f 47/69/69 48/70/70 68/71/71 67/72/72
f 49/73/73 50/74/74 70/75/75 69/76/76
f 50/77/77 49/78/78 51/79/79 52/80/80
f 52/80/80 51/79/79 53/81/81 54/82/82
f 54/82/82 53/81/81 55/83/83 56/84/84
f 56/85/85 55/86/86 71/87/87 72/88/88
f 86/89/89 58/90/90 73/91/91 85/92/92
f 58/93/93 86/94/94 87/95/95 60/96/96
f 60/96/96 87/95/95 88/97/97 62/98/98
f 62/98/98 88/97/97 89/99/99 63/100/100
f 63/101/101 89/102/102 90/103/103 75/104/104
f 66/60/60 65/59/59 69/76/76 70/75/75
f 67/72/72 68/71/71 72/88/88 71/87/87
f 85/92/92 73/91/91 77/44/44 84/43/43
f 75/104/104 90/103/103 91/56/56 79/55/55
f 34/105/105 35/106/106 2/2/2 1/1/1
f 35/106/106 37/107/107 3/5/5 2/2/2
f 37/107/107 39/108/108 4/7/7 3/5/5
f 5/4/4 6/3/3 43/63/109 41/62/110
f 6/3/3 7/6/6 45/65/111 43/63/109
f 7/6/6 8/8/8 48/67/112 45/65/111
f 42/109/113 44/110/114 9/9/9 65/111/115
f 44/110/114 46/112/116 10/10/10 9/9/9
f 46/112/116 47/113/117 67/114/118 10/10/10
f 65/111/115 9/9/9 11/12/12 69/115/119
f 10/10/10 67/114/118 71/116/120 12/11/11
f 69/115/119 11/12/12 51/117/121 49/118/122
f 11/12/12 12/11/11 53/119/123 51/117/121
f 12/11/11 71/116/120 55/120/124 53/119/123
f 50/77/125 52/80/126 14/14/14 13/13/13
f 52/80/126 54/82/127 15/17/17 14/14/14
f 54/82/127 56/84/128 16/19/19 15/17/17
f 17/16/16 18/15/15 59/121/129 57/122/130
f 18/15/15 19/18/18 61/123/131 59/121/129
f 19/18/18 20/20/20 64/124/132 61/123/131
f 58/93/133 60/96/134 21/21/21 73/125/135
f 60/96/134 62/98/136 22/22/22 21/21/21
f 62/98/136 63/100/137 75/126/138 22/22/22
f 73/125/135 21/21/21 23/24/24 77/127/139
f 22/22/22 75/126/138 79/128/140 24/23/23
f 77/127/139 23/24/24 36/47/141 33/46/142
f 23/24/24 24/23/23 38/49/143 36/47/141
f 24/23/23 79/128/140 40/52/144 38/49/143
f 76/129/145 64/130/146 20/26/26 25/25/25
f 80/131/147 76/129/145 25/25/25 26/29/29
f 39/132/148 80/131/147 26/29/29 4/31/31
f 27/28/28 16/27/27 56/85/149 72/88/150
f 28/30/30 27/28/28 72/88/150 68/71/151
f 8/32/32 28/30/30 68/71/151 48/70/152
f 57/133/153 74/134/154 29/34/34 17/33/33
f 74/134/154 78/135/155 30/37/37 29/34/34
f 78/135/155 34/136/156 1/39/39 30/37/37
f 13/36/36 31/35/35 70/75/157 50/74/158
f 31/35/35 32/38/38 66/60/159 70/75/157
f 32/38/38 5/40/40 41/57/160 66/60/159
f 35/106/161 82/48/48 81/50/50 37/107/162
f 34/105/163 83/45/45 82/48/48 35/106/161
f 84/43/43 83/42/42 34/136/164 78/135/165
f 74/134/166 85/92/92 84/43/43 78/135/165
f 57/133/167 86/89/89 85/92/92 74/134/166
f 87/95/95 86/94/94 57/122/168 59/121/169
f 88/97/97 87/95/95 59/121/169 61/123/170
f 89/99/99 88/97/97 61/123/170 64/124/171
f 90/103/103 89/102/102 64/130/172 76/129/173
f 91/56/56 90/103/103 76/129/173 80/131/174
f 39/132/175 92/53/53 91/56/56 80/131/174
f 37/107/162 81/50/50 92/51/51 39/108/176
